<ttFont>
    <TTGlyph name=".notdef" xMin="72" yMin="0" xMax="1262" yMax="1409">
      <contour>
        <pt x="72" y="1409" on="1"/>
        <pt x="1262" y="1409" on="1"/>
        <pt x="1262" y="0" on="1"/>
        <pt x="72" y="0" on="1"/>
      </contour>
      <contour>
        <pt x="1147" y="115" on="1"/>
        <pt x="1147" y="1294" on="1"/>
        <pt x="186" y="1294" on="1"/>
        <pt x="186" y="115" on="1"/>
      </contour>
    </TTGlyph>
    <TTGlyph name="A" xMin="-12" yMin="0" xMax="1444" yMax="1525">
      <contour>
        <pt x="13" y="0" on="1"/>
        <pt x="-12" y="0" on="0"/>
        <pt x="-12" y="57" on="1"/>
        <pt x="-12" y="109" on="0"/>
        <pt x="12" y="133" on="1"/>
        <pt x="20" y="141" on="0"/>
        <pt x="48" y="141" on="1"/>
        <pt x="122" y="141" on="0"/>
        <pt x="145" y="198" on="1"/>
        <pt x="654" y="1505" on="1"/>
        <pt x="662" y="1525" on="0"/>
        <pt x="693" y="1525" on="1"/>
        <pt x="760" y="1525" on="0"/>
        <pt x="768" y="1505" on="1"/>
        <pt x="1301" y="141" on="1"/>
        <pt x="1418" y="141" on="1"/>
        <pt x="1444" y="141" on="0"/>
        <pt x="1444" y="81" on="1"/>
        <pt x="1444" y="31" on="0"/>
        <pt x="1415" y="0" on="0"/>
        <pt x="1405" y="0" on="1"/>
        <pt x="920" y="0" on="1"/>
        <pt x="895" y="0" on="0"/>
        <pt x="895" y="55" on="1"/>
        <pt x="895" y="107" on="0"/>
        <pt x="925" y="141" on="0"/>
        <pt x="936" y="141" on="1"/>
        <pt x="1060" y="141" on="0"/>
        <pt x="1060" y="165" on="1"/>
        <pt x="1060" y="174" on="0"/>
        <pt x="1052" y="190" on="1"/>
        <pt x="933" y="499" on="1"/>
        <pt x="426" y="499" on="1"/>
        <pt x="287" y="141" on="1"/>
        <pt x="459" y="141" on="1"/>
        <pt x="485" y="141" on="0"/>
        <pt x="485" y="83" on="1"/>
        <pt x="485" y="31" on="0"/>
        <pt x="458" y="0" on="0"/>
        <pt x="449" y="0" on="1"/>
      </contour>
      <contour>
        <pt x="485" y="653" on="1"/>
        <pt x="874" y="653" on="1"/>
        <pt x="681" y="1157" on="1"/>
      </contour>
    </TTGlyph>
    <TTGlyph name="AE" xMin="-37" yMin="0" xMax="1825" yMax="1505">
      <contour>
        <pt x="1549" y="453" on="0"/>
        <pt x="1477" y="453" on="1"/>
        <pt x="1405" y="453" on="0"/>
        <pt x="1405" y="480" on="1"/>
        <pt x="1405" y="631" on="1"/>
        <pt x="1068" y="631" on="1"/>
        <pt x="1086" y="154" on="1"/>
        <pt x="1370" y="154" on="1"/>
        <pt x="1513" y="154" on="0"/>
        <pt x="1609" y="188" on="0"/>
        <pt x="1668" y="248" on="0"/>
        <pt x="1682" y="303" on="1"/>
        <pt x="1686" y="323" on="0"/>
        <pt x="1725" y="323" on="1"/>
        <pt x="1731" y="323" on="1"/>
        <pt x="1744" y="323" on="0"/>
        <pt x="1762" y="320" on="1"/>
        <pt x="1824" y="311" on="0"/>
        <pt x="1825" y="282" on="1"/>
        <pt x="1825" y="274" on="1"/>
        <pt x="1811" y="172" on="0"/>
        <pt x="1748" y="21" on="0"/>
        <pt x="1733" y="0" on="1"/>
        <pt x="713" y="0" on="1"/>
        <pt x="686" y="0" on="0"/>
        <pt x="686" y="59" on="1"/>
        <pt x="686" y="110" on="0"/>
        <pt x="710" y="134" on="1"/>
        <pt x="718" y="142" on="0"/>
        <pt x="742" y="142" on="1"/>
        <pt x="745" y="142" on="1"/>
        <pt x="750" y="141" on="0"/>
        <pt x="756" y="141" on="1"/>
        <pt x="778" y="141" on="0"/>
        <pt x="801" y="143" on="1"/>
        <pt x="830" y="145" on="0"/>
        <pt x="846" y="150" on="1"/>
        <pt x="875" y="159" on="0"/>
        <pt x="875" y="184" on="1"/>
        <pt x="858" y="631" on="1"/>
        <pt x="467" y="631" on="1"/>
        <pt x="273" y="141" on="1"/>
        <pt x="385" y="141" on="1"/>
        <pt x="411" y="141" on="0"/>
        <pt x="411" y="83" on="1"/>
        <pt x="411" y="31" on="0"/>
        <pt x="384" y="0" on="0"/>
        <pt x="375" y="0" on="1"/>
        <pt x="-12" y="0" on="1"/>
        <pt x="-37" y="0" on="0"/>
        <pt x="-37" y="57" on="1"/>
        <pt x="-37" y="108" on="0"/>
        <pt x="-5" y="142" on="0"/>
        <pt x="4" y="143" on="1"/>
        <pt x="52" y="147" on="0"/>
        <pt x="108" y="168" on="0"/>
        <pt x="120" y="198" on="1"/>
        <pt x="615" y="1469" on="1"/>
        <pt x="629" y="1505" on="0"/>
        <pt x="671" y="1505" on="1"/>
        <pt x="1784" y="1505" on="1"/>
        <pt x="1784" y="1214" on="1"/>
        <pt x="1784" y="1180" on="0"/>
        <pt x="1714" y="1180" on="1"/>
        <pt x="1643" y="1180" on="0"/>
        <pt x="1643" y="1202" on="1"/>
        <pt x="1643" y="1286" on="0"/>
        <pt x="1621" y="1310" on="1"/>
        <pt x="1582" y="1351" on="0"/>
        <pt x="1479" y="1351" on="1"/>
        <pt x="1040" y="1351" on="1"/>
        <pt x="1062" y="785" on="1"/>
        <pt x="1340" y="785" on="1"/>
        <pt x="1386" y="785" on="0"/>
        <pt x="1394" y="807" on="1"/>
        <pt x="1407" y="839" on="0"/>
        <pt x="1407" y="936" on="1"/>
        <pt x="1407" y="959" on="0"/>
        <pt x="1467" y="959" on="1"/>
        <pt x="1519" y="959" on="0"/>
        <pt x="1549" y="931" on="0"/>
        <pt x="1549" y="922" on="1"/>
        <pt x="1549" y="494" on="1"/>
      </contour>
      <contour>
        <pt x="829" y="1350" on="1"/>
        <pt x="829" y="1351" on="1"/>
        <pt x="829" y="1364" on="0"/>
        <pt x="812" y="1364" on="1"/>
        <pt x="755" y="1364" on="0"/>
        <pt x="735" y="1313" on="1"/>
        <pt x="526" y="785" on="1"/>
        <pt x="852" y="785" on="1"/>
      </contour>
    </TTGlyph>
    <TTGlyph name="Aacute" xMin="-12" yMin="0" xMax="1444" yMax="1991">
      <contour>
        <pt x="13" y="0" on="1"/>
        <pt x="-12" y="0" on="0"/>
        <pt x="-12" y="57" on="1"/>
        <pt x="-12" y="109" on="0"/>
        <pt x="12" y="133" on="1"/>
        <pt x="20" y="141" on="0"/>
        <pt x="48" y="141" on="1"/>
        <pt x="122" y="141" on="0"/>
        <pt x="145" y="198" on="1"/>
        <pt x="654" y="1505" on="1"/>
        <pt x="662" y="1525" on="0"/>
        <pt x="693" y="1525" on="1"/>
        <pt x="760" y="1525" on="0"/>
        <pt x="768" y="1505" on="1"/>
        <pt x="1301" y="141" on="1"/>
        <pt x="1418" y="141" on="1"/>
        <pt x="1444" y="141" on="0"/>
        <pt x="1444" y="81" on="1"/>
        <pt x="1444" y="31" on="0"/>
        <pt x="1415" y="0" on="0"/>
        <pt x="1405" y="0" on="1"/>
        <pt x="920" y="0" on="1"/>
        <pt x="895" y="0" on="0"/>
        <pt x="895" y="55" on="1"/>
        <pt x="895" y="107" on="0"/>
        <pt x="925" y="141" on="0"/>
        <pt x="936" y="141" on="1"/>
        <pt x="1060" y="141" on="0"/>
        <pt x="1060" y="165" on="1"/>
        <pt x="1060" y="174" on="0"/>
        <pt x="1052" y="190" on="1"/>
        <pt x="933" y="499" on="1"/>
        <pt x="426" y="499" on="1"/>
        <pt x="287" y="141" on="1"/>
        <pt x="459" y="141" on="1"/>
        <pt x="485" y="141" on="0"/>
        <pt x="485" y="83" on="1"/>
        <pt x="485" y="31" on="0"/>
        <pt x="458" y="0" on="0"/>
        <pt x="449" y="0" on="1"/>
      </contour>
      <contour>
        <pt x="485" y="653" on="1"/>
        <pt x="874" y="653" on="1"/>
        <pt x="681" y="1157" on="1"/>
      </contour>
      <contour>
        <pt x="782" y="1598" on="1"/>
        <pt x="740" y="1598" on="0"/>
        <pt x="719" y="1622" on="1"/>
        <pt x="683" y="1663" on="0"/>
        <pt x="683" y="1706" on="1"/>
        <pt x="956" y="1991" on="1"/>
        <pt x="959" y="1991" on="1"/>
        <pt x="1021" y="1991" on="0"/>
        <pt x="1062" y="1948" on="1"/>
        <pt x="1105" y="1904" on="0"/>
        <pt x="1105" y="1833" on="1"/>
      </contour>
    </TTGlyph>
    <TTGlyph name="Acircumflex" xMin="-12" yMin="0" xMax="1444" yMax="1914">
      <contour>
        <pt x="13" y="0" on="1"/>
        <pt x="-12" y="0" on="0"/>
        <pt x="-12" y="57" on="1"/>
        <pt x="-12" y="109" on="0"/>
        <pt x="12" y="133" on="1"/>
        <pt x="20" y="141" on="0"/>
        <pt x="48" y="141" on="1"/>
        <pt x="122" y="141" on="0"/>
        <pt x="145" y="198" on="1"/>
        <pt x="654" y="1505" on="1"/>
        <pt x="662" y="1525" on="0"/>
        <pt x="693" y="1525" on="1"/>
        <pt x="760" y="1525" on="0"/>
        <pt x="768" y="1505" on="1"/>
        <pt x="1301" y="141" on="1"/>
        <pt x="1418" y="141" on="1"/>
        <pt x="1444" y="141" on="0"/>
        <pt x="1444" y="81" on="1"/>
        <pt x="1444" y="31" on="0"/>
        <pt x="1415" y="0" on="0"/>
        <pt x="1405" y="0" on="1"/>
        <pt x="920" y="0" on="1"/>
        <pt x="895" y="0" on="0"/>
        <pt x="895" y="55" on="1"/>
        <pt x="895" y="107" on="0"/>
        <pt x="925" y="141" on="0"/>
        <pt x="936" y="141" on="1"/>
        <pt x="1060" y="141" on="0"/>
        <pt x="1060" y="165" on="1"/>
        <pt x="1060" y="174" on="0"/>
        <pt x="1052" y="190" on="1"/>
        <pt x="933" y="499" on="1"/>
        <pt x="426" y="499" on="1"/>
        <pt x="287" y="141" on="1"/>
        <pt x="459" y="141" on="1"/>
        <pt x="485" y="141" on="0"/>
        <pt x="485" y="83" on="1"/>
        <pt x="485" y="31" on="0"/>
        <pt x="458" y="0" on="0"/>
        <pt x="449" y="0" on="1"/>
      </contour>
      <contour>
        <pt x="485" y="653" on="1"/>
        <pt x="874" y="653" on="1"/>
        <pt x="681" y="1157" on="1"/>
      </contour>
      <contour>
        <pt x="465" y="1609" on="1"/>
        <pt x="431" y="1610" on="0"/>
        <pt x="412" y="1632" on="1"/>
        <pt x="381" y="1670" on="0"/>
        <pt x="381" y="1709" on="1"/>
        <pt x="637" y="1886" on="1"/>
        <pt x="680" y="1914" on="0"/>
        <pt x="708" y="1914" on="1"/>
        <pt x="744" y="1914" on="0"/>
        <pt x="786" y="1886" on="1"/>
        <pt x="1042" y="1709" on="1"/>
        <pt x="1042" y="1646" on="0"/>
        <pt x="991" y="1618" on="1"/>
        <pt x="976" y="1610" on="0"/>
        <pt x="958" y="1609" on="1"/>
        <pt x="713" y="1726" on="1"/>
      </contour>
    </TTGlyph>
    <TTGlyph name="Adieresis" xMin="-12" yMin="0" xMax="1444" yMax="1896">
      <contour>
        <pt x="13" y="0" on="1"/>
        <pt x="-12" y="0" on="0"/>
        <pt x="-12" y="57" on="1"/>
        <pt x="-12" y="109" on="0"/>
        <pt x="12" y="133" on="1"/>
        <pt x="20" y="141" on="0"/>
        <pt x="48" y="141" on="1"/>
        <pt x="122" y="141" on="0"/>
        <pt x="145" y="198" on="1"/>
        <pt x="654" y="1505" on="1"/>
        <pt x="662" y="1525" on="0"/>
        <pt x="693" y="1525" on="1"/>
        <pt x="760" y="1525" on="0"/>
        <pt x="768" y="1505" on="1"/>
        <pt x="1301" y="141" on="1"/>
        <pt x="1418" y="141" on="1"/>
        <pt x="1444" y="141" on="0"/>
        <pt x="1444" y="81" on="1"/>
        <pt x="1444" y="31" on="0"/>
        <pt x="1415" y="0" on="0"/>
        <pt x="1405" y="0" on="1"/>
        <pt x="920" y="0" on="1"/>
        <pt x="895" y="0" on="0"/>
        <pt x="895" y="55" on="1"/>
        <pt x="895" y="107" on="0"/>
        <pt x="925" y="141" on="0"/>
        <pt x="936" y="141" on="1"/>
        <pt x="1060" y="141" on="0"/>
        <pt x="1060" y="165" on="1"/>
        <pt x="1060" y="174" on="0"/>
        <pt x="1052" y="190" on="1"/>
        <pt x="933" y="499" on="1"/>
        <pt x="426" y="499" on="1"/>
        <pt x="287" y="141" on="1"/>
        <pt x="459" y="141" on="1"/>
        <pt x="485" y="141" on="0"/>
        <pt x="485" y="83" on="1"/>
        <pt x="485" y="31" on="0"/>
        <pt x="458" y="0" on="0"/>
        <pt x="449" y="0" on="1"/>
      </contour>
      <contour>
        <pt x="485" y="653" on="1"/>
        <pt x="874" y="653" on="1"/>
        <pt x="681" y="1157" on="1"/>
      </contour>
      <contour>
        <pt x="355" y="1757" on="1"/>
        <pt x="355" y="1759" on="1"/>
        <pt x="355" y="1852" on="0"/>
        <pt x="434" y="1886" on="1"/>
        <pt x="458" y="1896" on="0"/>
        <pt x="489" y="1896" on="1"/>
        <pt x="519" y="1896" on="0"/>
        <pt x="544" y="1886" on="1"/>
        <pt x="570" y="1874" on="0"/>
        <pt x="588" y="1856" on="1"/>
        <pt x="628" y="1816" on="0"/>
        <pt x="628" y="1757" on="1"/>
        <pt x="628" y="1698" on="0"/>
        <pt x="588" y="1658" on="1"/>
        <pt x="550" y="1620" on="0"/>
        <pt x="504" y="1620" on="1"/>
        <pt x="428" y="1620" on="0"/>
        <pt x="355" y="1698" on="0"/>
      </contour>
      <contour>
        <pt x="943" y="1620" on="1"/>
        <pt x="851" y="1620" on="0"/>
        <pt x="818" y="1702" on="1"/>
        <pt x="808" y="1727" on="0"/>
        <pt x="808" y="1757" on="1"/>
        <pt x="808" y="1852" on="0"/>
        <pt x="888" y="1886" on="1"/>
        <pt x="913" y="1896" on="0"/>
        <pt x="943" y="1896" on="1"/>
        <pt x="1002" y="1896" on="0"/>
        <pt x="1042" y="1856" on="1"/>
        <pt x="1080" y="1818" on="0"/>
        <pt x="1080" y="1757" on="1"/>
        <pt x="1080" y="1663" on="0"/>
        <pt x="998" y="1630" on="1"/>
        <pt x="973" y="1620" on="0"/>
      </contour>
    </TTGlyph>
    <TTGlyph name="Agrave" xMin="-12" yMin="0" xMax="1444" yMax="1991">
      <contour>
        <pt x="13" y="0" on="1"/>
        <pt x="-12" y="0" on="0"/>
        <pt x="-12" y="57" on="1"/>
        <pt x="-12" y="109" on="0"/>
        <pt x="12" y="133" on="1"/>
        <pt x="20" y="141" on="0"/>
        <pt x="48" y="141" on="1"/>
        <pt x="122" y="141" on="0"/>
        <pt x="145" y="198" on="1"/>
        <pt x="654" y="1505" on="1"/>
        <pt x="662" y="1525" on="0"/>
        <pt x="693" y="1525" on="1"/>
        <pt x="760" y="1525" on="0"/>
        <pt x="768" y="1505" on="1"/>
        <pt x="1301" y="141" on="1"/>
        <pt x="1418" y="141" on="1"/>
        <pt x="1444" y="141" on="0"/>
        <pt x="1444" y="81" on="1"/>
        <pt x="1444" y="31" on="0"/>
        <pt x="1415" y="0" on="0"/>
        <pt x="1405" y="0" on="1"/>
        <pt x="920" y="0" on="1"/>
        <pt x="895" y="0" on="0"/>
        <pt x="895" y="55" on="1"/>
        <pt x="895" y="107" on="0"/>
        <pt x="925" y="141" on="0"/>
        <pt x="936" y="141" on="1"/>
        <pt x="1060" y="141" on="0"/>
        <pt x="1060" y="165" on="1"/>
        <pt x="1060" y="174" on="0"/>
        <pt x="1052" y="190" on="1"/>
        <pt x="933" y="499" on="1"/>
        <pt x="426" y="499" on="1"/>
        <pt x="287" y="141" on="1"/>
        <pt x="459" y="141" on="1"/>
        <pt x="485" y="141" on="0"/>
        <pt x="485" y="83" on="1"/>
        <pt x="485" y="31" on="0"/>
        <pt x="458" y="0" on="0"/>
        <pt x="449" y="0" on="1"/>
      </contour>
      <contour>
        <pt x="485" y="653" on="1"/>
        <pt x="874" y="653" on="1"/>
        <pt x="681" y="1157" on="1"/>
      </contour>
      <contour>
        <pt x="321" y="1833" on="1"/>
        <pt x="321" y="1942" on="0"/>
        <pt x="411" y="1980" on="1"/>
        <pt x="436" y="1991" on="0"/>
        <pt x="465" y="1991" on="1"/>
        <pt x="470" y="1991" on="1"/>
        <pt x="743" y="1706" on="1"/>
        <pt x="742" y="1663" on="0"/>
        <pt x="722" y="1640" on="1"/>
        <pt x="686" y="1598" on="0"/>
        <pt x="645" y="1598" on="1"/>
      </contour>
    </TTGlyph>
    <TTGlyph name="Aring" xMin="-14" yMin="0" xMax="1442" yMax="1821">
      <contour>
        <pt x="11" y="0" on="1"/>
        <pt x="-14" y="0" on="0"/>
        <pt x="-14" y="57" on="1"/>
        <pt x="-14" y="109" on="0"/>
        <pt x="10" y="133" on="1"/>
        <pt x="18" y="141" on="0"/>
        <pt x="46" y="141" on="1"/>
        <pt x="120" y="141" on="0"/>
        <pt x="143" y="198" on="1"/>
        <pt x="652" y="1505" on="1"/>
        <pt x="660" y="1525" on="0"/>
        <pt x="691" y="1525" on="1"/>
        <pt x="758" y="1525" on="0"/>
        <pt x="766" y="1505" on="1"/>
        <pt x="1299" y="141" on="1"/>
        <pt x="1416" y="141" on="1"/>
        <pt x="1442" y="141" on="0"/>
        <pt x="1442" y="81" on="1"/>
        <pt x="1442" y="31" on="0"/>
        <pt x="1413" y="0" on="0"/>
        <pt x="1403" y="0" on="1"/>
        <pt x="918" y="0" on="1"/>
        <pt x="893" y="0" on="0"/>
        <pt x="893" y="55" on="1"/>
        <pt x="893" y="107" on="0"/>
        <pt x="923" y="141" on="0"/>
        <pt x="934" y="141" on="1"/>
        <pt x="1058" y="141" on="0"/>
        <pt x="1058" y="165" on="1"/>
        <pt x="1058" y="174" on="0"/>
        <pt x="1050" y="190" on="1"/>
        <pt x="931" y="499" on="1"/>
        <pt x="424" y="499" on="1"/>
        <pt x="285" y="141" on="1"/>
        <pt x="457" y="141" on="1"/>
        <pt x="483" y="141" on="0"/>
        <pt x="483" y="83" on="1"/>
        <pt x="483" y="31" on="0"/>
        <pt x="456" y="0" on="0"/>
        <pt x="447" y="0" on="1"/>
      </contour>
      <contour>
        <pt x="483" y="653" on="1"/>
        <pt x="872" y="653" on="1"/>
        <pt x="679" y="1157" on="1"/>
      </contour>
      <contour>
        <pt x="488" y="1608" on="1"/>
        <pt x="488" y="1652" on="0"/>
        <pt x="504" y="1690" on="1"/>
        <pt x="520" y="1729" on="0"/>
        <pt x="548" y="1758" on="1"/>
        <pt x="610" y="1821" on="0"/>
        <pt x="705" y="1821" on="1"/>
        <pt x="800" y="1821" on="0"/>
        <pt x="862" y="1758" on="1"/>
        <pt x="922" y="1697" on="0"/>
        <pt x="922" y="1608" on="1"/>
        <pt x="922" y="1520" on="0"/>
        <pt x="862" y="1460" on="1"/>
        <pt x="800" y="1398" on="0"/>
        <pt x="705" y="1397" on="1"/>
        <pt x="610" y="1398" on="0"/>
        <pt x="548" y="1460" on="1"/>
        <pt x="488" y="1518" on="0"/>
      </contour>
      <contour>
        <pt x="627" y="1612" on="1"/>
        <pt x="627" y="1577" on="0"/>
        <pt x="674" y="1528" on="0"/>
        <pt x="709" y="1528" on="1"/>
        <pt x="744" y="1528" on="0"/>
        <pt x="791" y="1577" on="0"/>
        <pt x="791" y="1612" on="1"/>
        <pt x="791" y="1647" on="0"/>
        <pt x="744" y="1696" on="0"/>
        <pt x="709" y="1696" on="1"/>
        <pt x="674" y="1696" on="0"/>
        <pt x="627" y="1647" on="0"/>
      </contour>
    </TTGlyph>
    <TTGlyph name="Atilde" xMin="-12" yMin="0" xMax="1444" yMax="1917">
      <contour>
        <pt x="13" y="0" on="1"/>
        <pt x="-12" y="0" on="0"/>
        <pt x="-12" y="57" on="1"/>
        <pt x="-12" y="109" on="0"/>
        <pt x="12" y="133" on="1"/>
        <pt x="20" y="141" on="0"/>
        <pt x="48" y="141" on="1"/>
        <pt x="122" y="141" on="0"/>
        <pt x="145" y="198" on="1"/>
        <pt x="654" y="1505" on="1"/>
        <pt x="662" y="1525" on="0"/>
        <pt x="693" y="1525" on="1"/>
        <pt x="760" y="1525" on="0"/>
        <pt x="768" y="1505" on="1"/>
        <pt x="1301" y="141" on="1"/>
        <pt x="1418" y="141" on="1"/>
        <pt x="1444" y="141" on="0"/>
        <pt x="1444" y="81" on="1"/>
        <pt x="1444" y="31" on="0"/>
        <pt x="1415" y="0" on="0"/>
        <pt x="1405" y="0" on="1"/>
        <pt x="920" y="0" on="1"/>
        <pt x="895" y="0" on="0"/>
        <pt x="895" y="55" on="1"/>
        <pt x="895" y="107" on="0"/>
        <pt x="925" y="141" on="0"/>
        <pt x="936" y="141" on="1"/>
        <pt x="1060" y="141" on="0"/>
        <pt x="1060" y="165" on="1"/>
        <pt x="1060" y="174" on="0"/>
        <pt x="1052" y="190" on="1"/>
        <pt x="933" y="499" on="1"/>
        <pt x="426" y="499" on="1"/>
        <pt x="287" y="141" on="1"/>
        <pt x="459" y="141" on="1"/>
        <pt x="485" y="141" on="0"/>
        <pt x="485" y="83" on="1"/>
        <pt x="485" y="31" on="0"/>
        <pt x="458" y="0" on="0"/>
        <pt x="449" y="0" on="1"/>
      </contour>
      <contour>
        <pt x="485" y="653" on="1"/>
        <pt x="874" y="653" on="1"/>
        <pt x="681" y="1157" on="1"/>
      </contour>
      <contour>
        <pt x="382" y="1627" on="1"/>
        <pt x="342" y="1628" on="0"/>
        <pt x="322" y="1648" on="1"/>
        <pt x="288" y="1682" on="0"/>
        <pt x="288" y="1719" on="1"/>
        <pt x="354" y="1836" on="0"/>
        <pt x="468" y="1893" on="1"/>
        <pt x="516" y="1917" on="0"/>
        <pt x="567" y="1917" on="1"/>
        <pt x="618" y="1917" on="0"/>
        <pt x="691" y="1872" on="0"/>
        <pt x="761" y="1817" on="0"/>
        <pt x="832" y="1772" on="0"/>
        <pt x="866" y="1772" on="1"/>
        <pt x="899" y="1772" on="0"/>
        <pt x="949" y="1803" on="0"/>
        <pt x="991" y="1845" on="0"/>
        <pt x="1025" y="1889" on="0"/>
        <pt x="1039" y="1901" on="1"/>
        <pt x="1077" y="1901" on="0"/>
        <pt x="1099" y="1880" on="1"/>
        <pt x="1137" y="1844" on="0"/>
        <pt x="1137" y="1809" on="1"/>
        <pt x="1084" y="1688" on="0"/>
        <pt x="970" y="1629" on="1"/>
        <pt x="922" y="1604" on="0"/>
        <pt x="873" y="1604" on="1"/>
        <pt x="824" y="1604" on="0"/>
        <pt x="765" y="1624" on="0"/>
        <pt x="713" y="1653" on="0"/>
        <pt x="666" y="1688" on="0"/>
        <pt x="644" y="1702" on="1"/>
        <pt x="590" y="1736" on="0"/>
        <pt x="554" y="1737" on="1"/>
        <pt x="551" y="1737" on="1"/>
        <pt x="517" y="1737" on="0"/>
        <pt x="492" y="1723" on="1"/>
        <pt x="465" y="1709" on="0"/>
        <pt x="423" y="1673" on="0"/>
        <pt x="392" y="1636" on="0"/>
      </contour>
    </TTGlyph>
    <TTGlyph name="B" xMin="74" yMin="-10" xMax="1249" yMax="1505">
      <contour>
        <pt x="678" y="-10" on="1"/>
        <pt x="427" y="0" on="1"/>
        <pt x="125" y="0" on="1"/>
        <pt x="100" y="0" on="0"/>
        <pt x="100" y="57" on="1"/>
        <pt x="100" y="106" on="0"/>
        <pt x="128" y="134" on="1"/>
        <pt x="136" y="142" on="0"/>
        <pt x="159" y="142" on="1"/>
        <pt x="163" y="142" on="1"/>
        <pt x="167" y="141" on="0"/>
        <pt x="171" y="141" on="1"/>
        <pt x="194" y="141" on="0"/>
        <pt x="218" y="144" on="1"/>
        <pt x="247" y="146" on="0"/>
        <pt x="263" y="151" on="1"/>
        <pt x="291" y="160" on="0"/>
        <pt x="291" y="184" on="1"/>
        <pt x="291" y="1348" on="1"/>
        <pt x="291" y="1364" on="0"/>
        <pt x="278" y="1364" on="1"/>
        <pt x="115" y="1364" on="1"/>
        <pt x="86" y="1364" on="0"/>
        <pt x="76" y="1418" on="1"/>
        <pt x="74" y="1432" on="0"/>
        <pt x="74" y="1446" on="1"/>
        <pt x="74" y="1505" on="0"/>
        <pt x="100" y="1505" on="1"/>
        <pt x="614" y="1505" on="1"/>
        <pt x="1157" y="1505" on="0"/>
        <pt x="1157" y="1137" on="1"/>
        <pt x="1157" y="1023" on="0"/>
        <pt x="1075" y="932" on="1"/>
        <pt x="996" y="845" on="0"/>
        <pt x="881" y="814" on="1"/>
        <pt x="1050" y="790" on="0"/>
        <pt x="1150" y="690" on="1"/>
        <pt x="1249" y="590" on="0"/>
        <pt x="1249" y="438" on="1"/>
        <pt x="1249" y="120" on="0"/>
        <pt x="933" y="23" on="1"/>
        <pt x="825" y="-10" on="0"/>
      </contour>
      <contour>
        <pt x="502" y="298" on="1"/>
        <pt x="502" y="219" on="0"/>
        <pt x="581" y="144" on="0"/>
        <pt x="675" y="144" on="1"/>
        <pt x="768" y="144" on="0"/>
        <pt x="896" y="172" on="0"/>
        <pt x="937" y="206" on="1"/>
        <pt x="1016" y="271" on="0"/>
        <pt x="1016" y="437" on="1"/>
        <pt x="1016" y="580" on="0"/>
        <pt x="884" y="662" on="1"/>
        <pt x="771" y="733" on="0"/>
        <pt x="610" y="733" on="1"/>
        <pt x="502" y="733" on="1"/>
      </contour>
      <contour>
        <pt x="655" y="887" on="1"/>
        <pt x="841" y="887" on="0"/>
        <pt x="901" y="1005" on="1"/>
        <pt x="924" y="1050" on="0"/>
        <pt x="924" y="1123" on="1"/>
        <pt x="924" y="1196" on="0"/>
        <pt x="868" y="1288" on="0"/>
        <pt x="814" y="1312" on="1"/>
        <pt x="727" y="1351" on="0"/>
        <pt x="502" y="1351" on="1"/>
        <pt x="502" y="887" on="1"/>
      </contour>
    </TTGlyph>
    <TTGlyph name="C" xMin="102" yMin="-20" xMax="1210" yMax="1525">
      <contour>
        <pt x="925" y="1335" on="1"/>
        <pt x="866" y="1371" on="0"/>
        <pt x="770" y="1371" on="1"/>
        <pt x="674" y="1371" on="0"/>
        <pt x="594" y="1332" on="1"/>
        <pt x="516" y="1293" on="0"/>
        <pt x="458" y="1221" on="1"/>
        <pt x="336" y="1068" on="0"/>
        <pt x="335" y="823" on="1"/>
        <pt x="335" y="316" on="0"/>
        <pt x="584" y="186" on="1"/>
        <pt x="663" y="144" on="0"/>
        <pt x="745" y="144" on="1"/>
        <pt x="746" y="144" on="0"/>
        <pt x="747" y="145" on="1"/>
        <pt x="829" y="145" on="0"/>
        <pt x="926" y="171" on="0"/>
        <pt x="1004" y="208" on="0"/>
        <pt x="1034" y="228" on="1"/>
        <pt x="1092" y="268" on="0"/>
        <pt x="1107" y="268" on="1"/>
        <pt x="1121" y="268" on="0"/>
        <pt x="1149" y="246" on="0"/>
        <pt x="1161" y="230" on="1"/>
        <pt x="1188" y="195" on="0"/>
        <pt x="1188" y="169" on="1"/>
        <pt x="1188" y="142" on="0"/>
        <pt x="1151" y="109" on="0"/>
        <pt x="1074" y="58" on="0"/>
        <pt x="1018" y="35" on="1"/>
        <pt x="883" y="-20" on="0"/>
        <pt x="741" y="-20" on="1"/>
        <pt x="599" y="-20" on="0"/>
        <pt x="486" y="24" on="1"/>
        <pt x="374" y="69" on="0"/>
        <pt x="288" y="162" on="1"/>
        <pt x="102" y="364" on="0"/>
        <pt x="102" y="734" on="1"/>
        <pt x="102" y="1120" on="0"/>
        <pt x="296" y="1330" on="1"/>
        <pt x="476" y="1525" on="0"/>
        <pt x="774" y="1525" on="1"/>
        <pt x="777" y="1525" on="1"/>
        <pt x="934" y="1525" on="0"/>
        <pt x="1065" y="1449" on="1"/>
        <pt x="1210" y="1365" on="0"/>
        <pt x="1210" y="1241" on="1"/>
        <pt x="1210" y="1177" on="0"/>
        <pt x="1166" y="1131" on="1"/>
        <pt x="1123" y="1087" on="0"/>
        <pt x="1057" y="1087" on="1"/>
        <pt x="992" y="1087" on="0"/>
        <pt x="948" y="1131" on="1"/>
        <pt x="903" y="1176" on="0"/>
        <pt x="903" y="1237" on="1"/>
        <pt x="903" y="1297" on="0"/>
      </contour>
    </TTGlyph>
    <TTGlyph name="Ccedilla" xMin="103" yMin="-440" xMax="1211" yMax="1525">
      <contour>
        <pt x="926" y="1335" on="1"/>
        <pt x="867" y="1371" on="0"/>
        <pt x="771" y="1371" on="1"/>
        <pt x="675" y="1371" on="0"/>
        <pt x="516" y="1293" on="0"/>
        <pt x="458" y="1221" on="1"/>
        <pt x="336" y="1068" on="0"/>
        <pt x="336" y="823" on="1"/>
        <pt x="336" y="316" on="0"/>
        <pt x="585" y="186" on="1"/>
        <pt x="664" y="144" on="0"/>
        <pt x="746" y="144" on="1"/>
        <pt x="747" y="144" on="0"/>
        <pt x="748" y="145" on="1"/>
        <pt x="830" y="145" on="0"/>
        <pt x="927" y="171" on="0"/>
        <pt x="1005" y="208" on="0"/>
        <pt x="1035" y="228" on="1"/>
        <pt x="1093" y="268" on="0"/>
        <pt x="1108" y="268" on="1"/>
        <pt x="1122" y="268" on="0"/>
        <pt x="1150" y="246" on="0"/>
        <pt x="1162" y="230" on="1"/>
        <pt x="1189" y="195" on="0"/>
        <pt x="1189" y="169" on="1"/>
        <pt x="1189" y="142" on="0"/>
        <pt x="1152" y="109" on="0"/>
        <pt x="1114" y="84" on="1"/>
        <pt x="1074" y="58" on="0"/>
        <pt x="1018" y="35" on="1"/>
        <pt x="883" y="-20" on="0"/>
        <pt x="742" y="-20" on="1"/>
        <pt x="600" y="-20" on="0"/>
        <pt x="374" y="69" on="0"/>
        <pt x="288" y="162" on="1"/>
        <pt x="103" y="363" on="0"/>
        <pt x="103" y="730" on="1"/>
        <pt x="103" y="734" on="1"/>
        <pt x="103" y="1120" on="0"/>
        <pt x="297" y="1330" on="1"/>
        <pt x="477" y="1525" on="0"/>
        <pt x="775" y="1525" on="1"/>
        <pt x="778" y="1525" on="1"/>
        <pt x="935" y="1525" on="0"/>
        <pt x="1066" y="1449" on="1"/>
        <pt x="1211" y="1365" on="0"/>
        <pt x="1211" y="1241" on="1"/>
        <pt x="1210" y="1177" on="0"/>
        <pt x="1166" y="1131" on="1"/>
        <pt x="1123" y="1087" on="0"/>
        <pt x="1058" y="1087" on="1"/>
        <pt x="993" y="1087" on="0"/>
        <pt x="949" y="1131" on="1"/>
        <pt x="904" y="1176" on="0"/>
        <pt x="904" y="1237" on="1"/>
        <pt x="904" y="1297" on="0"/>
      </contour>
      <contour>
        <pt x="785" y="-240" on="1"/>
        <pt x="785" y="-179" on="0"/>
        <pt x="649" y="-179" on="1"/>
        <pt x="610" y="-131" on="1"/>
        <pt x="662" y="15" on="1"/>
        <pt x="821" y="15" on="1"/>
        <pt x="785" y="-90" on="1"/>
        <pt x="900" y="-110" on="0"/>
        <pt x="940" y="-182" on="1"/>
        <pt x="953" y="-204" on="0"/>
        <pt x="953" y="-232" on="1"/>
        <pt x="953" y="-236" on="1"/>
        <pt x="953" y="-440" on="0"/>
        <pt x="585" y="-440" on="1"/>
        <pt x="565" y="-440" on="0"/>
        <pt x="555" y="-420" on="1"/>
        <pt x="545" y="-402" on="0"/>
        <pt x="545" y="-382" on="1"/>
        <pt x="545" y="-328" on="0"/>
        <pt x="574" y="-328" on="1"/>
        <pt x="716" y="-328" on="0"/>
        <pt x="768" y="-278" on="1"/>
        <pt x="785" y="-263" on="0"/>
        <pt x="785" y="-242" on="1"/>
      </contour>
    </TTGlyph>
    <TTGlyph name="D" xMin="73" yMin="0" xMax="1413" yMax="1505">
      <contour>
        <pt x="73" y="1442" on="1"/>
        <pt x="73" y="1505" on="0"/>
        <pt x="99" y="1505" on="1"/>
        <pt x="681" y="1505" on="1"/>
        <pt x="1076" y="1505" on="0"/>
        <pt x="1250" y="1315" on="1"/>
        <pt x="1412" y="1138" on="0"/>
        <pt x="1413" y="758" on="1"/>
        <pt x="1413" y="755" on="1"/>
        <pt x="1413" y="375" on="0"/>
        <pt x="1184" y="176" on="1"/>
        <pt x="982" y="1" on="0"/>
        <pt x="681" y="0" on="1"/>
        <pt x="128" y="0" on="1"/>
        <pt x="101" y="0" on="0"/>
        <pt x="101" y="57" on="1"/>
        <pt x="101" y="103" on="0"/>
        <pt x="127" y="133" on="1"/>
        <pt x="134" y="141" on="0"/>
        <pt x="161" y="141" on="1"/>
        <pt x="187" y="141" on="0"/>
        <pt x="216" y="144" on="1"/>
        <pt x="246" y="146" on="0"/>
        <pt x="262" y="151" on="1"/>
        <pt x="290" y="160" on="0"/>
        <pt x="290" y="184" on="1"/>
        <pt x="290" y="1350" on="1"/>
        <pt x="290" y="1364" on="0"/>
        <pt x="278" y="1364" on="1"/>
        <pt x="114" y="1364" on="1"/>
        <pt x="86" y="1364" on="0"/>
        <pt x="76" y="1416" on="1"/>
        <pt x="74" y="1430" on="0"/>
      </contour>
      <contour>
        <pt x="501" y="154" on="1"/>
        <pt x="648" y="154" on="1"/>
        <pt x="862" y="154" on="0"/>
        <pt x="1012" y="293" on="1"/>
        <pt x="1180" y="450" on="0"/>
        <pt x="1180" y="723" on="1"/>
        <pt x="1180" y="1191" on="0"/>
        <pt x="888" y="1312" on="1"/>
        <pt x="794" y="1351" on="0"/>
        <pt x="673" y="1351" on="1"/>
        <pt x="501" y="1351" on="1"/>
      </contour>
    </TTGlyph>
    <TTGlyph name="E" xMin="73" yMin="0" xMax="1241" yMax="1505">
      <contour>
        <pt x="964" y="516" on="0"/>
        <pt x="892" y="516" on="1"/>
        <pt x="820" y="516" on="0"/>
        <pt x="820" y="543" on="1"/>
        <pt x="820" y="694" on="1"/>
        <pt x="501" y="694" on="1"/>
        <pt x="501" y="154" on="1"/>
        <pt x="1031" y="154" on="1"/>
        <pt x="1107" y="303" on="1"/>
        <pt x="1117" y="322" on="0"/>
        <pt x="1145" y="322" on="1"/>
        <pt x="1172" y="322" on="0"/>
        <pt x="1202" y="316" on="0"/>
        <pt x="1214" y="311" on="1"/>
        <pt x="1241" y="300" on="0"/>
        <pt x="1241" y="281" on="1"/>
        <pt x="1241" y="276" on="0"/>
        <pt x="1240" y="274" on="1"/>
        <pt x="1148" y="0" on="1"/>
        <pt x="128" y="0" on="1"/>
        <pt x="101" y="0" on="0"/>
        <pt x="101" y="59" on="1"/>
        <pt x="102" y="110" on="0"/>
        <pt x="126" y="134" on="1"/>
        <pt x="134" y="142" on="0"/>
        <pt x="158" y="142" on="1"/>
        <pt x="161" y="142" on="1"/>
        <pt x="165" y="141" on="0"/>
        <pt x="170" y="141" on="1"/>
        <pt x="193" y="141" on="0"/>
        <pt x="217" y="144" on="1"/>
        <pt x="246" y="146" on="0"/>
        <pt x="262" y="151" on="1"/>
        <pt x="290" y="160" on="0"/>
        <pt x="290" y="184" on="1"/>
        <pt x="290" y="1350" on="1"/>
        <pt x="290" y="1364" on="0"/>
        <pt x="278" y="1364" on="1"/>
        <pt x="114" y="1364" on="1"/>
        <pt x="86" y="1364" on="0"/>
        <pt x="76" y="1416" on="1"/>
        <pt x="74" y="1430" on="0"/>
        <pt x="73" y="1442" on="1"/>
        <pt x="73" y="1505" on="0"/>
        <pt x="99" y="1505" on="1"/>
        <pt x="1199" y="1505" on="1"/>
        <pt x="1199" y="1214" on="1"/>
        <pt x="1199" y="1180" on="0"/>
        <pt x="1129" y="1180" on="1"/>
        <pt x="1058" y="1180" on="0"/>
        <pt x="1058" y="1202" on="1"/>
        <pt x="1058" y="1286" on="0"/>
        <pt x="1036" y="1310" on="1"/>
        <pt x="997" y="1351" on="0"/>
        <pt x="894" y="1351" on="1"/>
        <pt x="501" y="1351" on="1"/>
        <pt x="501" y="848" on="1"/>
        <pt x="755" y="848" on="1"/>
        <pt x="801" y="848" on="0"/>
        <pt x="809" y="870" on="1"/>
        <pt x="822" y="902" on="0"/>
        <pt x="822" y="999" on="1"/>
        <pt x="822" y="1022" on="0"/>
        <pt x="882" y="1022" on="1"/>
        <pt x="934" y="1022" on="0"/>
        <pt x="964" y="994" on="0"/>
        <pt x="964" y="985" on="1"/>
        <pt x="964" y="557" on="1"/>
      </contour>
    </TTGlyph>
    <TTGlyph name="Eacute" xMin="73" yMin="0" xMax="1241" yMax="1991">
      <contour>
        <pt x="964" y="516" on="0"/>
        <pt x="892" y="516" on="1"/>
        <pt x="820" y="516" on="0"/>
        <pt x="820" y="543" on="1"/>
        <pt x="820" y="694" on="1"/>
        <pt x="501" y="694" on="1"/>
        <pt x="501" y="154" on="1"/>
        <pt x="1031" y="154" on="1"/>
        <pt x="1107" y="303" on="1"/>
        <pt x="1117" y="322" on="0"/>
        <pt x="1145" y="322" on="1"/>
        <pt x="1172" y="322" on="0"/>
        <pt x="1202" y="316" on="0"/>
        <pt x="1214" y="311" on="1"/>
        <pt x="1241" y="300" on="0"/>
        <pt x="1241" y="281" on="1"/>
        <pt x="1241" y="276" on="0"/>
        <pt x="1240" y="274" on="1"/>
        <pt x="1148" y="0" on="1"/>
        <pt x="128" y="0" on="1"/>
        <pt x="101" y="0" on="0"/>
        <pt x="101" y="59" on="1"/>
        <pt x="102" y="110" on="0"/>
        <pt x="126" y="134" on="1"/>
        <pt x="134" y="142" on="0"/>
        <pt x="158" y="142" on="1"/>
        <pt x="161" y="142" on="1"/>
        <pt x="165" y="141" on="0"/>
        <pt x="170" y="141" on="1"/>
        <pt x="193" y="141" on="0"/>
        <pt x="217" y="144" on="1"/>
        <pt x="246" y="146" on="0"/>
        <pt x="262" y="151" on="1"/>
        <pt x="290" y="160" on="0"/>
        <pt x="290" y="184" on="1"/>
        <pt x="290" y="1350" on="1"/>
        <pt x="290" y="1364" on="0"/>
        <pt x="278" y="1364" on="1"/>
        <pt x="114" y="1364" on="1"/>
        <pt x="86" y="1364" on="0"/>
        <pt x="76" y="1416" on="1"/>
        <pt x="74" y="1430" on="0"/>
        <pt x="73" y="1442" on="1"/>
        <pt x="73" y="1505" on="0"/>
        <pt x="99" y="1505" on="1"/>
        <pt x="1199" y="1505" on="1"/>
        <pt x="1199" y="1214" on="1"/>
        <pt x="1199" y="1180" on="0"/>
        <pt x="1129" y="1180" on="1"/>
        <pt x="1058" y="1180" on="0"/>
        <pt x="1058" y="1202" on="1"/>
        <pt x="1058" y="1286" on="0"/>
        <pt x="1036" y="1310" on="1"/>
        <pt x="997" y="1351" on="0"/>
        <pt x="894" y="1351" on="1"/>
        <pt x="501" y="1351" on="1"/>
        <pt x="501" y="848" on="1"/>
        <pt x="755" y="848" on="1"/>
        <pt x="801" y="848" on="0"/>
        <pt x="809" y="870" on="1"/>
        <pt x="822" y="902" on="0"/>
        <pt x="822" y="999" on="1"/>
        <pt x="822" y="1022" on="0"/>
        <pt x="882" y="1022" on="1"/>
        <pt x="934" y="1022" on="0"/>
        <pt x="964" y="994" on="0"/>
        <pt x="964" y="985" on="1"/>
        <pt x="964" y="557" on="1"/>
      </contour>
      <contour>
        <pt x="683" y="1598" on="1"/>
        <pt x="641" y="1598" on="0"/>
        <pt x="620" y="1622" on="1"/>
        <pt x="584" y="1663" on="0"/>
        <pt x="584" y="1706" on="1"/>
        <pt x="857" y="1991" on="1"/>
        <pt x="860" y="1991" on="1"/>
        <pt x="922" y="1991" on="0"/>
        <pt x="963" y="1948" on="1"/>
        <pt x="1006" y="1904" on="0"/>
        <pt x="1006" y="1833" on="1"/>
      </contour>
    </TTGlyph>
    <TTGlyph name="Ecircumflex" xMin="73" yMin="0" xMax="1241" yMax="1914">
      <contour>
        <pt x="964" y="516" on="0"/>
        <pt x="892" y="516" on="1"/>
        <pt x="820" y="516" on="0"/>
        <pt x="820" y="543" on="1"/>
        <pt x="820" y="694" on="1"/>
        <pt x="501" y="694" on="1"/>
        <pt x="501" y="154" on="1"/>
        <pt x="1031" y="154" on="1"/>
        <pt x="1107" y="303" on="1"/>
        <pt x="1117" y="322" on="0"/>
        <pt x="1145" y="322" on="1"/>
        <pt x="1172" y="322" on="0"/>
        <pt x="1202" y="316" on="0"/>
        <pt x="1214" y="311" on="1"/>
        <pt x="1241" y="300" on="0"/>
        <pt x="1241" y="281" on="1"/>
        <pt x="1241" y="276" on="0"/>
        <pt x="1240" y="274" on="1"/>
        <pt x="1148" y="0" on="1"/>
        <pt x="128" y="0" on="1"/>
        <pt x="101" y="0" on="0"/>
        <pt x="101" y="59" on="1"/>
        <pt x="102" y="110" on="0"/>
        <pt x="126" y="134" on="1"/>
        <pt x="134" y="142" on="0"/>
        <pt x="158" y="142" on="1"/>
        <pt x="161" y="142" on="1"/>
        <pt x="165" y="141" on="0"/>
        <pt x="170" y="141" on="1"/>
        <pt x="193" y="141" on="0"/>
        <pt x="217" y="144" on="1"/>
        <pt x="246" y="146" on="0"/>
        <pt x="262" y="151" on="1"/>
        <pt x="290" y="160" on="0"/>
        <pt x="290" y="184" on="1"/>
        <pt x="290" y="1350" on="1"/>
        <pt x="290" y="1364" on="0"/>
        <pt x="278" y="1364" on="1"/>
        <pt x="114" y="1364" on="1"/>
        <pt x="86" y="1364" on="0"/>
        <pt x="76" y="1416" on="1"/>
        <pt x="74" y="1430" on="0"/>
        <pt x="73" y="1442" on="1"/>
        <pt x="73" y="1505" on="0"/>
        <pt x="99" y="1505" on="1"/>
        <pt x="1199" y="1505" on="1"/>
        <pt x="1199" y="1214" on="1"/>
        <pt x="1199" y="1180" on="0"/>
        <pt x="1129" y="1180" on="1"/>
        <pt x="1058" y="1180" on="0"/>
        <pt x="1058" y="1202" on="1"/>
        <pt x="1058" y="1286" on="0"/>
        <pt x="1036" y="1310" on="1"/>
        <pt x="997" y="1351" on="0"/>
        <pt x="894" y="1351" on="1"/>
        <pt x="501" y="1351" on="1"/>
        <pt x="501" y="848" on="1"/>
        <pt x="755" y="848" on="1"/>
        <pt x="801" y="848" on="0"/>
        <pt x="809" y="870" on="1"/>
        <pt x="822" y="902" on="0"/>
        <pt x="822" y="999" on="1"/>
        <pt x="822" y="1022" on="0"/>
        <pt x="882" y="1022" on="1"/>
        <pt x="934" y="1022" on="0"/>
        <pt x="964" y="994" on="0"/>
        <pt x="964" y="985" on="1"/>
        <pt x="964" y="557" on="1"/>
      </contour>
      <contour>
        <pt x="450" y="1609" on="1"/>
        <pt x="416" y="1610" on="0"/>
        <pt x="397" y="1632" on="1"/>
        <pt x="366" y="1670" on="0"/>
        <pt x="366" y="1709" on="1"/>
        <pt x="622" y="1886" on="1"/>
        <pt x="664" y="1914" on="0"/>
        <pt x="692" y="1914" on="1"/>
        <pt x="728" y="1914" on="0"/>
        <pt x="771" y="1886" on="1"/>
        <pt x="1027" y="1709" on="1"/>
        <pt x="1027" y="1646" on="0"/>
        <pt x="976" y="1618" on="1"/>
        <pt x="961" y="1610" on="0"/>
        <pt x="943" y="1609" on="1"/>
        <pt x="698" y="1726" on="1"/>
      </contour>
    </TTGlyph>
    <TTGlyph name="Edieresis" xMin="73" yMin="0" xMax="1241" yMax="1896">
      <contour>
        <pt x="964" y="516" on="0"/>
        <pt x="892" y="516" on="1"/>
        <pt x="820" y="516" on="0"/>
        <pt x="820" y="543" on="1"/>
        <pt x="820" y="694" on="1"/>
        <pt x="501" y="694" on="1"/>
        <pt x="501" y="154" on="1"/>
        <pt x="1031" y="154" on="1"/>
        <pt x="1107" y="303" on="1"/>
        <pt x="1117" y="322" on="0"/>
        <pt x="1145" y="322" on="1"/>
        <pt x="1172" y="322" on="0"/>
        <pt x="1202" y="316" on="0"/>
        <pt x="1214" y="311" on="1"/>
        <pt x="1241" y="300" on="0"/>
        <pt x="1241" y="281" on="1"/>
        <pt x="1241" y="276" on="0"/>
        <pt x="1240" y="274" on="1"/>
        <pt x="1148" y="0" on="1"/>
        <pt x="128" y="0" on="1"/>
        <pt x="101" y="0" on="0"/>
        <pt x="101" y="59" on="1"/>
        <pt x="102" y="110" on="0"/>
        <pt x="126" y="134" on="1"/>
        <pt x="134" y="142" on="0"/>
        <pt x="158" y="142" on="1"/>
        <pt x="161" y="142" on="1"/>
        <pt x="165" y="141" on="0"/>
        <pt x="170" y="141" on="1"/>
        <pt x="193" y="141" on="0"/>
        <pt x="217" y="144" on="1"/>
        <pt x="246" y="146" on="0"/>
        <pt x="262" y="151" on="1"/>
        <pt x="290" y="160" on="0"/>
        <pt x="290" y="184" on="1"/>
        <pt x="290" y="1350" on="1"/>
        <pt x="290" y="1364" on="0"/>
        <pt x="278" y="1364" on="1"/>
        <pt x="114" y="1364" on="1"/>
        <pt x="86" y="1364" on="0"/>
        <pt x="76" y="1416" on="1"/>
        <pt x="74" y="1430" on="0"/>
        <pt x="73" y="1442" on="1"/>
        <pt x="73" y="1505" on="0"/>
        <pt x="99" y="1505" on="1"/>
        <pt x="1199" y="1505" on="1"/>
        <pt x="1199" y="1214" on="1"/>
        <pt x="1199" y="1180" on="0"/>
        <pt x="1129" y="1180" on="1"/>
        <pt x="1058" y="1180" on="0"/>
        <pt x="1058" y="1202" on="1"/>
        <pt x="1058" y="1286" on="0"/>
        <pt x="1036" y="1310" on="1"/>
        <pt x="997" y="1351" on="0"/>
        <pt x="894" y="1351" on="1"/>
        <pt x="501" y="1351" on="1"/>
        <pt x="501" y="848" on="1"/>
        <pt x="755" y="848" on="1"/>
        <pt x="801" y="848" on="0"/>
        <pt x="809" y="870" on="1"/>
        <pt x="822" y="902" on="0"/>
        <pt x="822" y="999" on="1"/>
        <pt x="822" y="1022" on="0"/>
        <pt x="882" y="1022" on="1"/>
        <pt x="934" y="1022" on="0"/>
        <pt x="964" y="994" on="0"/>
        <pt x="964" y="985" on="1"/>
        <pt x="964" y="557" on="1"/>
      </contour>
      <contour>
        <pt x="324" y="1757" on="1"/>
        <pt x="324" y="1852" on="0"/>
        <pt x="404" y="1886" on="1"/>
        <pt x="428" y="1896" on="0"/>
        <pt x="458" y="1896" on="1"/>
        <pt x="488" y="1896" on="0"/>
        <pt x="514" y="1886" on="1"/>
        <pt x="540" y="1874" on="0"/>
        <pt x="558" y="1856" on="1"/>
        <pt x="597" y="1817" on="0"/>
        <pt x="597" y="1760" on="1"/>
        <pt x="597" y="1754" on="1"/>
        <pt x="597" y="1697" on="0"/>
        <pt x="558" y="1658" on="1"/>
        <pt x="520" y="1620" on="0"/>
        <pt x="474" y="1620" on="1"/>
        <pt x="398" y="1620" on="0"/>
        <pt x="324" y="1698" on="0"/>
      </contour>
      <contour>
        <pt x="912" y="1620" on="1"/>
        <pt x="820" y="1620" on="0"/>
        <pt x="787" y="1702" on="1"/>
        <pt x="777" y="1727" on="0"/>
        <pt x="777" y="1757" on="1"/>
        <pt x="777" y="1852" on="0"/>
        <pt x="857" y="1886" on="1"/>
        <pt x="882" y="1896" on="0"/>
        <pt x="912" y="1896" on="1"/>
        <pt x="970" y="1896" on="0"/>
        <pt x="1010" y="1856" on="1"/>
        <pt x="1048" y="1818" on="0"/>
        <pt x="1049" y="1757" on="1"/>
        <pt x="1049" y="1663" on="0"/>
        <pt x="967" y="1630" on="1"/>
        <pt x="942" y="1620" on="0"/>
      </contour>
    </TTGlyph>
    <TTGlyph name="Egrave" xMin="73" yMin="0" xMax="1241" yMax="1991">
      <contour>
        <pt x="964" y="516" on="0"/>
        <pt x="892" y="516" on="1"/>
        <pt x="820" y="516" on="0"/>
        <pt x="820" y="543" on="1"/>
        <pt x="820" y="694" on="1"/>
        <pt x="501" y="694" on="1"/>
        <pt x="501" y="154" on="1"/>
        <pt x="1031" y="154" on="1"/>
        <pt x="1107" y="303" on="1"/>
        <pt x="1117" y="322" on="0"/>
        <pt x="1145" y="322" on="1"/>
        <pt x="1172" y="322" on="0"/>
        <pt x="1202" y="316" on="0"/>
        <pt x="1214" y="311" on="1"/>
        <pt x="1241" y="300" on="0"/>
        <pt x="1241" y="281" on="1"/>
        <pt x="1241" y="276" on="0"/>
        <pt x="1240" y="274" on="1"/>
        <pt x="1148" y="0" on="1"/>
        <pt x="128" y="0" on="1"/>
        <pt x="101" y="0" on="0"/>
        <pt x="101" y="59" on="1"/>
        <pt x="102" y="110" on="0"/>
        <pt x="126" y="134" on="1"/>
        <pt x="134" y="142" on="0"/>
        <pt x="158" y="142" on="1"/>
        <pt x="161" y="142" on="1"/>
        <pt x="165" y="141" on="0"/>
        <pt x="170" y="141" on="1"/>
        <pt x="193" y="141" on="0"/>
        <pt x="217" y="144" on="1"/>
        <pt x="246" y="146" on="0"/>
        <pt x="262" y="151" on="1"/>
        <pt x="290" y="160" on="0"/>
        <pt x="290" y="184" on="1"/>
        <pt x="290" y="1350" on="1"/>
        <pt x="290" y="1364" on="0"/>
        <pt x="278" y="1364" on="1"/>
        <pt x="114" y="1364" on="1"/>
        <pt x="86" y="1364" on="0"/>
        <pt x="76" y="1416" on="1"/>
        <pt x="74" y="1430" on="0"/>
        <pt x="73" y="1442" on="1"/>
        <pt x="73" y="1505" on="0"/>
        <pt x="99" y="1505" on="1"/>
        <pt x="1199" y="1505" on="1"/>
        <pt x="1199" y="1214" on="1"/>
        <pt x="1199" y="1180" on="0"/>
        <pt x="1129" y="1180" on="1"/>
        <pt x="1058" y="1180" on="0"/>
        <pt x="1058" y="1202" on="1"/>
        <pt x="1058" y="1286" on="0"/>
        <pt x="1036" y="1310" on="1"/>
        <pt x="997" y="1351" on="0"/>
        <pt x="894" y="1351" on="1"/>
        <pt x="501" y="1351" on="1"/>
        <pt x="501" y="848" on="1"/>
        <pt x="755" y="848" on="1"/>
        <pt x="801" y="848" on="0"/>
        <pt x="809" y="870" on="1"/>
        <pt x="822" y="902" on="0"/>
        <pt x="822" y="999" on="1"/>
        <pt x="822" y="1022" on="0"/>
        <pt x="882" y="1022" on="1"/>
        <pt x="934" y="1022" on="0"/>
        <pt x="964" y="994" on="0"/>
        <pt x="964" y="985" on="1"/>
        <pt x="964" y="557" on="1"/>
      </contour>
      <contour>
        <pt x="411" y="1833" on="1"/>
        <pt x="411" y="1942" on="0"/>
        <pt x="501" y="1980" on="1"/>
        <pt x="526" y="1991" on="0"/>
        <pt x="555" y="1991" on="1"/>
        <pt x="560" y="1991" on="1"/>
        <pt x="833" y="1706" on="1"/>
        <pt x="832" y="1663" on="0"/>
        <pt x="812" y="1640" on="1"/>
        <pt x="776" y="1598" on="0"/>
        <pt x="735" y="1598" on="1"/>
      </contour>
    </TTGlyph>
    <TTGlyph name="Eth" xMin="83" yMin="0" xMax="1423" yMax="1505">
      <contour>
        <pt x="130" y="848" on="1"/>
        <pt x="765" y="848" on="1"/>
        <pt x="765" y="694" on="1"/>
        <pt x="130" y="694" on="1"/>
      </contour>
      <contour>
        <pt x="83" y="1442" on="1"/>
        <pt x="83" y="1505" on="0"/>
        <pt x="109" y="1505" on="1"/>
        <pt x="691" y="1505" on="1"/>
        <pt x="1086" y="1505" on="0"/>
        <pt x="1260" y="1315" on="1"/>
        <pt x="1422" y="1138" on="0"/>
        <pt x="1423" y="758" on="1"/>
        <pt x="1423" y="755" on="1"/>
        <pt x="1423" y="375" on="0"/>
        <pt x="1194" y="176" on="1"/>
        <pt x="992" y="1" on="0"/>
        <pt x="691" y="0" on="1"/>
        <pt x="138" y="0" on="1"/>
        <pt x="111" y="0" on="0"/>
        <pt x="111" y="57" on="1"/>
        <pt x="111" y="103" on="0"/>
        <pt x="137" y="133" on="1"/>
        <pt x="144" y="141" on="0"/>
        <pt x="171" y="141" on="1"/>
        <pt x="197" y="141" on="0"/>
        <pt x="226" y="144" on="1"/>
        <pt x="256" y="146" on="0"/>
        <pt x="272" y="151" on="1"/>
        <pt x="300" y="160" on="0"/>
        <pt x="300" y="184" on="1"/>
        <pt x="300" y="1350" on="1"/>
        <pt x="300" y="1364" on="0"/>
        <pt x="288" y="1364" on="1"/>
        <pt x="124" y="1364" on="1"/>
        <pt x="96" y="1364" on="0"/>
        <pt x="86" y="1416" on="1"/>
        <pt x="84" y="1430" on="0"/>
      </contour>
      <contour>
        <pt x="511" y="154" on="1"/>
        <pt x="658" y="154" on="1"/>
        <pt x="872" y="154" on="0"/>
        <pt x="1022" y="293" on="1"/>
        <pt x="1190" y="450" on="0"/>
        <pt x="1190" y="723" on="1"/>
        <pt x="1190" y="1191" on="0"/>
        <pt x="898" y="1312" on="1"/>
        <pt x="804" y="1351" on="0"/>
        <pt x="683" y="1351" on="1"/>
        <pt x="511" y="1351" on="1"/>
      </contour>
    </TTGlyph>
    <TTGlyph name="Euro" xMin="27" yMin="-20" xMax="1159" yMax="1525">
      <contour>
        <pt x="874" y="1335" on="1"/>
        <pt x="815" y="1371" on="0"/>
        <pt x="715" y="1371" on="1"/>
        <pt x="614" y="1371" on="0"/>
        <pt x="478" y="1182" on="0"/>
        <pt x="450" y="1000" on="1"/>
        <pt x="757" y="1000" on="1"/>
        <pt x="784" y="1000" on="0"/>
        <pt x="794" y="949" on="1"/>
        <pt x="796" y="936" on="0"/>
        <pt x="796" y="925" on="1"/>
        <pt x="796" y="914" on="0"/>
        <pt x="794" y="900" on="1"/>
        <pt x="790" y="886" on="0"/>
        <pt x="786" y="874" on="1"/>
        <pt x="776" y="846" on="0"/>
        <pt x="757" y="846" on="1"/>
        <pt x="436" y="846" on="1"/>
        <pt x="434" y="824" on="0"/>
        <pt x="434" y="802" on="1"/>
        <pt x="434" y="716" on="1"/>
        <pt x="712" y="716" on="1"/>
        <pt x="738" y="716" on="0"/>
        <pt x="748" y="666" on="1"/>
        <pt x="750" y="653" on="0"/>
        <pt x="751" y="642" on="1"/>
        <pt x="751" y="638" on="1"/>
        <pt x="751" y="628" on="0"/>
        <pt x="749" y="616" on="1"/>
        <pt x="746" y="602" on="0"/>
        <pt x="742" y="590" on="1"/>
        <pt x="732" y="562" on="0"/>
        <pt x="712" y="562" on="1"/>
        <pt x="444" y="562" on="1"/>
        <pt x="479" y="262" on="0"/>
        <pt x="630" y="175" on="1"/>
        <pt x="682" y="145" on="0"/>
        <pt x="734" y="145" on="1"/>
        <pt x="785" y="145" on="0"/>
        <pt x="855" y="159" on="0"/>
        <pt x="889" y="171" on="1"/>
        <pt x="951" y="193" on="0"/>
        <pt x="1018" y="231" on="0"/>
        <pt x="1030" y="231" on="1"/>
        <pt x="1041" y="231" on="0"/>
        <pt x="1066" y="212" on="0"/>
        <pt x="1076" y="198" on="1"/>
        <pt x="1100" y="167" on="0"/>
        <pt x="1100" y="141" on="1"/>
        <pt x="1100" y="114" on="0"/>
        <pt x="1063" y="81" on="0"/>
        <pt x="1032" y="60" on="1"/>
        <pt x="1000" y="39" on="0"/>
        <pt x="958" y="21" on="1"/>
        <pt x="861" y="-20" on="0"/>
        <pt x="736" y="-20" on="1"/>
        <pt x="611" y="-20" on="0"/>
        <pt x="519" y="30" on="1"/>
        <pt x="428" y="79" on="0"/>
        <pt x="364" y="161" on="1"/>
        <pt x="246" y="313" on="0"/>
        <pt x="212" y="562" on="1"/>
        <pt x="68" y="562" on="1"/>
        <pt x="40" y="562" on="0"/>
        <pt x="30" y="614" on="1"/>
        <pt x="28" y="627" on="0"/>
        <pt x="28" y="639" on="1"/>
        <pt x="27" y="640" on="0"/>
        <pt x="27" y="642" on="1"/>
        <pt x="27" y="652" on="0"/>
        <pt x="30" y="664" on="1"/>
        <pt x="32" y="676" on="0"/>
        <pt x="37" y="688" on="1"/>
        <pt x="49" y="716" on="0"/>
        <pt x="68" y="716" on="1"/>
        <pt x="201" y="716" on="1"/>
        <pt x="201" y="734" on="1"/>
        <pt x="201" y="792" on="0"/>
        <pt x="204" y="846" on="1"/>
        <pt x="116" y="846" on="1"/>
        <pt x="88" y="846" on="0"/>
        <pt x="78" y="898" on="1"/>
        <pt x="76" y="911" on="0"/>
        <pt x="75" y="922" on="1"/>
        <pt x="75" y="968" on="0"/>
        <pt x="105" y="1000" on="0"/>
        <pt x="116" y="1000" on="1"/>
        <pt x="219" y="1000" on="1"/>
        <pt x="299" y="1525" on="0"/>
        <pt x="735" y="1525" on="1"/>
        <pt x="892" y="1525" on="0"/>
        <pt x="1018" y="1449" on="1"/>
        <pt x="1158" y="1364" on="0"/>
        <pt x="1159" y="1241" on="1"/>
        <pt x="1158" y="1177" on="0"/>
        <pt x="1114" y="1131" on="1"/>
        <pt x="1071" y="1087" on="0"/>
        <pt x="1006" y="1087" on="1"/>
        <pt x="941" y="1087" on="0"/>
        <pt x="897" y="1131" on="1"/>
        <pt x="852" y="1176" on="0"/>
        <pt x="852" y="1237" on="1"/>
        <pt x="852" y="1297" on="0"/>
      </contour>
    </TTGlyph>
    <TTGlyph name="F" xMin="73" yMin="0" xMax="1199" yMax="1505">
      <contour>
        <pt x="964" y="516" on="0"/>
        <pt x="892" y="516" on="1"/>
        <pt x="820" y="516" on="0"/>
        <pt x="820" y="543" on="1"/>
        <pt x="820" y="694" on="1"/>
        <pt x="501" y="694" on="1"/>
        <pt x="501" y="141" on="1"/>
        <pt x="716" y="141" on="1"/>
        <pt x="742" y="141" on="0"/>
        <pt x="742" y="80" on="1"/>
        <pt x="742" y="32" on="0"/>
        <pt x="712" y="0" on="0"/>
        <pt x="701" y="0" on="1"/>
        <pt x="128" y="0" on="1"/>
        <pt x="101" y="0" on="0"/>
        <pt x="101" y="59" on="1"/>
        <pt x="102" y="110" on="0"/>
        <pt x="126" y="134" on="1"/>
        <pt x="134" y="142" on="0"/>
        <pt x="158" y="142" on="1"/>
        <pt x="161" y="142" on="1"/>
        <pt x="165" y="141" on="0"/>
        <pt x="170" y="141" on="1"/>
        <pt x="193" y="141" on="0"/>
        <pt x="217" y="144" on="1"/>
        <pt x="246" y="146" on="0"/>
        <pt x="262" y="151" on="1"/>
        <pt x="290" y="160" on="0"/>
        <pt x="290" y="184" on="1"/>
        <pt x="290" y="1350" on="1"/>
        <pt x="290" y="1364" on="0"/>
        <pt x="278" y="1364" on="1"/>
        <pt x="114" y="1364" on="1"/>
        <pt x="86" y="1364" on="0"/>
        <pt x="76" y="1416" on="1"/>
        <pt x="74" y="1430" on="0"/>
        <pt x="73" y="1442" on="1"/>
        <pt x="73" y="1505" on="0"/>
        <pt x="99" y="1505" on="1"/>
        <pt x="1199" y="1505" on="1"/>
        <pt x="1199" y="1214" on="1"/>
        <pt x="1199" y="1180" on="0"/>
        <pt x="1129" y="1180" on="1"/>
        <pt x="1058" y="1180" on="0"/>
        <pt x="1058" y="1202" on="1"/>
        <pt x="1058" y="1286" on="0"/>
        <pt x="1036" y="1310" on="1"/>
        <pt x="997" y="1351" on="0"/>
        <pt x="894" y="1351" on="1"/>
        <pt x="501" y="1351" on="1"/>
        <pt x="501" y="848" on="1"/>
        <pt x="755" y="848" on="1"/>
        <pt x="801" y="848" on="0"/>
        <pt x="809" y="870" on="1"/>
        <pt x="822" y="902" on="0"/>
        <pt x="822" y="999" on="1"/>
        <pt x="822" y="1022" on="0"/>
        <pt x="882" y="1022" on="1"/>
        <pt x="934" y="1022" on="0"/>
        <pt x="964" y="994" on="0"/>
        <pt x="964" y="985" on="1"/>
        <pt x="964" y="557" on="1"/>
      </contour>
    </TTGlyph>
    <TTGlyph name="G" xMin="100" yMin="-20" xMax="1304" yMax="1525">
      <contour>
        <pt x="1279" y="632" on="1"/>
        <pt x="1304" y="632" on="0"/>
        <pt x="1304" y="562" on="1"/>
        <pt x="1304" y="491" on="0"/>
        <pt x="1269" y="491" on="1"/>
        <pt x="1198" y="491" on="1"/>
        <pt x="1198" y="147" on="1"/>
        <pt x="1114" y="75" on="0"/>
        <pt x="1044" y="44" on="1"/>
        <pt x="897" y="-20" on="0"/>
        <pt x="721" y="-20" on="1"/>
        <pt x="554" y="-20" on="0"/>
        <pt x="411" y="74" on="1"/>
        <pt x="190" y="220" on="0"/>
        <pt x="122" y="520" on="1"/>
        <pt x="100" y="620" on="0"/>
        <pt x="100" y="777" on="1"/>
        <pt x="100" y="934" on="0"/>
        <pt x="152" y="1082" on="1"/>
        <pt x="203" y="1232" on="0"/>
        <pt x="293" y="1330" on="1"/>
        <pt x="471" y="1525" on="0"/>
        <pt x="770" y="1525" on="1"/>
        <pt x="778" y="1525" on="1"/>
        <pt x="961" y="1525" on="0"/>
        <pt x="1091" y="1450" on="1"/>
        <pt x="1233" y="1369" on="0"/>
        <pt x="1233" y="1241" on="1"/>
        <pt x="1232" y="1177" on="0"/>
        <pt x="1188" y="1131" on="1"/>
        <pt x="1145" y="1087" on="0"/>
        <pt x="1080" y="1087" on="1"/>
        <pt x="1015" y="1087" on="0"/>
        <pt x="971" y="1131" on="1"/>
        <pt x="926" y="1176" on="0"/>
        <pt x="926" y="1238" on="1"/>
        <pt x="926" y="1299" on="0"/>
        <pt x="942" y="1336" on="1"/>
        <pt x="865" y="1371" on="0"/>
        <pt x="769" y="1371" on="1"/>
        <pt x="672" y="1371" on="0"/>
        <pt x="592" y="1332" on="1"/>
        <pt x="514" y="1293" on="0"/>
        <pt x="456" y="1221" on="1"/>
        <pt x="334" y="1068" on="0"/>
        <pt x="333" y="823" on="1"/>
        <pt x="333" y="819" on="1"/>
        <pt x="333" y="315" on="0"/>
        <pt x="580" y="186" on="1"/>
        <pt x="659" y="144" on="0"/>
        <pt x="770" y="144" on="1"/>
        <pt x="772" y="144" on="0"/>
        <pt x="773" y="145" on="1"/>
        <pt x="886" y="145" on="0"/>
        <pt x="987" y="186" on="1"/>
        <pt x="987" y="475" on="1"/>
        <pt x="987" y="491" on="0"/>
        <pt x="974" y="491" on="1"/>
        <pt x="811" y="491" on="1"/>
        <pt x="782" y="492" on="0"/>
        <pt x="772" y="546" on="1"/>
        <pt x="770" y="560" on="0"/>
        <pt x="770" y="573" on="1"/>
        <pt x="770" y="632" on="0"/>
        <pt x="796" y="632" on="1"/>
      </contour>
    </TTGlyph>
    <TTGlyph name="H" xMin="73" yMin="0" xMax="1537" yMax="1505">
      <contour>
        <pt x="669" y="141" on="1"/>
        <pt x="695" y="141" on="0"/>
        <pt x="695" y="80" on="1"/>
        <pt x="695" y="32" on="0"/>
        <pt x="665" y="0" on="0"/>
        <pt x="654" y="0" on="1"/>
        <pt x="122" y="0" on="1"/>
        <pt x="99" y="0" on="0"/>
        <pt x="99" y="57" on="1"/>
        <pt x="99" y="60" on="1"/>
        <pt x="99" y="107" on="0"/>
        <pt x="126" y="134" on="1"/>
        <pt x="134" y="142" on="0"/>
        <pt x="158" y="142" on="1"/>
        <pt x="161" y="142" on="1"/>
        <pt x="165" y="141" on="0"/>
        <pt x="170" y="141" on="1"/>
        <pt x="193" y="141" on="0"/>
        <pt x="217" y="144" on="1"/>
        <pt x="246" y="146" on="0"/>
        <pt x="262" y="151" on="1"/>
        <pt x="290" y="160" on="0"/>
        <pt x="290" y="184" on="1"/>
        <pt x="290" y="1348" on="1"/>
        <pt x="290" y="1364" on="0"/>
        <pt x="277" y="1364" on="1"/>
        <pt x="114" y="1364" on="1"/>
        <pt x="86" y="1364" on="0"/>
        <pt x="76" y="1417" on="1"/>
        <pt x="74" y="1431" on="0"/>
        <pt x="73" y="1444" on="1"/>
        <pt x="73" y="1505" on="0"/>
        <pt x="99" y="1505" on="1"/>
        <pt x="691" y="1505" on="1"/>
        <pt x="716" y="1505" on="0"/>
        <pt x="716" y="1435" on="1"/>
        <pt x="716" y="1364" on="0"/>
        <pt x="681" y="1364" on="1"/>
        <pt x="501" y="1364" on="1"/>
        <pt x="501" y="848" on="1"/>
        <pt x="1111" y="848" on="1"/>
        <pt x="1111" y="1348" on="1"/>
        <pt x="1111" y="1364" on="0"/>
        <pt x="1099" y="1364" on="1"/>
        <pt x="935" y="1364" on="1"/>
        <pt x="906" y="1364" on="0"/>
        <pt x="896" y="1417" on="1"/>
        <pt x="894" y="1431" on="0"/>
        <pt x="894" y="1444" on="1"/>
        <pt x="894" y="1505" on="0"/>
        <pt x="921" y="1505" on="1"/>
        <pt x="1512" y="1505" on="1"/>
        <pt x="1537" y="1505" on="0"/>
        <pt x="1537" y="1435" on="1"/>
        <pt x="1537" y="1364" on="0"/>
        <pt x="1502" y="1364" on="1"/>
        <pt x="1322" y="1364" on="1"/>
        <pt x="1322" y="141" on="1"/>
        <pt x="1490" y="141" on="1"/>
        <pt x="1517" y="141" on="0"/>
        <pt x="1517" y="80" on="1"/>
        <pt x="1517" y="31" on="0"/>
        <pt x="1486" y="0" on="0"/>
        <pt x="1476" y="0" on="1"/>
        <pt x="945" y="0" on="1"/>
        <pt x="921" y="0" on="0"/>
        <pt x="921" y="57" on="1"/>
        <pt x="921" y="108" on="0"/>
        <pt x="948" y="134" on="1"/>
        <pt x="956" y="142" on="0"/>
        <pt x="980" y="142" on="1"/>
        <pt x="983" y="142" on="1"/>
        <pt x="987" y="141" on="0"/>
        <pt x="992" y="141" on="1"/>
        <pt x="1015" y="141" on="0"/>
        <pt x="1039" y="144" on="1"/>
        <pt x="1067" y="146" on="0"/>
        <pt x="1083" y="151" on="1"/>
        <pt x="1111" y="160" on="0"/>
        <pt x="1111" y="184" on="1"/>
        <pt x="1111" y="694" on="1"/>
        <pt x="501" y="694" on="1"/>
        <pt x="501" y="141" on="1"/>
      </contour>
    </TTGlyph>
    <TTGlyph name="I" xMin="74" yMin="0" xMax="717" yMax="1505">
      <contour>
        <pt x="670" y="141" on="1"/>
        <pt x="696" y="141" on="0"/>
        <pt x="696" y="80" on="1"/>
        <pt x="696" y="32" on="0"/>
        <pt x="666" y="0" on="0"/>
        <pt x="655" y="0" on="1"/>
        <pt x="123" y="0" on="1"/>
        <pt x="100" y="0" on="0"/>
        <pt x="100" y="57" on="1"/>
        <pt x="100" y="106" on="0"/>
        <pt x="128" y="134" on="1"/>
        <pt x="136" y="142" on="0"/>
        <pt x="159" y="142" on="1"/>
        <pt x="163" y="142" on="1"/>
        <pt x="167" y="141" on="0"/>
        <pt x="171" y="141" on="1"/>
        <pt x="194" y="141" on="0"/>
        <pt x="218" y="144" on="1"/>
        <pt x="247" y="146" on="0"/>
        <pt x="263" y="151" on="1"/>
        <pt x="291" y="160" on="0"/>
        <pt x="291" y="184" on="1"/>
        <pt x="291" y="1348" on="1"/>
        <pt x="291" y="1364" on="0"/>
        <pt x="278" y="1364" on="1"/>
        <pt x="115" y="1364" on="1"/>
        <pt x="86" y="1364" on="0"/>
        <pt x="76" y="1418" on="1"/>
        <pt x="74" y="1432" on="0"/>
        <pt x="74" y="1446" on="1"/>
        <pt x="74" y="1505" on="0"/>
        <pt x="100" y="1505" on="1"/>
        <pt x="692" y="1505" on="1"/>
        <pt x="717" y="1505" on="0"/>
        <pt x="717" y="1435" on="1"/>
        <pt x="717" y="1364" on="0"/>
        <pt x="682" y="1364" on="1"/>
        <pt x="502" y="1364" on="1"/>
        <pt x="502" y="141" on="1"/>
      </contour>
    </TTGlyph>
    <TTGlyph name="Iacute" xMin="74" yMin="0" xMax="735" yMax="1991">
      <contour>
        <pt x="670" y="141" on="1"/>
        <pt x="696" y="141" on="0"/>
        <pt x="696" y="80" on="1"/>
        <pt x="696" y="32" on="0"/>
        <pt x="666" y="0" on="0"/>
        <pt x="655" y="0" on="1"/>
        <pt x="123" y="0" on="1"/>
        <pt x="100" y="0" on="0"/>
        <pt x="100" y="57" on="1"/>
        <pt x="100" y="106" on="0"/>
        <pt x="128" y="134" on="1"/>
        <pt x="136" y="142" on="0"/>
        <pt x="159" y="142" on="1"/>
        <pt x="163" y="142" on="1"/>
        <pt x="167" y="141" on="0"/>
        <pt x="171" y="141" on="1"/>
        <pt x="194" y="141" on="0"/>
        <pt x="218" y="144" on="1"/>
        <pt x="247" y="146" on="0"/>
        <pt x="263" y="151" on="1"/>
        <pt x="291" y="160" on="0"/>
        <pt x="291" y="184" on="1"/>
        <pt x="291" y="1348" on="1"/>
        <pt x="291" y="1364" on="0"/>
        <pt x="278" y="1364" on="1"/>
        <pt x="115" y="1364" on="1"/>
        <pt x="86" y="1364" on="0"/>
        <pt x="76" y="1418" on="1"/>
        <pt x="74" y="1432" on="0"/>
        <pt x="74" y="1446" on="1"/>
        <pt x="74" y="1505" on="0"/>
        <pt x="100" y="1505" on="1"/>
        <pt x="692" y="1505" on="1"/>
        <pt x="717" y="1505" on="0"/>
        <pt x="717" y="1435" on="1"/>
        <pt x="717" y="1364" on="0"/>
        <pt x="682" y="1364" on="1"/>
        <pt x="502" y="1364" on="1"/>
        <pt x="502" y="141" on="1"/>
      </contour>
      <contour>
        <pt x="412" y="1598" on="1"/>
        <pt x="370" y="1598" on="0"/>
        <pt x="349" y="1622" on="1"/>
        <pt x="313" y="1663" on="0"/>
        <pt x="313" y="1706" on="1"/>
        <pt x="586" y="1991" on="1"/>
        <pt x="589" y="1991" on="1"/>
        <pt x="651" y="1991" on="0"/>
        <pt x="692" y="1948" on="1"/>
        <pt x="735" y="1904" on="0"/>
        <pt x="735" y="1833" on="1"/>
      </contour>
    </TTGlyph>
    <TTGlyph name="Icircumflex" xMin="61" yMin="0" xMax="722" yMax="1914">
      <contour>
        <pt x="670" y="141" on="1"/>
        <pt x="696" y="141" on="0"/>
        <pt x="696" y="80" on="1"/>
        <pt x="696" y="32" on="0"/>
        <pt x="666" y="0" on="0"/>
        <pt x="655" y="0" on="1"/>
        <pt x="123" y="0" on="1"/>
        <pt x="100" y="0" on="0"/>
        <pt x="100" y="57" on="1"/>
        <pt x="100" y="106" on="0"/>
        <pt x="128" y="134" on="1"/>
        <pt x="136" y="142" on="0"/>
        <pt x="159" y="142" on="1"/>
        <pt x="163" y="142" on="1"/>
        <pt x="167" y="141" on="0"/>
        <pt x="171" y="141" on="1"/>
        <pt x="194" y="141" on="0"/>
        <pt x="218" y="144" on="1"/>
        <pt x="247" y="146" on="0"/>
        <pt x="263" y="151" on="1"/>
        <pt x="291" y="160" on="0"/>
        <pt x="291" y="184" on="1"/>
        <pt x="291" y="1348" on="1"/>
        <pt x="291" y="1364" on="0"/>
        <pt x="278" y="1364" on="1"/>
        <pt x="115" y="1364" on="1"/>
        <pt x="86" y="1364" on="0"/>
        <pt x="76" y="1418" on="1"/>
        <pt x="74" y="1432" on="0"/>
        <pt x="74" y="1446" on="1"/>
        <pt x="74" y="1505" on="0"/>
        <pt x="100" y="1505" on="1"/>
        <pt x="692" y="1505" on="1"/>
        <pt x="717" y="1505" on="0"/>
        <pt x="717" y="1435" on="1"/>
        <pt x="717" y="1364" on="0"/>
        <pt x="682" y="1364" on="1"/>
        <pt x="502" y="1364" on="1"/>
        <pt x="502" y="141" on="1"/>
      </contour>
      <contour>
        <pt x="145" y="1609" on="1"/>
        <pt x="111" y="1610" on="0"/>
        <pt x="92" y="1632" on="1"/>
        <pt x="61" y="1670" on="0"/>
        <pt x="61" y="1709" on="1"/>
        <pt x="317" y="1886" on="1"/>
        <pt x="360" y="1914" on="0"/>
        <pt x="388" y="1914" on="1"/>
        <pt x="424" y="1914" on="0"/>
        <pt x="466" y="1886" on="1"/>
        <pt x="722" y="1709" on="1"/>
        <pt x="722" y="1646" on="0"/>
        <pt x="671" y="1618" on="1"/>
        <pt x="656" y="1610" on="0"/>
        <pt x="638" y="1609" on="1"/>
        <pt x="393" y="1726" on="1"/>
      </contour>
    </TTGlyph>
    <TTGlyph name="Idieresis" xMin="35" yMin="0" xMax="760" yMax="1896">
      <contour>
        <pt x="670" y="141" on="1"/>
        <pt x="696" y="141" on="0"/>
        <pt x="696" y="80" on="1"/>
        <pt x="696" y="32" on="0"/>
        <pt x="666" y="0" on="0"/>
        <pt x="655" y="0" on="1"/>
        <pt x="123" y="0" on="1"/>
        <pt x="100" y="0" on="0"/>
        <pt x="100" y="57" on="1"/>
        <pt x="100" y="106" on="0"/>
        <pt x="128" y="134" on="1"/>
        <pt x="136" y="142" on="0"/>
        <pt x="159" y="142" on="1"/>
        <pt x="163" y="142" on="1"/>
        <pt x="167" y="141" on="0"/>
        <pt x="171" y="141" on="1"/>
        <pt x="194" y="141" on="0"/>
        <pt x="218" y="144" on="1"/>
        <pt x="247" y="146" on="0"/>
        <pt x="263" y="151" on="1"/>
        <pt x="291" y="160" on="0"/>
        <pt x="291" y="184" on="1"/>
        <pt x="291" y="1348" on="1"/>
        <pt x="291" y="1364" on="0"/>
        <pt x="278" y="1364" on="1"/>
        <pt x="115" y="1364" on="1"/>
        <pt x="86" y="1364" on="0"/>
        <pt x="76" y="1418" on="1"/>
        <pt x="74" y="1432" on="0"/>
        <pt x="74" y="1446" on="1"/>
        <pt x="74" y="1505" on="0"/>
        <pt x="100" y="1505" on="1"/>
        <pt x="692" y="1505" on="1"/>
        <pt x="717" y="1505" on="0"/>
        <pt x="717" y="1435" on="1"/>
        <pt x="717" y="1364" on="0"/>
        <pt x="682" y="1364" on="1"/>
        <pt x="502" y="1364" on="1"/>
        <pt x="502" y="141" on="1"/>
      </contour>
      <contour>
        <pt x="35" y="1757" on="1"/>
        <pt x="35" y="1759" on="1"/>
        <pt x="35" y="1852" on="0"/>
        <pt x="114" y="1886" on="1"/>
        <pt x="138" y="1896" on="0"/>
        <pt x="169" y="1896" on="1"/>
        <pt x="199" y="1896" on="0"/>
        <pt x="224" y="1886" on="1"/>
        <pt x="250" y="1874" on="0"/>
        <pt x="268" y="1856" on="1"/>
        <pt x="308" y="1816" on="0"/>
        <pt x="308" y="1757" on="1"/>
        <pt x="308" y="1698" on="0"/>
        <pt x="268" y="1658" on="1"/>
        <pt x="230" y="1620" on="0"/>
        <pt x="184" y="1620" on="1"/>
        <pt x="108" y="1620" on="0"/>
        <pt x="35" y="1698" on="0"/>
      </contour>
      <contour>
        <pt x="623" y="1620" on="1"/>
        <pt x="531" y="1620" on="0"/>
        <pt x="498" y="1702" on="1"/>
        <pt x="488" y="1727" on="0"/>
        <pt x="488" y="1757" on="1"/>
        <pt x="488" y="1852" on="0"/>
        <pt x="568" y="1886" on="1"/>
        <pt x="593" y="1896" on="0"/>
        <pt x="623" y="1896" on="1"/>
        <pt x="682" y="1896" on="0"/>
        <pt x="722" y="1856" on="1"/>
        <pt x="760" y="1818" on="0"/>
        <pt x="760" y="1757" on="1"/>
        <pt x="760" y="1663" on="0"/>
        <pt x="678" y="1630" on="1"/>
        <pt x="653" y="1620" on="0"/>
      </contour>
    </TTGlyph>
    <TTGlyph name="Igrave" xMin="57" yMin="0" xMax="717" yMax="1991">
      <contour>
        <pt x="670" y="141" on="1"/>
        <pt x="696" y="141" on="0"/>
        <pt x="696" y="80" on="1"/>
        <pt x="696" y="32" on="0"/>
        <pt x="666" y="0" on="0"/>
        <pt x="655" y="0" on="1"/>
        <pt x="123" y="0" on="1"/>
        <pt x="100" y="0" on="0"/>
        <pt x="100" y="57" on="1"/>
        <pt x="100" y="106" on="0"/>
        <pt x="128" y="134" on="1"/>
        <pt x="136" y="142" on="0"/>
        <pt x="159" y="142" on="1"/>
        <pt x="163" y="142" on="1"/>
        <pt x="167" y="141" on="0"/>
        <pt x="171" y="141" on="1"/>
        <pt x="194" y="141" on="0"/>
        <pt x="218" y="144" on="1"/>
        <pt x="247" y="146" on="0"/>
        <pt x="263" y="151" on="1"/>
        <pt x="291" y="160" on="0"/>
        <pt x="291" y="184" on="1"/>
        <pt x="291" y="1348" on="1"/>
        <pt x="291" y="1364" on="0"/>
        <pt x="278" y="1364" on="1"/>
        <pt x="115" y="1364" on="1"/>
        <pt x="86" y="1364" on="0"/>
        <pt x="76" y="1418" on="1"/>
        <pt x="74" y="1432" on="0"/>
        <pt x="74" y="1446" on="1"/>
        <pt x="74" y="1505" on="0"/>
        <pt x="100" y="1505" on="1"/>
        <pt x="692" y="1505" on="1"/>
        <pt x="717" y="1505" on="0"/>
        <pt x="717" y="1435" on="1"/>
        <pt x="717" y="1364" on="0"/>
        <pt x="682" y="1364" on="1"/>
        <pt x="502" y="1364" on="1"/>
        <pt x="502" y="141" on="1"/>
      </contour>
      <contour>
        <pt x="57" y="1833" on="1"/>
        <pt x="57" y="1942" on="0"/>
        <pt x="147" y="1980" on="1"/>
        <pt x="172" y="1991" on="0"/>
        <pt x="201" y="1991" on="1"/>
        <pt x="206" y="1991" on="1"/>
        <pt x="479" y="1706" on="1"/>
        <pt x="478" y="1663" on="0"/>
        <pt x="458" y="1640" on="1"/>
        <pt x="422" y="1598" on="0"/>
        <pt x="381" y="1598" on="1"/>
      </contour>
    </TTGlyph>
    <TTGlyph name="J" xMin="-53" yMin="-440" xMax="699" yMax="1505">
      <contour>
        <pt x="674" y="1505" on="1"/>
        <pt x="699" y="1505" on="0"/>
        <pt x="699" y="1435" on="1"/>
        <pt x="699" y="1364" on="0"/>
        <pt x="664" y="1364" on="1"/>
        <pt x="484" y="1364" on="1"/>
        <pt x="484" y="68" on="1"/>
        <pt x="484" y="-119" on="0"/>
        <pt x="384" y="-271" on="1"/>
        <pt x="314" y="-375" on="0"/>
        <pt x="206" y="-418" on="1"/>
        <pt x="150" y="-440" on="0"/>
        <pt x="103" y="-440" on="1"/>
        <pt x="55" y="-440" on="0"/>
        <pt x="30" y="-430" on="1"/>
        <pt x="4" y="-420" on="0"/>
        <pt x="-14" y="-402" on="1"/>
        <pt x="-53" y="-363" on="0"/>
        <pt x="-53" y="-306" on="1"/>
        <pt x="-53" y="-303" on="1"/>
        <pt x="-53" y="-208" on="0"/>
        <pt x="30" y="-174" on="1"/>
        <pt x="55" y="-164" on="0"/>
        <pt x="84" y="-164" on="1"/>
        <pt x="159" y="-164" on="0"/>
        <pt x="201" y="-231" on="1"/>
        <pt x="273" y="-186" on="0"/>
        <pt x="273" y="0" on="1"/>
        <pt x="273" y="1348" on="1"/>
        <pt x="273" y="1364" on="0"/>
        <pt x="260" y="1364" on="1"/>
        <pt x="97" y="1364" on="1"/>
        <pt x="68" y="1364" on="0"/>
        <pt x="58" y="1418" on="1"/>
        <pt x="56" y="1432" on="0"/>
        <pt x="56" y="1446" on="1"/>
        <pt x="56" y="1505" on="0"/>
        <pt x="82" y="1505" on="1"/>
      </contour>
    </TTGlyph>
    <TTGlyph name="K" xMin="74" yMin="0" xMax="1484" yMax="1505">
      <contour>
        <pt x="670" y="141" on="1"/>
        <pt x="696" y="141" on="0"/>
        <pt x="696" y="80" on="1"/>
        <pt x="696" y="32" on="0"/>
        <pt x="666" y="0" on="0"/>
        <pt x="655" y="0" on="1"/>
        <pt x="123" y="0" on="1"/>
        <pt x="100" y="0" on="0"/>
        <pt x="100" y="57" on="1"/>
        <pt x="100" y="106" on="0"/>
        <pt x="128" y="134" on="1"/>
        <pt x="136" y="142" on="0"/>
        <pt x="159" y="142" on="1"/>
        <pt x="163" y="142" on="1"/>
        <pt x="167" y="141" on="0"/>
        <pt x="171" y="141" on="1"/>
        <pt x="194" y="141" on="0"/>
        <pt x="218" y="144" on="1"/>
        <pt x="247" y="146" on="0"/>
        <pt x="263" y="151" on="1"/>
        <pt x="291" y="160" on="0"/>
        <pt x="291" y="184" on="1"/>
        <pt x="291" y="1348" on="1"/>
        <pt x="291" y="1364" on="0"/>
        <pt x="278" y="1364" on="1"/>
        <pt x="115" y="1364" on="1"/>
        <pt x="86" y="1364" on="0"/>
        <pt x="76" y="1418" on="1"/>
        <pt x="74" y="1432" on="0"/>
        <pt x="74" y="1446" on="1"/>
        <pt x="74" y="1505" on="0"/>
        <pt x="100" y="1505" on="1"/>
        <pt x="640" y="1505" on="1"/>
        <pt x="665" y="1505" on="0"/>
        <pt x="665" y="1435" on="1"/>
        <pt x="665" y="1364" on="0"/>
        <pt x="630" y="1364" on="1"/>
        <pt x="502" y="1364" on="1"/>
        <pt x="502" y="141" on="1"/>
      </contour>
      <contour>
        <pt x="1460" y="141" on="1"/>
        <pt x="1484" y="141" on="0"/>
        <pt x="1484" y="76" on="1"/>
        <pt x="1484" y="29" on="0"/>
        <pt x="1455" y="0" on="0"/>
        <pt x="1445" y="0" on="1"/>
        <pt x="1275" y="0" on="1"/>
        <pt x="1206" y="0" on="0"/>
        <pt x="1136" y="62" on="1"/>
        <pt x="1116" y="80" on="0"/>
        <pt x="1100" y="102" on="1"/>
        <pt x="569" y="796" on="1"/>
        <pt x="1094" y="1364" on="1"/>
        <pt x="962" y="1364" on="1"/>
        <pt x="936" y="1364" on="0"/>
        <pt x="936" y="1422" on="1"/>
        <pt x="936" y="1474" on="0"/>
        <pt x="963" y="1505" on="0"/>
        <pt x="972" y="1505" on="1"/>
        <pt x="1409" y="1505" on="1"/>
        <pt x="1434" y="1505" on="0"/>
        <pt x="1434" y="1448" on="1"/>
        <pt x="1434" y="1396" on="0"/>
        <pt x="1410" y="1372" on="1"/>
        <pt x="1402" y="1364" on="0"/>
        <pt x="1386" y="1364" on="1"/>
        <pt x="1369" y="1364" on="0"/>
        <pt x="1335" y="1357" on="0"/>
        <pt x="1323" y="1351" on="1"/>
        <pt x="1303" y="1341" on="0"/>
        <pt x="1285" y="1321" on="1"/>
        <pt x="828" y="803" on="1"/>
        <pt x="1268" y="230" on="1"/>
        <pt x="1303" y="184" on="0"/>
        <pt x="1390" y="141" on="0"/>
      </contour>
    </TTGlyph>
    <TTGlyph name="L" xMin="73" yMin="0" xMax="1182" yMax="1505">
      <contour>
        <pt x="691" y="1505" on="1"/>
        <pt x="716" y="1505" on="0"/>
        <pt x="716" y="1435" on="1"/>
        <pt x="716" y="1364" on="0"/>
        <pt x="681" y="1364" on="1"/>
        <pt x="501" y="1364" on="1"/>
        <pt x="501" y="154" on="1"/>
        <pt x="970" y="154" on="1"/>
        <pt x="1047" y="303" on="1"/>
        <pt x="1057" y="322" on="0"/>
        <pt x="1085" y="322" on="1"/>
        <pt x="1112" y="322" on="0"/>
        <pt x="1142" y="316" on="0"/>
        <pt x="1154" y="311" on="1"/>
        <pt x="1182" y="299" on="0"/>
        <pt x="1182" y="281" on="1"/>
        <pt x="1182" y="276" on="0"/>
        <pt x="1181" y="274" on="1"/>
        <pt x="1088" y="0" on="1"/>
        <pt x="122" y="0" on="1"/>
        <pt x="99" y="0" on="0"/>
        <pt x="99" y="59" on="1"/>
        <pt x="99" y="62" on="1"/>
        <pt x="99" y="107" on="0"/>
        <pt x="126" y="134" on="1"/>
        <pt x="134" y="142" on="0"/>
        <pt x="158" y="142" on="1"/>
        <pt x="161" y="142" on="1"/>
        <pt x="165" y="141" on="0"/>
        <pt x="170" y="141" on="1"/>
        <pt x="193" y="141" on="0"/>
        <pt x="217" y="144" on="1"/>
        <pt x="246" y="146" on="0"/>
        <pt x="262" y="151" on="1"/>
        <pt x="290" y="160" on="0"/>
        <pt x="290" y="184" on="1"/>
        <pt x="290" y="1348" on="1"/>
        <pt x="290" y="1364" on="0"/>
        <pt x="277" y="1364" on="1"/>
        <pt x="114" y="1364" on="1"/>
        <pt x="86" y="1364" on="0"/>
        <pt x="76" y="1418" on="1"/>
        <pt x="74" y="1432" on="0"/>
        <pt x="74" y="1444" on="1"/>
        <pt x="73" y="1446" on="0"/>
        <pt x="73" y="1449" on="1"/>
        <pt x="73" y="1458" on="0"/>
        <pt x="75" y="1466" on="1"/>
        <pt x="76" y="1476" on="0"/>
        <pt x="79" y="1484" on="1"/>
        <pt x="86" y="1504" on="0"/>
        <pt x="99" y="1505" on="1"/>
      </contour>
    </TTGlyph>
    <TTGlyph name="M" xMin="74" yMin="-12" xMax="1895" yMax="1505">
      <contour>
        <pt x="612" y="141" on="1"/>
        <pt x="638" y="141" on="0"/>
        <pt x="638" y="80" on="1"/>
        <pt x="638" y="32" on="0"/>
        <pt x="608" y="0" on="0"/>
        <pt x="597" y="0" on="1"/>
        <pt x="125" y="0" on="1"/>
        <pt x="100" y="0" on="0"/>
        <pt x="100" y="57" on="1"/>
        <pt x="100" y="106" on="0"/>
        <pt x="128" y="134" on="1"/>
        <pt x="136" y="142" on="0"/>
        <pt x="159" y="142" on="1"/>
        <pt x="163" y="142" on="1"/>
        <pt x="167" y="141" on="0"/>
        <pt x="171" y="141" on="1"/>
        <pt x="194" y="141" on="0"/>
        <pt x="218" y="144" on="1"/>
        <pt x="247" y="146" on="0"/>
        <pt x="263" y="151" on="1"/>
        <pt x="291" y="160" on="0"/>
        <pt x="291" y="184" on="1"/>
        <pt x="291" y="1348" on="1"/>
        <pt x="291" y="1364" on="0"/>
        <pt x="278" y="1364" on="1"/>
        <pt x="115" y="1364" on="1"/>
        <pt x="86" y="1364" on="0"/>
        <pt x="76" y="1418" on="1"/>
        <pt x="74" y="1432" on="0"/>
        <pt x="74" y="1446" on="1"/>
        <pt x="74" y="1505" on="0"/>
        <pt x="100" y="1505" on="1"/>
        <pt x="398" y="1505" on="1"/>
        <pt x="426" y="1505" on="0"/>
        <pt x="439" y="1476" on="1"/>
        <pt x="988" y="320" on="1"/>
        <pt x="1469" y="1485" on="1"/>
        <pt x="1478" y="1505" on="0"/>
        <pt x="1495" y="1505" on="1"/>
        <pt x="1870" y="1505" on="1"/>
        <pt x="1895" y="1505" on="0"/>
        <pt x="1895" y="1435" on="1"/>
        <pt x="1895" y="1364" on="0"/>
        <pt x="1860" y="1364" on="1"/>
        <pt x="1680" y="1364" on="1"/>
        <pt x="1680" y="141" on="1"/>
        <pt x="1848" y="141" on="1"/>
        <pt x="1874" y="141" on="0"/>
        <pt x="1874" y="80" on="1"/>
        <pt x="1874" y="32" on="0"/>
        <pt x="1844" y="0" on="0"/>
        <pt x="1833" y="0" on="1"/>
        <pt x="1303" y="0" on="1"/>
        <pt x="1278" y="0" on="0"/>
        <pt x="1278" y="57" on="1"/>
        <pt x="1278" y="106" on="0"/>
        <pt x="1306" y="134" on="1"/>
        <pt x="1314" y="142" on="0"/>
        <pt x="1337" y="142" on="1"/>
        <pt x="1341" y="142" on="1"/>
        <pt x="1345" y="141" on="0"/>
        <pt x="1349" y="141" on="1"/>
        <pt x="1372" y="141" on="0"/>
        <pt x="1396" y="144" on="1"/>
        <pt x="1425" y="146" on="0"/>
        <pt x="1441" y="151" on="1"/>
        <pt x="1469" y="160" on="0"/>
        <pt x="1469" y="184" on="1"/>
        <pt x="1469" y="1119" on="1"/>
        <pt x="1020" y="0" on="1"/>
        <pt x="1008" y="-12" on="0"/>
        <pt x="980" y="-12" on="1"/>
        <pt x="926" y="-12" on="0"/>
        <pt x="905" y="0" on="1"/>
        <pt x="445" y="1023" on="1"/>
        <pt x="445" y="141" on="1"/>
      </contour>
    </TTGlyph>
    <TTGlyph name="N" xMin="74" yMin="-20" xMax="1609" yMax="1505">
      <contour>
        <pt x="74" y="1446" on="1"/>
        <pt x="74" y="1505" on="0"/>
        <pt x="100" y="1505" on="1"/>
        <pt x="448" y="1505" on="1"/>
        <pt x="1241" y="345" on="1"/>
        <pt x="1241" y="1348" on="1"/>
        <pt x="1241" y="1364" on="0"/>
        <pt x="1228" y="1364" on="1"/>
        <pt x="1065" y="1364" on="1"/>
        <pt x="1036" y="1364" on="0"/>
        <pt x="1026" y="1418" on="1"/>
        <pt x="1024" y="1432" on="0"/>
        <pt x="1024" y="1446" on="1"/>
        <pt x="1024" y="1505" on="0"/>
        <pt x="1050" y="1505" on="1"/>
        <pt x="1584" y="1505" on="1"/>
        <pt x="1609" y="1505" on="0"/>
        <pt x="1609" y="1435" on="1"/>
        <pt x="1609" y="1364" on="0"/>
        <pt x="1574" y="1364" on="1"/>
        <pt x="1395" y="1364" on="1"/>
        <pt x="1395" y="-2" on="1"/>
        <pt x="1395" y="-20" on="0"/>
        <pt x="1321" y="-20" on="1"/>
        <pt x="1250" y="-20" on="0"/>
        <pt x="1239" y="-2" on="1"/>
        <pt x="445" y="1127" on="1"/>
        <pt x="445" y="141" on="1"/>
        <pt x="613" y="141" on="1"/>
        <pt x="640" y="141" on="0"/>
        <pt x="640" y="80" on="1"/>
        <pt x="640" y="30" on="0"/>
        <pt x="610" y="0" on="0"/>
        <pt x="598" y="0" on="1"/>
        <pt x="125" y="0" on="1"/>
        <pt x="100" y="0" on="0"/>
        <pt x="100" y="57" on="1"/>
        <pt x="100" y="106" on="0"/>
        <pt x="128" y="134" on="1"/>
        <pt x="136" y="142" on="0"/>
        <pt x="159" y="142" on="1"/>
        <pt x="163" y="142" on="1"/>
        <pt x="167" y="141" on="0"/>
        <pt x="171" y="141" on="1"/>
        <pt x="194" y="141" on="0"/>
        <pt x="218" y="144" on="1"/>
        <pt x="247" y="146" on="0"/>
        <pt x="263" y="151" on="1"/>
        <pt x="291" y="160" on="0"/>
        <pt x="291" y="184" on="1"/>
        <pt x="291" y="1348" on="1"/>
        <pt x="291" y="1364" on="0"/>
        <pt x="278" y="1364" on="1"/>
        <pt x="115" y="1364" on="1"/>
        <pt x="86" y="1364" on="0"/>
        <pt x="76" y="1418" on="1"/>
        <pt x="74" y="1432" on="0"/>
      </contour>
    </TTGlyph>
    <TTGlyph name="Ntilde" xMin="74" yMin="-20" xMax="1609" yMax="1917">
      <contour>
        <pt x="74" y="1446" on="1"/>
        <pt x="74" y="1505" on="0"/>
        <pt x="100" y="1505" on="1"/>
        <pt x="448" y="1505" on="1"/>
        <pt x="1241" y="345" on="1"/>
        <pt x="1241" y="1348" on="1"/>
        <pt x="1241" y="1364" on="0"/>
        <pt x="1228" y="1364" on="1"/>
        <pt x="1065" y="1364" on="1"/>
        <pt x="1036" y="1364" on="0"/>
        <pt x="1026" y="1418" on="1"/>
        <pt x="1024" y="1432" on="0"/>
        <pt x="1024" y="1446" on="1"/>
        <pt x="1024" y="1505" on="0"/>
        <pt x="1050" y="1505" on="1"/>
        <pt x="1584" y="1505" on="1"/>
        <pt x="1609" y="1505" on="0"/>
        <pt x="1609" y="1435" on="1"/>
        <pt x="1609" y="1364" on="0"/>
        <pt x="1574" y="1364" on="1"/>
        <pt x="1395" y="1364" on="1"/>
        <pt x="1395" y="-2" on="1"/>
        <pt x="1395" y="-20" on="0"/>
        <pt x="1321" y="-20" on="1"/>
        <pt x="1250" y="-20" on="0"/>
        <pt x="1239" y="-2" on="1"/>
        <pt x="445" y="1127" on="1"/>
        <pt x="445" y="141" on="1"/>
        <pt x="613" y="141" on="1"/>
        <pt x="640" y="141" on="0"/>
        <pt x="640" y="80" on="1"/>
        <pt x="640" y="30" on="0"/>
        <pt x="610" y="0" on="0"/>
        <pt x="598" y="0" on="1"/>
        <pt x="125" y="0" on="1"/>
        <pt x="100" y="0" on="0"/>
        <pt x="100" y="57" on="1"/>
        <pt x="100" y="106" on="0"/>
        <pt x="128" y="134" on="1"/>
        <pt x="136" y="142" on="0"/>
        <pt x="159" y="142" on="1"/>
        <pt x="163" y="142" on="1"/>
        <pt x="167" y="141" on="0"/>
        <pt x="171" y="141" on="1"/>
        <pt x="194" y="141" on="0"/>
        <pt x="218" y="144" on="1"/>
        <pt x="247" y="146" on="0"/>
        <pt x="263" y="151" on="1"/>
        <pt x="291" y="160" on="0"/>
        <pt x="291" y="184" on="1"/>
        <pt x="291" y="1348" on="1"/>
        <pt x="291" y="1364" on="0"/>
        <pt x="278" y="1364" on="1"/>
        <pt x="115" y="1364" on="1"/>
        <pt x="86" y="1364" on="0"/>
        <pt x="76" y="1418" on="1"/>
        <pt x="74" y="1432" on="0"/>
      </contour>
      <contour>
        <pt x="515" y="1627" on="1"/>
        <pt x="476" y="1628" on="0"/>
        <pt x="456" y="1648" on="1"/>
        <pt x="422" y="1682" on="0"/>
        <pt x="421" y="1719" on="1"/>
        <pt x="486" y="1836" on="0"/>
        <pt x="600" y="1893" on="1"/>
        <pt x="648" y="1917" on="0"/>
        <pt x="700" y="1917" on="1"/>
        <pt x="751" y="1917" on="0"/>
        <pt x="824" y="1872" on="0"/>
        <pt x="894" y="1817" on="0"/>
        <pt x="965" y="1772" on="0"/>
        <pt x="999" y="1772" on="1"/>
        <pt x="1032" y="1772" on="0"/>
        <pt x="1082" y="1803" on="0"/>
        <pt x="1124" y="1845" on="0"/>
        <pt x="1158" y="1889" on="0"/>
        <pt x="1172" y="1901" on="1"/>
        <pt x="1210" y="1901" on="0"/>
        <pt x="1232" y="1880" on="1"/>
        <pt x="1270" y="1844" on="0"/>
        <pt x="1270" y="1809" on="1"/>
        <pt x="1216" y="1688" on="0"/>
        <pt x="1102" y="1629" on="1"/>
        <pt x="1054" y="1604" on="0"/>
        <pt x="1006" y="1604" on="1"/>
        <pt x="957" y="1604" on="0"/>
        <pt x="898" y="1624" on="0"/>
        <pt x="846" y="1653" on="0"/>
        <pt x="822" y="1670" on="1"/>
        <pt x="798" y="1688" on="0"/>
        <pt x="776" y="1702" on="1"/>
        <pt x="722" y="1736" on="0"/>
        <pt x="687" y="1737" on="1"/>
        <pt x="684" y="1737" on="1"/>
        <pt x="650" y="1737" on="0"/>
        <pt x="625" y="1723" on="1"/>
        <pt x="598" y="1709" on="0"/>
        <pt x="556" y="1673" on="0"/>
        <pt x="525" y="1636" on="0"/>
      </contour>
    </TTGlyph>
    <TTGlyph name="O" xMin="102" yMin="-20" xMax="1398" yMax="1525">
      <contour>
        <pt x="734" y="-20" on="1"/>
        <pt x="602" y="-20" on="0"/>
        <pt x="488" y="24" on="1"/>
        <pt x="374" y="69" on="0"/>
        <pt x="288" y="161" on="1"/>
        <pt x="102" y="361" on="0"/>
        <pt x="102" y="731" on="1"/>
        <pt x="102" y="1117" on="0"/>
        <pt x="294" y="1328" on="1"/>
        <pt x="473" y="1525" on="0"/>
        <pt x="774" y="1525" on="1"/>
        <pt x="1077" y="1524" on="0"/>
        <pt x="1239" y="1310" on="1"/>
        <pt x="1398" y="1100" on="0"/>
        <pt x="1398" y="716" on="1"/>
        <pt x="1398" y="350" on="0"/>
        <pt x="1198" y="154" on="1"/>
        <pt x="1022" y="-20" on="0"/>
      </contour>
      <contour>
        <pt x="581" y="187" on="1"/>
        <pt x="661" y="145" on="0"/>
        <pt x="753" y="145" on="1"/>
        <pt x="844" y="145" on="0"/>
        <pt x="917" y="175" on="1"/>
        <pt x="990" y="206" on="0"/>
        <pt x="1046" y="274" on="1"/>
        <pt x="1168" y="423" on="0"/>
        <pt x="1168" y="729" on="1"/>
        <pt x="1168" y="994" on="0"/>
        <pt x="1046" y="1176" on="1"/>
        <pt x="922" y="1360" on="0"/>
        <pt x="741" y="1360" on="1"/>
        <pt x="566" y="1360" on="0"/>
        <pt x="452" y="1215" on="1"/>
        <pt x="332" y="1064" on="0"/>
        <pt x="332" y="823" on="1"/>
        <pt x="332" y="318" on="0"/>
      </contour>
    </TTGlyph>
    <TTGlyph name="OE" xMin="102" yMin="-20" xMax="1995" yMax="1525">
      <contour>
        <pt x="1718" y="516" on="0"/>
        <pt x="1646" y="516" on="1"/>
        <pt x="1574" y="516" on="0"/>
        <pt x="1574" y="543" on="1"/>
        <pt x="1574" y="694" on="1"/>
        <pt x="1255" y="694" on="1"/>
        <pt x="1255" y="154" on="1"/>
        <pt x="1785" y="154" on="1"/>
        <pt x="1861" y="303" on="1"/>
        <pt x="1871" y="322" on="0"/>
        <pt x="1899" y="322" on="1"/>
        <pt x="1926" y="322" on="0"/>
        <pt x="1956" y="316" on="0"/>
        <pt x="1968" y="311" on="1"/>
        <pt x="1995" y="300" on="0"/>
        <pt x="1995" y="281" on="1"/>
        <pt x="1995" y="276" on="0"/>
        <pt x="1994" y="274" on="1"/>
        <pt x="1902" y="0" on="1"/>
        <pt x="910" y="0" on="1"/>
        <pt x="822" y="-20" on="0"/>
        <pt x="712" y="-20" on="1"/>
        <pt x="602" y="-20" on="0"/>
        <pt x="488" y="24" on="1"/>
        <pt x="374" y="69" on="0"/>
        <pt x="288" y="161" on="1"/>
        <pt x="102" y="361" on="0"/>
        <pt x="102" y="731" on="1"/>
        <pt x="102" y="1117" on="0"/>
        <pt x="294" y="1328" on="1"/>
        <pt x="473" y="1525" on="0"/>
        <pt x="774" y="1525" on="1"/>
        <pt x="863" y="1525" on="0"/>
        <pt x="945" y="1505" on="1"/>
        <pt x="1953" y="1505" on="1"/>
        <pt x="1953" y="1214" on="1"/>
        <pt x="1953" y="1180" on="0"/>
        <pt x="1883" y="1180" on="1"/>
        <pt x="1812" y="1180" on="0"/>
        <pt x="1812" y="1202" on="1"/>
        <pt x="1812" y="1286" on="0"/>
        <pt x="1790" y="1310" on="1"/>
        <pt x="1751" y="1351" on="0"/>
        <pt x="1648" y="1351" on="1"/>
        <pt x="1255" y="1351" on="1"/>
        <pt x="1255" y="848" on="1"/>
        <pt x="1509" y="848" on="1"/>
        <pt x="1555" y="848" on="0"/>
        <pt x="1563" y="870" on="1"/>
        <pt x="1576" y="902" on="0"/>
        <pt x="1576" y="999" on="1"/>
        <pt x="1576" y="1022" on="0"/>
        <pt x="1636" y="1022" on="1"/>
        <pt x="1688" y="1022" on="0"/>
        <pt x="1718" y="994" on="0"/>
        <pt x="1718" y="985" on="1"/>
        <pt x="1718" y="557" on="1"/>
      </contour>
      <contour>
        <pt x="1044" y="1253" on="1"/>
        <pt x="939" y="1360" on="0"/>
        <pt x="741" y="1360" on="1"/>
        <pt x="566" y="1360" on="0"/>
        <pt x="452" y="1215" on="1"/>
        <pt x="332" y="1064" on="0"/>
        <pt x="332" y="823" on="1"/>
        <pt x="332" y="318" on="0"/>
        <pt x="581" y="187" on="1"/>
        <pt x="661" y="145" on="0"/>
        <pt x="763" y="145" on="1"/>
        <pt x="955" y="145" on="0"/>
        <pt x="1044" y="221" on="1"/>
      </contour>
    </TTGlyph>
    <TTGlyph name="Oacute" xMin="102" yMin="-20" xMax="1398" yMax="1991">
      <contour>
        <pt x="734" y="-20" on="1"/>
        <pt x="602" y="-20" on="0"/>
        <pt x="488" y="24" on="1"/>
        <pt x="374" y="69" on="0"/>
        <pt x="288" y="161" on="1"/>
        <pt x="102" y="361" on="0"/>
        <pt x="102" y="731" on="1"/>
        <pt x="102" y="1117" on="0"/>
        <pt x="294" y="1328" on="1"/>
        <pt x="473" y="1525" on="0"/>
        <pt x="774" y="1525" on="1"/>
        <pt x="1077" y="1524" on="0"/>
        <pt x="1239" y="1310" on="1"/>
        <pt x="1398" y="1100" on="0"/>
        <pt x="1398" y="716" on="1"/>
        <pt x="1398" y="350" on="0"/>
        <pt x="1198" y="154" on="1"/>
        <pt x="1022" y="-20" on="0"/>
      </contour>
      <contour>
        <pt x="581" y="187" on="1"/>
        <pt x="661" y="145" on="0"/>
        <pt x="753" y="145" on="1"/>
        <pt x="844" y="145" on="0"/>
        <pt x="917" y="175" on="1"/>
        <pt x="990" y="206" on="0"/>
        <pt x="1046" y="274" on="1"/>
        <pt x="1168" y="423" on="0"/>
        <pt x="1168" y="729" on="1"/>
        <pt x="1168" y="994" on="0"/>
        <pt x="1046" y="1176" on="1"/>
        <pt x="922" y="1360" on="0"/>
        <pt x="741" y="1360" on="1"/>
        <pt x="566" y="1360" on="0"/>
        <pt x="452" y="1215" on="1"/>
        <pt x="332" y="1064" on="0"/>
        <pt x="332" y="823" on="1"/>
        <pt x="332" y="318" on="0"/>
      </contour>
      <contour>
        <pt x="775" y="1598" on="1"/>
        <pt x="733" y="1598" on="0"/>
        <pt x="712" y="1622" on="1"/>
        <pt x="676" y="1663" on="0"/>
        <pt x="676" y="1706" on="1"/>
        <pt x="949" y="1991" on="1"/>
        <pt x="952" y="1991" on="1"/>
        <pt x="1014" y="1991" on="0"/>
        <pt x="1055" y="1948" on="1"/>
        <pt x="1098" y="1904" on="0"/>
        <pt x="1098" y="1833" on="1"/>
      </contour>
    </TTGlyph>
    <TTGlyph name="Ocircumflex" xMin="102" yMin="-20" xMax="1398" yMax="1914">
      <contour>
        <pt x="734" y="-20" on="1"/>
        <pt x="602" y="-20" on="0"/>
        <pt x="488" y="24" on="1"/>
        <pt x="374" y="69" on="0"/>
        <pt x="288" y="161" on="1"/>
        <pt x="102" y="361" on="0"/>
        <pt x="102" y="731" on="1"/>
        <pt x="102" y="1117" on="0"/>
        <pt x="294" y="1328" on="1"/>
        <pt x="473" y="1525" on="0"/>
        <pt x="774" y="1525" on="1"/>
        <pt x="1077" y="1524" on="0"/>
        <pt x="1239" y="1310" on="1"/>
        <pt x="1398" y="1100" on="0"/>
        <pt x="1398" y="716" on="1"/>
        <pt x="1398" y="350" on="0"/>
        <pt x="1198" y="154" on="1"/>
        <pt x="1022" y="-20" on="0"/>
      </contour>
      <contour>
        <pt x="581" y="187" on="1"/>
        <pt x="661" y="145" on="0"/>
        <pt x="753" y="145" on="1"/>
        <pt x="844" y="145" on="0"/>
        <pt x="917" y="175" on="1"/>
        <pt x="990" y="206" on="0"/>
        <pt x="1046" y="274" on="1"/>
        <pt x="1168" y="423" on="0"/>
        <pt x="1168" y="729" on="1"/>
        <pt x="1168" y="994" on="0"/>
        <pt x="1046" y="1176" on="1"/>
        <pt x="922" y="1360" on="0"/>
        <pt x="741" y="1360" on="1"/>
        <pt x="566" y="1360" on="0"/>
        <pt x="452" y="1215" on="1"/>
        <pt x="332" y="1064" on="0"/>
        <pt x="332" y="823" on="1"/>
        <pt x="332" y="318" on="0"/>
      </contour>
      <contour>
        <pt x="509" y="1609" on="1"/>
        <pt x="475" y="1610" on="0"/>
        <pt x="456" y="1632" on="1"/>
        <pt x="425" y="1670" on="0"/>
        <pt x="425" y="1709" on="1"/>
        <pt x="681" y="1886" on="1"/>
        <pt x="724" y="1914" on="0"/>
        <pt x="752" y="1914" on="1"/>
        <pt x="788" y="1914" on="0"/>
        <pt x="830" y="1886" on="1"/>
        <pt x="1086" y="1709" on="1"/>
        <pt x="1086" y="1646" on="0"/>
        <pt x="1035" y="1618" on="1"/>
        <pt x="1020" y="1610" on="0"/>
        <pt x="1002" y="1609" on="1"/>
        <pt x="757" y="1726" on="1"/>
      </contour>
    </TTGlyph>
    <TTGlyph name="Odieresis" xMin="102" yMin="-20" xMax="1398" yMax="1896">
      <contour>
        <pt x="734" y="-20" on="1"/>
        <pt x="602" y="-20" on="0"/>
        <pt x="488" y="24" on="1"/>
        <pt x="374" y="69" on="0"/>
        <pt x="288" y="161" on="1"/>
        <pt x="102" y="361" on="0"/>
        <pt x="102" y="731" on="1"/>
        <pt x="102" y="1117" on="0"/>
        <pt x="294" y="1328" on="1"/>
        <pt x="473" y="1525" on="0"/>
        <pt x="774" y="1525" on="1"/>
        <pt x="1077" y="1524" on="0"/>
        <pt x="1239" y="1310" on="1"/>
        <pt x="1398" y="1100" on="0"/>
        <pt x="1398" y="716" on="1"/>
        <pt x="1398" y="350" on="0"/>
        <pt x="1198" y="154" on="1"/>
        <pt x="1022" y="-20" on="0"/>
      </contour>
      <contour>
        <pt x="581" y="187" on="1"/>
        <pt x="661" y="145" on="0"/>
        <pt x="753" y="145" on="1"/>
        <pt x="844" y="145" on="0"/>
        <pt x="917" y="175" on="1"/>
        <pt x="990" y="206" on="0"/>
        <pt x="1046" y="274" on="1"/>
        <pt x="1168" y="423" on="0"/>
        <pt x="1168" y="729" on="1"/>
        <pt x="1168" y="994" on="0"/>
        <pt x="1046" y="1176" on="1"/>
        <pt x="922" y="1360" on="0"/>
        <pt x="741" y="1360" on="1"/>
        <pt x="566" y="1360" on="0"/>
        <pt x="452" y="1215" on="1"/>
        <pt x="332" y="1064" on="0"/>
        <pt x="332" y="823" on="1"/>
        <pt x="332" y="318" on="0"/>
      </contour>
      <contour>
        <pt x="386" y="1757" on="1"/>
        <pt x="386" y="1852" on="0"/>
        <pt x="466" y="1886" on="1"/>
        <pt x="490" y="1896" on="0"/>
        <pt x="520" y="1896" on="1"/>
        <pt x="550" y="1896" on="0"/>
        <pt x="576" y="1886" on="1"/>
        <pt x="602" y="1874" on="0"/>
        <pt x="620" y="1856" on="1"/>
        <pt x="659" y="1817" on="0"/>
        <pt x="659" y="1760" on="1"/>
        <pt x="659" y="1754" on="1"/>
        <pt x="659" y="1697" on="0"/>
        <pt x="620" y="1658" on="1"/>
        <pt x="582" y="1620" on="0"/>
        <pt x="536" y="1620" on="1"/>
        <pt x="460" y="1620" on="0"/>
        <pt x="386" y="1698" on="0"/>
      </contour>
      <contour>
        <pt x="974" y="1620" on="1"/>
        <pt x="882" y="1620" on="0"/>
        <pt x="849" y="1702" on="1"/>
        <pt x="839" y="1727" on="0"/>
        <pt x="839" y="1757" on="1"/>
        <pt x="839" y="1852" on="0"/>
        <pt x="919" y="1886" on="1"/>
        <pt x="944" y="1896" on="0"/>
        <pt x="974" y="1896" on="1"/>
        <pt x="1032" y="1896" on="0"/>
        <pt x="1072" y="1856" on="1"/>
        <pt x="1110" y="1818" on="0"/>
        <pt x="1111" y="1757" on="1"/>
        <pt x="1111" y="1663" on="0"/>
        <pt x="1029" y="1630" on="1"/>
        <pt x="1004" y="1620" on="0"/>
      </contour>
    </TTGlyph>
    <TTGlyph name="Ograve" xMin="102" yMin="-20" xMax="1398" yMax="1991">
      <contour>
        <pt x="734" y="-20" on="1"/>
        <pt x="602" y="-20" on="0"/>
        <pt x="488" y="24" on="1"/>
        <pt x="374" y="69" on="0"/>
        <pt x="288" y="161" on="1"/>
        <pt x="102" y="361" on="0"/>
        <pt x="102" y="731" on="1"/>
        <pt x="102" y="1117" on="0"/>
        <pt x="294" y="1328" on="1"/>
        <pt x="473" y="1525" on="0"/>
        <pt x="774" y="1525" on="1"/>
        <pt x="1077" y="1524" on="0"/>
        <pt x="1239" y="1310" on="1"/>
        <pt x="1398" y="1100" on="0"/>
        <pt x="1398" y="716" on="1"/>
        <pt x="1398" y="350" on="0"/>
        <pt x="1198" y="154" on="1"/>
        <pt x="1022" y="-20" on="0"/>
      </contour>
      <contour>
        <pt x="581" y="187" on="1"/>
        <pt x="661" y="145" on="0"/>
        <pt x="753" y="145" on="1"/>
        <pt x="844" y="145" on="0"/>
        <pt x="917" y="175" on="1"/>
        <pt x="990" y="206" on="0"/>
        <pt x="1046" y="274" on="1"/>
        <pt x="1168" y="423" on="0"/>
        <pt x="1168" y="729" on="1"/>
        <pt x="1168" y="994" on="0"/>
        <pt x="1046" y="1176" on="1"/>
        <pt x="922" y="1360" on="0"/>
        <pt x="741" y="1360" on="1"/>
        <pt x="566" y="1360" on="0"/>
        <pt x="452" y="1215" on="1"/>
        <pt x="332" y="1064" on="0"/>
        <pt x="332" y="823" on="1"/>
        <pt x="332" y="318" on="0"/>
      </contour>
      <contour>
        <pt x="379" y="1833" on="1"/>
        <pt x="379" y="1942" on="0"/>
        <pt x="469" y="1980" on="1"/>
        <pt x="494" y="1991" on="0"/>
        <pt x="523" y="1991" on="1"/>
        <pt x="528" y="1991" on="1"/>
        <pt x="801" y="1706" on="1"/>
        <pt x="800" y="1663" on="0"/>
        <pt x="780" y="1640" on="1"/>
        <pt x="744" y="1598" on="0"/>
        <pt x="703" y="1598" on="1"/>
      </contour>
    </TTGlyph>
    <TTGlyph name="Oslash" xMin="63" yMin="-66" xMax="1454" yMax="1532">
      <contour>
        <pt x="1288" y="1506" on="1"/>
        <pt x="1342" y="1532" on="0"/>
        <pt x="1367" y="1532" on="1"/>
        <pt x="1392" y="1532" on="0"/>
        <pt x="1417" y="1530" on="0"/>
        <pt x="1428" y="1528" on="1"/>
        <pt x="1454" y="1522" on="0"/>
        <pt x="1454" y="1506" on="1"/>
        <pt x="248" y="-39" on="1"/>
        <pt x="176" y="-66" on="0"/>
        <pt x="151" y="-66" on="1"/>
        <pt x="112" y="-66" on="1"/>
        <pt x="99" y="-64" on="0"/>
        <pt x="88" y="-62" on="1"/>
        <pt x="63" y="-56" on="0"/>
        <pt x="63" y="-39" on="1"/>
      </contour>
      <contour>
        <pt x="744" y="-20" on="1"/>
        <pt x="612" y="-20" on="0"/>
        <pt x="384" y="69" on="0"/>
        <pt x="298" y="161" on="1"/>
        <pt x="113" y="360" on="0"/>
        <pt x="113" y="727" on="1"/>
        <pt x="113" y="731" on="1"/>
        <pt x="113" y="1117" on="0"/>
        <pt x="305" y="1328" on="1"/>
        <pt x="484" y="1525" on="0"/>
        <pt x="785" y="1525" on="1"/>
        <pt x="1088" y="1524" on="0"/>
        <pt x="1250" y="1310" on="1"/>
        <pt x="1409" y="1100" on="0"/>
        <pt x="1409" y="716" on="1"/>
        <pt x="1409" y="712" on="1"/>
        <pt x="1409" y="349" on="0"/>
        <pt x="1210" y="154" on="1"/>
        <pt x="1032" y="-20" on="0"/>
      </contour>
      <contour>
        <pt x="592" y="187" on="1"/>
        <pt x="672" y="145" on="0"/>
        <pt x="764" y="145" on="1"/>
        <pt x="855" y="145" on="0"/>
        <pt x="928" y="175" on="1"/>
        <pt x="1001" y="206" on="0"/>
        <pt x="1057" y="274" on="1"/>
        <pt x="1179" y="423" on="0"/>
        <pt x="1179" y="729" on="1"/>
        <pt x="1178" y="994" on="0"/>
        <pt x="1056" y="1176" on="1"/>
        <pt x="932" y="1360" on="0"/>
        <pt x="752" y="1360" on="1"/>
        <pt x="576" y="1360" on="0"/>
        <pt x="462" y="1215" on="1"/>
        <pt x="343" y="1065" on="0"/>
        <pt x="343" y="827" on="1"/>
        <pt x="343" y="823" on="1"/>
        <pt x="343" y="318" on="0"/>
      </contour>
    </TTGlyph>
    <TTGlyph name="Otilde" xMin="102" yMin="-20" xMax="1398" yMax="1917">
      <contour>
        <pt x="421" y="1627" on="1"/>
        <pt x="382" y="1628" on="0"/>
        <pt x="362" y="1648" on="1"/>
        <pt x="328" y="1682" on="0"/>
        <pt x="327" y="1719" on="1"/>
        <pt x="392" y="1836" on="0"/>
        <pt x="506" y="1893" on="1"/>
        <pt x="554" y="1917" on="0"/>
        <pt x="606" y="1917" on="1"/>
        <pt x="657" y="1917" on="0"/>
        <pt x="730" y="1872" on="0"/>
        <pt x="800" y="1817" on="0"/>
        <pt x="871" y="1772" on="0"/>
        <pt x="905" y="1772" on="1"/>
        <pt x="938" y="1772" on="0"/>
        <pt x="988" y="1803" on="0"/>
        <pt x="1030" y="1845" on="0"/>
        <pt x="1064" y="1889" on="0"/>
        <pt x="1078" y="1901" on="1"/>
        <pt x="1116" y="1901" on="0"/>
        <pt x="1138" y="1880" on="1"/>
        <pt x="1176" y="1844" on="0"/>
        <pt x="1176" y="1809" on="1"/>
        <pt x="1122" y="1688" on="0"/>
        <pt x="1008" y="1629" on="1"/>
        <pt x="960" y="1604" on="0"/>
        <pt x="912" y="1604" on="1"/>
        <pt x="863" y="1604" on="0"/>
        <pt x="804" y="1624" on="0"/>
        <pt x="752" y="1653" on="0"/>
        <pt x="728" y="1670" on="1"/>
        <pt x="704" y="1688" on="0"/>
        <pt x="682" y="1702" on="1"/>
        <pt x="628" y="1736" on="0"/>
        <pt x="593" y="1737" on="1"/>
        <pt x="590" y="1737" on="1"/>
        <pt x="556" y="1737" on="0"/>
        <pt x="531" y="1723" on="1"/>
        <pt x="504" y="1709" on="0"/>
        <pt x="462" y="1673" on="0"/>
        <pt x="431" y="1636" on="0"/>
      </contour>
      <contour>
        <pt x="734" y="-20" on="1"/>
        <pt x="602" y="-20" on="0"/>
        <pt x="488" y="24" on="1"/>
        <pt x="374" y="69" on="0"/>
        <pt x="288" y="161" on="1"/>
        <pt x="102" y="361" on="0"/>
        <pt x="102" y="731" on="1"/>
        <pt x="102" y="1117" on="0"/>
        <pt x="294" y="1328" on="1"/>
        <pt x="473" y="1525" on="0"/>
        <pt x="774" y="1525" on="1"/>
        <pt x="1077" y="1524" on="0"/>
        <pt x="1239" y="1310" on="1"/>
        <pt x="1398" y="1100" on="0"/>
        <pt x="1398" y="716" on="1"/>
        <pt x="1398" y="350" on="0"/>
        <pt x="1198" y="154" on="1"/>
        <pt x="1022" y="-20" on="0"/>
      </contour>
      <contour>
        <pt x="581" y="187" on="1"/>
        <pt x="661" y="145" on="0"/>
        <pt x="753" y="145" on="1"/>
        <pt x="844" y="145" on="0"/>
        <pt x="917" y="175" on="1"/>
        <pt x="990" y="206" on="0"/>
        <pt x="1046" y="274" on="1"/>
        <pt x="1168" y="423" on="0"/>
        <pt x="1168" y="729" on="1"/>
        <pt x="1168" y="994" on="0"/>
        <pt x="1046" y="1176" on="1"/>
        <pt x="922" y="1360" on="0"/>
        <pt x="741" y="1360" on="1"/>
        <pt x="566" y="1360" on="0"/>
        <pt x="452" y="1215" on="1"/>
        <pt x="332" y="1064" on="0"/>
        <pt x="332" y="823" on="1"/>
        <pt x="332" y="318" on="0"/>
      </contour>
    </TTGlyph>
    <TTGlyph name="P" xMin="73" yMin="0" xMax="1160" yMax="1505">
      <contour>
        <pt x="724" y="141" on="1"/>
        <pt x="750" y="141" on="0"/>
        <pt x="750" y="80" on="1"/>
        <pt x="750" y="32" on="0"/>
        <pt x="720" y="0" on="0"/>
        <pt x="709" y="0" on="1"/>
        <pt x="123" y="0" on="1"/>
        <pt x="99" y="0" on="0"/>
        <pt x="99" y="56" on="1"/>
        <pt x="99" y="59" on="1"/>
        <pt x="99" y="107" on="0"/>
        <pt x="126" y="134" on="1"/>
        <pt x="134" y="142" on="0"/>
        <pt x="158" y="142" on="1"/>
        <pt x="161" y="142" on="1"/>
        <pt x="165" y="141" on="0"/>
        <pt x="170" y="141" on="1"/>
        <pt x="193" y="141" on="0"/>
        <pt x="217" y="144" on="1"/>
        <pt x="246" y="146" on="0"/>
        <pt x="262" y="151" on="1"/>
        <pt x="290" y="160" on="0"/>
        <pt x="290" y="184" on="1"/>
        <pt x="290" y="1349" on="1"/>
        <pt x="290" y="1364" on="0"/>
        <pt x="277" y="1364" on="1"/>
        <pt x="114" y="1364" on="1"/>
        <pt x="86" y="1364" on="0"/>
        <pt x="76" y="1418" on="1"/>
        <pt x="74" y="1432" on="0"/>
        <pt x="73" y="1446" on="1"/>
        <pt x="73" y="1505" on="0"/>
        <pt x="100" y="1505" on="1"/>
        <pt x="656" y="1505" on="1"/>
        <pt x="887" y="1504" on="0"/>
        <pt x="1023" y="1394" on="1"/>
        <pt x="1160" y="1283" on="0"/>
        <pt x="1160" y="1090" on="1"/>
        <pt x="1160" y="629" on="0"/>
        <pt x="501" y="629" on="1"/>
        <pt x="501" y="141" on="1"/>
      </contour>
      <contour>
        <pt x="501" y="783" on="1"/>
        <pt x="711" y="784" on="0"/>
        <pt x="805" y="834" on="1"/>
        <pt x="927" y="899" on="0"/>
        <pt x="927" y="1064" on="1"/>
        <pt x="927" y="1067" on="1"/>
        <pt x="927" y="1233" on="0"/>
        <pt x="828" y="1294" on="1"/>
        <pt x="736" y="1351" on="0"/>
        <pt x="501" y="1351" on="1"/>
      </contour>
    </TTGlyph>
    <TTGlyph name="Q" xMin="103" yMin="-439" xMax="1734" yMax="1525">
      <contour>
        <pt x="1360" y="-439" on="1"/>
        <pt x="997" y="-439" on="0"/>
        <pt x="740" y="-20" on="1"/>
        <pt x="732" y="-20" on="1"/>
        <pt x="456" y="-20" on="0"/>
        <pt x="288" y="162" on="1"/>
        <pt x="103" y="362" on="0"/>
        <pt x="103" y="727" on="1"/>
        <pt x="103" y="731" on="1"/>
        <pt x="103" y="1117" on="0"/>
        <pt x="295" y="1328" on="1"/>
        <pt x="474" y="1525" on="0"/>
        <pt x="775" y="1525" on="1"/>
        <pt x="1078" y="1524" on="0"/>
        <pt x="1240" y="1310" on="1"/>
        <pt x="1399" y="1100" on="0"/>
        <pt x="1399" y="716" on="1"/>
        <pt x="1399" y="306" on="0"/>
        <pt x="1157" y="116" on="1"/>
        <pt x="1083" y="58" on="0"/>
        <pt x="996" y="25" on="1"/>
        <pt x="1161" y="-285" on="0"/>
        <pt x="1388" y="-285" on="1"/>
        <pt x="1496" y="-285" on="0"/>
        <pt x="1636" y="-201" on="1"/>
        <pt x="1643" y="-197" on="0"/>
        <pt x="1654" y="-197" on="1"/>
        <pt x="1664" y="-197" on="0"/>
        <pt x="1678" y="-206" on="1"/>
        <pt x="1694" y="-216" on="0"/>
        <pt x="1706" y="-231" on="1"/>
        <pt x="1734" y="-265" on="0"/>
        <pt x="1734" y="-296" on="1"/>
        <pt x="1734" y="-327" on="0"/>
        <pt x="1690" y="-358" on="0"/>
        <pt x="1657" y="-374" on="1"/>
        <pt x="1624" y="-392" on="0"/>
        <pt x="1579" y="-406" on="1"/>
        <pt x="1478" y="-439" on="0"/>
        <pt x="1367" y="-439" on="1"/>
      </contour>
      <contour>
        <pt x="582" y="187" on="1"/>
        <pt x="662" y="145" on="0"/>
        <pt x="754" y="145" on="1"/>
        <pt x="845" y="145" on="0"/>
        <pt x="918" y="175" on="1"/>
        <pt x="991" y="206" on="0"/>
        <pt x="1047" y="274" on="1"/>
        <pt x="1169" y="423" on="0"/>
        <pt x="1169" y="729" on="1"/>
        <pt x="1168" y="994" on="0"/>
        <pt x="1046" y="1176" on="1"/>
        <pt x="922" y="1360" on="0"/>
        <pt x="742" y="1360" on="1"/>
        <pt x="566" y="1360" on="0"/>
        <pt x="452" y="1215" on="1"/>
        <pt x="333" y="1065" on="0"/>
        <pt x="333" y="827" on="1"/>
        <pt x="333" y="823" on="1"/>
        <pt x="333" y="318" on="0"/>
      </contour>
    </TTGlyph>
    <TTGlyph name="R" xMin="73" yMin="0" xMax="1365" yMax="1505">
      <contour>
        <pt x="724" y="141" on="1"/>
        <pt x="750" y="141" on="0"/>
        <pt x="750" y="80" on="1"/>
        <pt x="750" y="32" on="0"/>
        <pt x="720" y="0" on="0"/>
        <pt x="709" y="0" on="1"/>
        <pt x="123" y="0" on="1"/>
        <pt x="99" y="0" on="0"/>
        <pt x="99" y="56" on="1"/>
        <pt x="99" y="59" on="1"/>
        <pt x="99" y="107" on="0"/>
        <pt x="126" y="134" on="1"/>
        <pt x="134" y="142" on="0"/>
        <pt x="158" y="142" on="1"/>
        <pt x="161" y="142" on="1"/>
        <pt x="165" y="141" on="0"/>
        <pt x="170" y="141" on="1"/>
        <pt x="193" y="141" on="0"/>
        <pt x="217" y="144" on="1"/>
        <pt x="246" y="146" on="0"/>
        <pt x="262" y="151" on="1"/>
        <pt x="290" y="160" on="0"/>
        <pt x="290" y="184" on="1"/>
        <pt x="290" y="1349" on="1"/>
        <pt x="290" y="1364" on="0"/>
        <pt x="277" y="1364" on="1"/>
        <pt x="114" y="1364" on="1"/>
        <pt x="86" y="1364" on="0"/>
        <pt x="76" y="1418" on="1"/>
        <pt x="74" y="1432" on="0"/>
        <pt x="73" y="1446" on="1"/>
        <pt x="73" y="1505" on="0"/>
        <pt x="100" y="1505" on="1"/>
        <pt x="656" y="1505" on="1"/>
        <pt x="887" y="1504" on="0"/>
        <pt x="1023" y="1394" on="1"/>
        <pt x="1160" y="1283" on="0"/>
        <pt x="1160" y="1090" on="1"/>
        <pt x="1160" y="788" on="0"/>
        <pt x="869" y="682" on="1"/>
        <pt x="1149" y="230" on="1"/>
        <pt x="1179" y="181" on="0"/>
        <pt x="1271" y="141" on="0"/>
        <pt x="1341" y="141" on="1"/>
        <pt x="1365" y="141" on="0"/>
        <pt x="1365" y="76" on="1"/>
        <pt x="1365" y="29" on="0"/>
        <pt x="1336" y="0" on="0"/>
        <pt x="1326" y="0" on="1"/>
        <pt x="1156" y="0" on="1"/>
        <pt x="1080" y="0" on="0"/>
        <pt x="1015" y="60" on="1"/>
        <pt x="995" y="78" on="0"/>
        <pt x="981" y="102" on="1"/>
        <pt x="653" y="636" on="1"/>
        <pt x="590" y="629" on="0"/>
        <pt x="501" y="629" on="1"/>
        <pt x="501" y="141" on="1"/>
      </contour>
      <contour>
        <pt x="501" y="783" on="1"/>
        <pt x="711" y="784" on="0"/>
        <pt x="805" y="834" on="1"/>
        <pt x="927" y="899" on="0"/>
        <pt x="927" y="1064" on="1"/>
        <pt x="927" y="1067" on="1"/>
        <pt x="927" y="1233" on="0"/>
        <pt x="828" y="1294" on="1"/>
        <pt x="736" y="1351" on="0"/>
        <pt x="501" y="1351" on="1"/>
      </contour>
    </TTGlyph>
    <TTGlyph name="S" xMin="83" yMin="-20" xMax="1076" yMax="1525">
      <contour>
        <pt x="362" y="169" on="1"/>
        <pt x="427" y="134" on="0"/>
        <pt x="523" y="134" on="1"/>
        <pt x="619" y="134" on="0"/>
        <pt x="677" y="152" on="1"/>
        <pt x="734" y="168" on="0"/>
        <pt x="776" y="200" on="1"/>
        <pt x="864" y="267" on="0"/>
        <pt x="865" y="377" on="1"/>
        <pt x="865" y="378" on="1"/>
        <pt x="865" y="504" on="0"/>
        <pt x="660" y="622" on="1"/>
        <pt x="602" y="656" on="0"/>
        <pt x="534" y="689" on="1"/>
        <pt x="391" y="762" on="1"/>
        <pt x="118" y="906" on="0"/>
        <pt x="118" y="1147" on="1"/>
        <pt x="118" y="1332" on="0"/>
        <pt x="268" y="1434" on="1"/>
        <pt x="402" y="1525" on="0"/>
        <pt x="609" y="1525" on="1"/>
        <pt x="618" y="1525" on="1"/>
        <pt x="772" y="1525" on="0"/>
        <pt x="904" y="1456" on="1"/>
        <pt x="1062" y="1375" on="0"/>
        <pt x="1062" y="1241" on="1"/>
        <pt x="1062" y="1177" on="0"/>
        <pt x="1018" y="1131" on="1"/>
        <pt x="975" y="1087" on="0"/>
        <pt x="909" y="1087" on="1"/>
        <pt x="844" y="1087" on="0"/>
        <pt x="800" y="1131" on="1"/>
        <pt x="755" y="1176" on="0"/>
        <pt x="755" y="1241" on="1"/>
        <pt x="755" y="1294" on="0"/>
        <pt x="784" y="1335" on="1"/>
        <pt x="725" y="1371" on="0"/>
        <pt x="643" y="1371" on="1"/>
        <pt x="560" y="1371" on="0"/>
        <pt x="506" y="1356" on="1"/>
        <pt x="452" y="1342" on="0"/>
        <pt x="412" y="1314" on="1"/>
        <pt x="330" y="1257" on="0"/>
        <pt x="329" y="1151" on="1"/>
        <pt x="329" y="1149" on="1"/>
        <pt x="329" y="1071" on="0"/>
        <pt x="416" y="1008" on="1"/>
        <pt x="458" y="976" on="0"/>
        <pt x="520" y="944" on="1"/>
        <pt x="655" y="874" on="1"/>
        <pt x="876" y="764" on="0"/>
        <pt x="965" y="671" on="1"/>
        <pt x="1076" y="556" on="0"/>
        <pt x="1076" y="395" on="1"/>
        <pt x="1076" y="211" on="0"/>
        <pt x="788" y="-20" on="0"/>
        <pt x="567" y="-20" on="1"/>
        <pt x="397" y="-20" on="0"/>
        <pt x="252" y="51" on="1"/>
        <pt x="83" y="134" on="0"/>
        <pt x="83" y="260" on="1"/>
        <pt x="83" y="326" on="0"/>
        <pt x="173" y="416" on="0"/>
        <pt x="237" y="416" on="1"/>
        <pt x="302" y="416" on="0"/>
        <pt x="346" y="371" on="1"/>
        <pt x="390" y="325" on="0"/>
        <pt x="390" y="272" on="1"/>
        <pt x="390" y="219" on="0"/>
      </contour>
    </TTGlyph>
    <TTGlyph name="T" xMin="18" yMin="0" xMax="1255" yMax="1505">
      <contour>
        <pt x="910" y="141" on="1"/>
        <pt x="937" y="141" on="0"/>
        <pt x="937" y="74" on="1"/>
        <pt x="937" y="31" on="0"/>
        <pt x="906" y="0" on="0"/>
        <pt x="896" y="0" on="1"/>
        <pt x="365" y="0" on="1"/>
        <pt x="341" y="0" on="0"/>
        <pt x="341" y="57" on="1"/>
        <pt x="341" y="108" on="0"/>
        <pt x="368" y="134" on="1"/>
        <pt x="376" y="142" on="0"/>
        <pt x="400" y="142" on="1"/>
        <pt x="403" y="142" on="1"/>
        <pt x="407" y="141" on="0"/>
        <pt x="412" y="141" on="1"/>
        <pt x="435" y="141" on="0"/>
        <pt x="459" y="144" on="1"/>
        <pt x="488" y="146" on="0"/>
        <pt x="504" y="151" on="1"/>
        <pt x="531" y="159" on="0"/>
        <pt x="531" y="184" on="1"/>
        <pt x="531" y="1351" on="1"/>
        <pt x="196" y="1351" on="1"/>
        <pt x="152" y="1203" on="1"/>
        <pt x="143" y="1177" on="0"/>
        <pt x="102" y="1177" on="1"/>
        <pt x="52" y="1178" on="0"/>
        <pt x="26" y="1208" on="1"/>
        <pt x="18" y="1218" on="0"/>
        <pt x="18" y="1228" on="1"/>
        <pt x="18" y="1232" on="1"/>
        <pt x="56" y="1505" on="1"/>
        <pt x="1217" y="1505" on="1"/>
        <pt x="1255" y="1232" on="1"/>
        <pt x="1255" y="1228" on="1"/>
        <pt x="1255" y="1192" on="0"/>
        <pt x="1200" y="1180" on="1"/>
        <pt x="1188" y="1177" on="0"/>
        <pt x="1175" y="1177" on="1"/>
        <pt x="1169" y="1177" on="1"/>
        <pt x="1130" y="1177" on="0"/>
        <pt x="1121" y="1203" on="1"/>
        <pt x="1077" y="1351" on="1"/>
        <pt x="742" y="1351" on="1"/>
        <pt x="742" y="141" on="1"/>
      </contour>
    </TTGlyph>
    <TTGlyph name="Thorn" xMin="74" yMin="0" xMax="1157" yMax="1505">
      <contour>
        <pt x="125" y="0" on="1"/>
        <pt x="100" y="0" on="0"/>
        <pt x="100" y="57" on="1"/>
        <pt x="100" y="106" on="0"/>
        <pt x="128" y="134" on="1"/>
        <pt x="136" y="142" on="0"/>
        <pt x="159" y="142" on="1"/>
        <pt x="163" y="142" on="1"/>
        <pt x="167" y="141" on="0"/>
        <pt x="171" y="141" on="1"/>
        <pt x="194" y="141" on="0"/>
        <pt x="218" y="144" on="1"/>
        <pt x="247" y="146" on="0"/>
        <pt x="263" y="151" on="1"/>
        <pt x="291" y="160" on="0"/>
        <pt x="291" y="184" on="1"/>
        <pt x="291" y="1348" on="1"/>
        <pt x="291" y="1364" on="0"/>
        <pt x="278" y="1364" on="1"/>
        <pt x="115" y="1364" on="1"/>
        <pt x="86" y="1364" on="0"/>
        <pt x="76" y="1418" on="1"/>
        <pt x="74" y="1432" on="0"/>
        <pt x="74" y="1446" on="1"/>
        <pt x="74" y="1505" on="0"/>
        <pt x="100" y="1505" on="1"/>
        <pt x="692" y="1505" on="1"/>
        <pt x="717" y="1505" on="0"/>
        <pt x="717" y="1435" on="1"/>
        <pt x="717" y="1364" on="0"/>
        <pt x="682" y="1364" on="1"/>
        <pt x="502" y="1364" on="1"/>
        <pt x="502" y="1182" on="1"/>
        <pt x="655" y="1182" on="1"/>
        <pt x="1016" y="1182" on="0"/>
        <pt x="1122" y="964" on="1"/>
        <pt x="1157" y="894" on="0"/>
        <pt x="1157" y="800" on="1"/>
        <pt x="1157" y="795" on="1"/>
        <pt x="1157" y="334" on="0"/>
        <pt x="502" y="334" on="1"/>
        <pt x="502" y="141" on="1"/>
        <pt x="670" y="141" on="1"/>
        <pt x="696" y="141" on="0"/>
        <pt x="696" y="80" on="1"/>
        <pt x="696" y="32" on="0"/>
        <pt x="666" y="0" on="0"/>
        <pt x="655" y="0" on="1"/>
      </contour>
      <contour>
        <pt x="924" y="752" on="1"/>
        <pt x="924" y="836" on="0"/>
        <pt x="856" y="944" on="0"/>
        <pt x="798" y="974" on="1"/>
        <pt x="697" y="1028" on="0"/>
        <pt x="502" y="1028" on="1"/>
        <pt x="502" y="488" on="1"/>
        <pt x="708" y="488" on="0"/>
        <pt x="804" y="536" on="1"/>
        <pt x="924" y="598" on="0"/>
      </contour>
    </TTGlyph>
    <TTGlyph name="U" xMin="41" yMin="-20" xMax="1496" yMax="1505">
      <contour>
        <pt x="1291" y="555" on="1"/>
        <pt x="1291" y="-20" on="0"/>
        <pt x="772" y="-20" on="1"/>
        <pt x="492" y="-20" on="0"/>
        <pt x="370" y="132" on="1"/>
        <pt x="258" y="271" on="0"/>
        <pt x="258" y="569" on="1"/>
        <pt x="258" y="1348" on="1"/>
        <pt x="258" y="1364" on="0"/>
        <pt x="245" y="1364" on="1"/>
        <pt x="82" y="1364" on="1"/>
        <pt x="54" y="1364" on="0"/>
        <pt x="44" y="1418" on="1"/>
        <pt x="42" y="1432" on="0"/>
        <pt x="41" y="1444" on="1"/>
        <pt x="41" y="1505" on="0"/>
        <pt x="67" y="1505" on="1"/>
        <pt x="639" y="1505" on="1"/>
        <pt x="664" y="1505" on="0"/>
        <pt x="664" y="1435" on="1"/>
        <pt x="664" y="1364" on="0"/>
        <pt x="629" y="1364" on="1"/>
        <pt x="469" y="1364" on="1"/>
        <pt x="469" y="578" on="1"/>
        <pt x="469" y="237" on="0"/>
        <pt x="663" y="167" on="1"/>
        <pt x="724" y="145" on="0"/>
        <pt x="804" y="145" on="1"/>
        <pt x="884" y="145" on="0"/>
        <pt x="1008" y="196" on="0"/>
        <pt x="1048" y="249" on="1"/>
        <pt x="1126" y="352" on="0"/>
        <pt x="1126" y="575" on="1"/>
        <pt x="1126" y="1348" on="1"/>
        <pt x="1126" y="1364" on="0"/>
        <pt x="1113" y="1364" on="1"/>
        <pt x="969" y="1364" on="1"/>
        <pt x="940" y="1364" on="0"/>
        <pt x="930" y="1418" on="1"/>
        <pt x="928" y="1432" on="0"/>
        <pt x="928" y="1446" on="1"/>
        <pt x="928" y="1505" on="0"/>
        <pt x="954" y="1505" on="1"/>
        <pt x="1470" y="1505" on="1"/>
        <pt x="1496" y="1505" on="0"/>
        <pt x="1496" y="1441" on="1"/>
        <pt x="1496" y="1393" on="0"/>
        <pt x="1469" y="1364" on="0"/>
        <pt x="1460" y="1364" on="1"/>
        <pt x="1291" y="1364" on="1"/>
      </contour>
    </TTGlyph>
    <TTGlyph name="Uacute" xMin="41" yMin="-20" xMax="1496" yMax="1991">
      <contour>
        <pt x="1291" y="555" on="1"/>
        <pt x="1291" y="-20" on="0"/>
        <pt x="772" y="-20" on="1"/>
        <pt x="492" y="-20" on="0"/>
        <pt x="370" y="132" on="1"/>
        <pt x="258" y="271" on="0"/>
        <pt x="258" y="569" on="1"/>
        <pt x="258" y="1348" on="1"/>
        <pt x="258" y="1364" on="0"/>
        <pt x="245" y="1364" on="1"/>
        <pt x="82" y="1364" on="1"/>
        <pt x="54" y="1364" on="0"/>
        <pt x="44" y="1418" on="1"/>
        <pt x="42" y="1432" on="0"/>
        <pt x="41" y="1444" on="1"/>
        <pt x="41" y="1505" on="0"/>
        <pt x="67" y="1505" on="1"/>
        <pt x="639" y="1505" on="1"/>
        <pt x="664" y="1505" on="0"/>
        <pt x="664" y="1435" on="1"/>
        <pt x="664" y="1364" on="0"/>
        <pt x="629" y="1364" on="1"/>
        <pt x="469" y="1364" on="1"/>
        <pt x="469" y="578" on="1"/>
        <pt x="469" y="237" on="0"/>
        <pt x="663" y="167" on="1"/>
        <pt x="724" y="145" on="0"/>
        <pt x="804" y="145" on="1"/>
        <pt x="884" y="145" on="0"/>
        <pt x="1008" y="196" on="0"/>
        <pt x="1048" y="249" on="1"/>
        <pt x="1126" y="352" on="0"/>
        <pt x="1126" y="575" on="1"/>
        <pt x="1126" y="1348" on="1"/>
        <pt x="1126" y="1364" on="0"/>
        <pt x="1113" y="1364" on="1"/>
        <pt x="969" y="1364" on="1"/>
        <pt x="940" y="1364" on="0"/>
        <pt x="930" y="1418" on="1"/>
        <pt x="928" y="1432" on="0"/>
        <pt x="928" y="1446" on="1"/>
        <pt x="928" y="1505" on="0"/>
        <pt x="954" y="1505" on="1"/>
        <pt x="1470" y="1505" on="1"/>
        <pt x="1496" y="1505" on="0"/>
        <pt x="1496" y="1441" on="1"/>
        <pt x="1496" y="1393" on="0"/>
        <pt x="1469" y="1364" on="0"/>
        <pt x="1460" y="1364" on="1"/>
        <pt x="1291" y="1364" on="1"/>
      </contour>
      <contour>
        <pt x="857" y="1598" on="1"/>
        <pt x="815" y="1598" on="0"/>
        <pt x="794" y="1622" on="1"/>
        <pt x="758" y="1663" on="0"/>
        <pt x="758" y="1706" on="1"/>
        <pt x="1031" y="1991" on="1"/>
        <pt x="1034" y="1991" on="1"/>
        <pt x="1096" y="1991" on="0"/>
        <pt x="1137" y="1948" on="1"/>
        <pt x="1180" y="1904" on="0"/>
        <pt x="1180" y="1833" on="1"/>
      </contour>
    </TTGlyph>
    <TTGlyph name="Ucircumflex" xMin="41" yMin="-20" xMax="1496" yMax="1914">
      <contour>
        <pt x="1291" y="555" on="1"/>
        <pt x="1291" y="-20" on="0"/>
        <pt x="772" y="-20" on="1"/>
        <pt x="492" y="-20" on="0"/>
        <pt x="370" y="132" on="1"/>
        <pt x="258" y="271" on="0"/>
        <pt x="258" y="569" on="1"/>
        <pt x="258" y="1348" on="1"/>
        <pt x="258" y="1364" on="0"/>
        <pt x="245" y="1364" on="1"/>
        <pt x="82" y="1364" on="1"/>
        <pt x="54" y="1364" on="0"/>
        <pt x="44" y="1418" on="1"/>
        <pt x="42" y="1432" on="0"/>
        <pt x="41" y="1444" on="1"/>
        <pt x="41" y="1505" on="0"/>
        <pt x="67" y="1505" on="1"/>
        <pt x="639" y="1505" on="1"/>
        <pt x="664" y="1505" on="0"/>
        <pt x="664" y="1435" on="1"/>
        <pt x="664" y="1364" on="0"/>
        <pt x="629" y="1364" on="1"/>
        <pt x="469" y="1364" on="1"/>
        <pt x="469" y="578" on="1"/>
        <pt x="469" y="237" on="0"/>
        <pt x="663" y="167" on="1"/>
        <pt x="724" y="145" on="0"/>
        <pt x="804" y="145" on="1"/>
        <pt x="884" y="145" on="0"/>
        <pt x="1008" y="196" on="0"/>
        <pt x="1048" y="249" on="1"/>
        <pt x="1126" y="352" on="0"/>
        <pt x="1126" y="575" on="1"/>
        <pt x="1126" y="1348" on="1"/>
        <pt x="1126" y="1364" on="0"/>
        <pt x="1113" y="1364" on="1"/>
        <pt x="969" y="1364" on="1"/>
        <pt x="940" y="1364" on="0"/>
        <pt x="930" y="1418" on="1"/>
        <pt x="928" y="1432" on="0"/>
        <pt x="928" y="1446" on="1"/>
        <pt x="928" y="1505" on="0"/>
        <pt x="954" y="1505" on="1"/>
        <pt x="1470" y="1505" on="1"/>
        <pt x="1496" y="1505" on="0"/>
        <pt x="1496" y="1441" on="1"/>
        <pt x="1496" y="1393" on="0"/>
        <pt x="1469" y="1364" on="0"/>
        <pt x="1460" y="1364" on="1"/>
        <pt x="1291" y="1364" on="1"/>
      </contour>
      <contour>
        <pt x="556" y="1609" on="1"/>
        <pt x="522" y="1610" on="0"/>
        <pt x="503" y="1632" on="1"/>
        <pt x="472" y="1670" on="0"/>
        <pt x="472" y="1709" on="1"/>
        <pt x="728" y="1886" on="1"/>
        <pt x="770" y="1914" on="0"/>
        <pt x="798" y="1914" on="1"/>
        <pt x="834" y="1914" on="0"/>
        <pt x="877" y="1886" on="1"/>
        <pt x="1133" y="1709" on="1"/>
        <pt x="1133" y="1646" on="0"/>
        <pt x="1082" y="1618" on="1"/>
        <pt x="1067" y="1610" on="0"/>
        <pt x="1049" y="1609" on="1"/>
        <pt x="804" y="1726" on="1"/>
      </contour>
    </TTGlyph>
    <TTGlyph name="Udieresis" xMin="41" yMin="-20" xMax="1496" yMax="1896">
      <contour>
        <pt x="1291" y="555" on="1"/>
        <pt x="1291" y="-20" on="0"/>
        <pt x="772" y="-20" on="1"/>
        <pt x="492" y="-20" on="0"/>
        <pt x="370" y="132" on="1"/>
        <pt x="258" y="271" on="0"/>
        <pt x="258" y="569" on="1"/>
        <pt x="258" y="1348" on="1"/>
        <pt x="258" y="1364" on="0"/>
        <pt x="245" y="1364" on="1"/>
        <pt x="82" y="1364" on="1"/>
        <pt x="54" y="1364" on="0"/>
        <pt x="44" y="1418" on="1"/>
        <pt x="42" y="1432" on="0"/>
        <pt x="41" y="1444" on="1"/>
        <pt x="41" y="1505" on="0"/>
        <pt x="67" y="1505" on="1"/>
        <pt x="639" y="1505" on="1"/>
        <pt x="664" y="1505" on="0"/>
        <pt x="664" y="1435" on="1"/>
        <pt x="664" y="1364" on="0"/>
        <pt x="629" y="1364" on="1"/>
        <pt x="469" y="1364" on="1"/>
        <pt x="469" y="578" on="1"/>
        <pt x="469" y="237" on="0"/>
        <pt x="663" y="167" on="1"/>
        <pt x="724" y="145" on="0"/>
        <pt x="804" y="145" on="1"/>
        <pt x="884" y="145" on="0"/>
        <pt x="1008" y="196" on="0"/>
        <pt x="1048" y="249" on="1"/>
        <pt x="1126" y="352" on="0"/>
        <pt x="1126" y="575" on="1"/>
        <pt x="1126" y="1348" on="1"/>
        <pt x="1126" y="1364" on="0"/>
        <pt x="1113" y="1364" on="1"/>
        <pt x="969" y="1364" on="1"/>
        <pt x="940" y="1364" on="0"/>
        <pt x="930" y="1418" on="1"/>
        <pt x="928" y="1432" on="0"/>
        <pt x="928" y="1446" on="1"/>
        <pt x="928" y="1505" on="0"/>
        <pt x="954" y="1505" on="1"/>
        <pt x="1470" y="1505" on="1"/>
        <pt x="1496" y="1505" on="0"/>
        <pt x="1496" y="1441" on="1"/>
        <pt x="1496" y="1393" on="0"/>
        <pt x="1469" y="1364" on="0"/>
        <pt x="1460" y="1364" on="1"/>
        <pt x="1291" y="1364" on="1"/>
      </contour>
      <contour>
        <pt x="445" y="1757" on="1"/>
        <pt x="445" y="1759" on="1"/>
        <pt x="445" y="1852" on="0"/>
        <pt x="524" y="1886" on="1"/>
        <pt x="548" y="1896" on="0"/>
        <pt x="579" y="1896" on="1"/>
        <pt x="609" y="1896" on="0"/>
        <pt x="634" y="1886" on="1"/>
        <pt x="660" y="1874" on="0"/>
        <pt x="678" y="1856" on="1"/>
        <pt x="718" y="1816" on="0"/>
        <pt x="718" y="1757" on="1"/>
        <pt x="718" y="1698" on="0"/>
        <pt x="678" y="1658" on="1"/>
        <pt x="640" y="1620" on="0"/>
        <pt x="594" y="1620" on="1"/>
        <pt x="518" y="1620" on="0"/>
        <pt x="445" y="1698" on="0"/>
      </contour>
      <contour>
        <pt x="1033" y="1620" on="1"/>
        <pt x="941" y="1620" on="0"/>
        <pt x="908" y="1702" on="1"/>
        <pt x="898" y="1727" on="0"/>
        <pt x="898" y="1757" on="1"/>
        <pt x="898" y="1852" on="0"/>
        <pt x="978" y="1886" on="1"/>
        <pt x="1003" y="1896" on="0"/>
        <pt x="1033" y="1896" on="1"/>
        <pt x="1092" y="1896" on="0"/>
        <pt x="1132" y="1856" on="1"/>
        <pt x="1170" y="1818" on="0"/>
        <pt x="1170" y="1757" on="1"/>
        <pt x="1170" y="1663" on="0"/>
        <pt x="1088" y="1630" on="1"/>
        <pt x="1063" y="1620" on="0"/>
      </contour>
    </TTGlyph>
    <TTGlyph name="Ugrave" xMin="41" yMin="-20" xMax="1496" yMax="1991">
      <contour>
        <pt x="1291" y="555" on="1"/>
        <pt x="1291" y="-20" on="0"/>
        <pt x="772" y="-20" on="1"/>
        <pt x="492" y="-20" on="0"/>
        <pt x="370" y="132" on="1"/>
        <pt x="258" y="271" on="0"/>
        <pt x="258" y="569" on="1"/>
        <pt x="258" y="1348" on="1"/>
        <pt x="258" y="1364" on="0"/>
        <pt x="245" y="1364" on="1"/>
        <pt x="82" y="1364" on="1"/>
        <pt x="54" y="1364" on="0"/>
        <pt x="44" y="1418" on="1"/>
        <pt x="42" y="1432" on="0"/>
        <pt x="41" y="1444" on="1"/>
        <pt x="41" y="1505" on="0"/>
        <pt x="67" y="1505" on="1"/>
        <pt x="639" y="1505" on="1"/>
        <pt x="664" y="1505" on="0"/>
        <pt x="664" y="1435" on="1"/>
        <pt x="664" y="1364" on="0"/>
        <pt x="629" y="1364" on="1"/>
        <pt x="469" y="1364" on="1"/>
        <pt x="469" y="578" on="1"/>
        <pt x="469" y="237" on="0"/>
        <pt x="663" y="167" on="1"/>
        <pt x="724" y="145" on="0"/>
        <pt x="804" y="145" on="1"/>
        <pt x="884" y="145" on="0"/>
        <pt x="1008" y="196" on="0"/>
        <pt x="1048" y="249" on="1"/>
        <pt x="1126" y="352" on="0"/>
        <pt x="1126" y="575" on="1"/>
        <pt x="1126" y="1348" on="1"/>
        <pt x="1126" y="1364" on="0"/>
        <pt x="1113" y="1364" on="1"/>
        <pt x="969" y="1364" on="1"/>
        <pt x="940" y="1364" on="0"/>
        <pt x="930" y="1418" on="1"/>
        <pt x="928" y="1432" on="0"/>
        <pt x="928" y="1446" on="1"/>
        <pt x="928" y="1505" on="0"/>
        <pt x="954" y="1505" on="1"/>
        <pt x="1470" y="1505" on="1"/>
        <pt x="1496" y="1505" on="0"/>
        <pt x="1496" y="1441" on="1"/>
        <pt x="1496" y="1393" on="0"/>
        <pt x="1469" y="1364" on="0"/>
        <pt x="1460" y="1364" on="1"/>
        <pt x="1291" y="1364" on="1"/>
      </contour>
      <contour>
        <pt x="447" y="1833" on="1"/>
        <pt x="447" y="1942" on="0"/>
        <pt x="537" y="1980" on="1"/>
        <pt x="562" y="1991" on="0"/>
        <pt x="591" y="1991" on="1"/>
        <pt x="596" y="1991" on="1"/>
        <pt x="869" y="1706" on="1"/>
        <pt x="868" y="1663" on="0"/>
        <pt x="848" y="1640" on="1"/>
        <pt x="812" y="1598" on="0"/>
        <pt x="771" y="1598" on="1"/>
      </contour>
    </TTGlyph>
    <TTGlyph name="V" xMin="-19" yMin="-20" xMax="1437" yMax="1505">
      <contour>
        <pt x="1412" y="1505" on="1"/>
        <pt x="1437" y="1505" on="0"/>
        <pt x="1437" y="1448" on="1"/>
        <pt x="1437" y="1396" on="0"/>
        <pt x="1413" y="1372" on="1"/>
        <pt x="1404" y="1364" on="0"/>
        <pt x="1376" y="1364" on="1"/>
        <pt x="1300" y="1364" on="0"/>
        <pt x="1280" y="1307" on="1"/>
        <pt x="777" y="0" on="1"/>
        <pt x="769" y="-20" on="0"/>
        <pt x="716" y="-20" on="1"/>
        <pt x="667" y="-20" on="0"/>
        <pt x="657" y="0" on="1"/>
        <pt x="117" y="1364" on="1"/>
        <pt x="7" y="1364" on="1"/>
        <pt x="-19" y="1364" on="0"/>
        <pt x="-19" y="1424" on="1"/>
        <pt x="-19" y="1473" on="0"/>
        <pt x="9" y="1505" on="0"/>
        <pt x="20" y="1505" on="1"/>
        <pt x="505" y="1505" on="1"/>
        <pt x="530" y="1505" on="0"/>
        <pt x="530" y="1450" on="1"/>
        <pt x="530" y="1397" on="0"/>
        <pt x="499" y="1364" on="0"/>
        <pt x="489" y="1364" on="1"/>
        <pt x="365" y="1364" on="0"/>
        <pt x="365" y="1340" on="1"/>
        <pt x="365" y="1331" on="0"/>
        <pt x="373" y="1315" on="1"/>
        <pt x="744" y="348" on="1"/>
        <pt x="1119" y="1364" on="1"/>
        <pt x="966" y="1364" on="1"/>
        <pt x="940" y="1364" on="0"/>
        <pt x="940" y="1422" on="1"/>
        <pt x="940" y="1474" on="0"/>
        <pt x="967" y="1505" on="0"/>
        <pt x="976" y="1505" on="1"/>
      </contour>
    </TTGlyph>
    <TTGlyph name="W" xMin="-37" yMin="-20" xMax="2048" yMax="1505">
      <contour>
        <pt x="2023" y="1505" on="1"/>
        <pt x="2048" y="1505" on="0"/>
        <pt x="2048" y="1448" on="1"/>
        <pt x="2048" y="1396" on="0"/>
        <pt x="2024" y="1372" on="1"/>
        <pt x="2016" y="1364" on="0"/>
        <pt x="1988" y="1364" on="1"/>
        <pt x="1914" y="1364" on="0"/>
        <pt x="1891" y="1307" on="1"/>
        <pt x="1481" y="0" on="1"/>
        <pt x="1475" y="-20" on="0"/>
        <pt x="1440" y="-20" on="1"/>
        <pt x="1369" y="-20" on="0"/>
        <pt x="1361" y="0" on="1"/>
        <pt x="1030" y="848" on="1"/>
        <pt x="753" y="0" on="1"/>
        <pt x="747" y="-20" on="0"/>
        <pt x="698" y="-20" on="1"/>
        <pt x="649" y="-20" on="0"/>
        <pt x="639" y="0" on="1"/>
        <pt x="98" y="1364" on="1"/>
        <pt x="-11" y="1364" on="1"/>
        <pt x="-37" y="1364" on="0"/>
        <pt x="-37" y="1424" on="1"/>
        <pt x="-37" y="1473" on="0"/>
        <pt x="-9" y="1505" on="0"/>
        <pt x="2" y="1505" on="1"/>
        <pt x="487" y="1505" on="1"/>
        <pt x="512" y="1505" on="0"/>
        <pt x="512" y="1450" on="1"/>
        <pt x="512" y="1397" on="0"/>
        <pt x="481" y="1364" on="0"/>
        <pt x="471" y="1364" on="1"/>
        <pt x="347" y="1364" on="0"/>
        <pt x="347" y="1340" on="1"/>
        <pt x="347" y="1331" on="0"/>
        <pt x="355" y="1315" on="1"/>
        <pt x="715" y="376" on="1"/>
        <pt x="944" y="1067" on="1"/>
        <pt x="828" y="1364" on="1"/>
        <pt x="711" y="1364" on="1"/>
        <pt x="685" y="1364" on="0"/>
        <pt x="685" y="1424" on="1"/>
        <pt x="685" y="1473" on="0"/>
        <pt x="713" y="1505" on="0"/>
        <pt x="724" y="1505" on="1"/>
        <pt x="1209" y="1505" on="1"/>
        <pt x="1234" y="1505" on="0"/>
        <pt x="1234" y="1450" on="1"/>
        <pt x="1234" y="1397" on="0"/>
        <pt x="1203" y="1364" on="0"/>
        <pt x="1193" y="1364" on="1"/>
        <pt x="1069" y="1364" on="0"/>
        <pt x="1069" y="1340" on="1"/>
        <pt x="1069" y="1331" on="0"/>
        <pt x="1077" y="1315" on="1"/>
        <pt x="1436" y="376" on="1"/>
        <pt x="1733" y="1364" on="1"/>
        <pt x="1577" y="1364" on="1"/>
        <pt x="1551" y="1364" on="0"/>
        <pt x="1551" y="1422" on="1"/>
        <pt x="1551" y="1474" on="0"/>
        <pt x="1578" y="1505" on="0"/>
        <pt x="1587" y="1505" on="1"/>
      </contour>
    </TTGlyph>
    <TTGlyph name="X" xMin="17" yMin="0" xMax="1370" yMax="1505">
      <contour>
        <pt x="1344" y="141" on="1"/>
        <pt x="1370" y="141" on="0"/>
        <pt x="1370" y="80" on="1"/>
        <pt x="1370" y="32" on="0"/>
        <pt x="1340" y="0" on="0"/>
        <pt x="1329" y="0" on="1"/>
        <pt x="801" y="0" on="1"/>
        <pt x="774" y="0" on="0"/>
        <pt x="774" y="61" on="1"/>
        <pt x="774" y="108" on="0"/>
        <pt x="802" y="134" on="1"/>
        <pt x="810" y="141" on="0"/>
        <pt x="816" y="141" on="1"/>
        <pt x="945" y="141" on="1"/>
        <pt x="646" y="618" on="1"/>
        <pt x="371" y="171" on="1"/>
        <pt x="364" y="161" on="0"/>
        <pt x="364" y="154" on="1"/>
        <pt x="364" y="141" on="0"/>
        <pt x="382" y="141" on="1"/>
        <pt x="487" y="141" on="1"/>
        <pt x="513" y="141" on="0"/>
        <pt x="513" y="81" on="1"/>
        <pt x="513" y="32" on="0"/>
        <pt x="483" y="0" on="0"/>
        <pt x="472" y="0" on="1"/>
        <pt x="43" y="0" on="1"/>
        <pt x="17" y="0" on="0"/>
        <pt x="17" y="61" on="1"/>
        <pt x="17" y="108" on="0"/>
        <pt x="43" y="134" on="1"/>
        <pt x="50" y="141" on="0"/>
        <pt x="71" y="141" on="1"/>
        <pt x="92" y="141" on="0"/>
        <pt x="141" y="150" on="0"/>
        <pt x="158" y="158" on="1"/>
        <pt x="186" y="170" on="0"/>
        <pt x="205" y="196" on="1"/>
        <pt x="554" y="765" on="1"/>
        <pt x="179" y="1364" on="1"/>
        <pt x="57" y="1364" on="1"/>
        <pt x="30" y="1364" on="0"/>
        <pt x="30" y="1422" on="1"/>
        <pt x="30" y="1472" on="0"/>
        <pt x="59" y="1505" on="0"/>
        <pt x="69" y="1505" on="1"/>
        <pt x="580" y="1505" on="1"/>
        <pt x="603" y="1505" on="0"/>
        <pt x="603" y="1448" on="1"/>
        <pt x="603" y="1395" on="0"/>
        <pt x="572" y="1364" on="0"/>
        <pt x="561" y="1364" on="1"/>
        <pt x="450" y="1364" on="0"/>
        <pt x="450" y="1342" on="1"/>
        <pt x="450" y="1335" on="0"/>
        <pt x="459" y="1317" on="1"/>
        <pt x="716" y="906" on="1"/>
        <pt x="1034" y="1364" on="1"/>
        <pt x="869" y="1364" on="1"/>
        <pt x="843" y="1364" on="0"/>
        <pt x="843" y="1423" on="1"/>
        <pt x="843" y="1474" on="0"/>
        <pt x="870" y="1505" on="0"/>
        <pt x="879" y="1505" on="1"/>
        <pt x="1320" y="1505" on="1"/>
        <pt x="1344" y="1505" on="0"/>
        <pt x="1344" y="1447" on="1"/>
        <pt x="1344" y="1396" on="0"/>
        <pt x="1314" y="1364" on="0"/>
        <pt x="1304" y="1364" on="1"/>
        <pt x="1232" y="1364" on="0"/>
        <pt x="1194" y="1321" on="1"/>
        <pt x="807" y="761" on="1"/>
        <pt x="1156" y="204" on="1"/>
        <pt x="1190" y="148" on="0"/>
        <pt x="1290" y="142" on="1"/>
        <pt x="1309" y="141" on="0"/>
        <pt x="1327" y="141" on="1"/>
      </contour>
    </TTGlyph>
    <TTGlyph name="Y" xMin="-31" yMin="0" xMax="1301" yMax="1505">
      <contour>
        <pt x="268" y="0" on="1"/>
        <pt x="243" y="0" on="0"/>
        <pt x="243" y="57" on="1"/>
        <pt x="243" y="60" on="1"/>
        <pt x="243" y="107" on="0"/>
        <pt x="270" y="134" on="1"/>
        <pt x="277" y="141" on="0"/>
        <pt x="284" y="141" on="1"/>
        <pt x="435" y="141" on="1"/>
        <pt x="526" y="141" on="0"/>
        <pt x="540" y="166" on="1"/>
        <pt x="544" y="174" on="0"/>
        <pt x="544" y="184" on="1"/>
        <pt x="544" y="559" on="1"/>
        <pt x="107" y="1364" on="1"/>
        <pt x="-5" y="1364" on="1"/>
        <pt x="-31" y="1364" on="0"/>
        <pt x="-31" y="1424" on="1"/>
        <pt x="-31" y="1473" on="0"/>
        <pt x="-3" y="1505" on="0"/>
        <pt x="8" y="1505" on="1"/>
        <pt x="501" y="1505" on="1"/>
        <pt x="526" y="1505" on="0"/>
        <pt x="526" y="1448" on="1"/>
        <pt x="526" y="1396" on="0"/>
        <pt x="496" y="1364" on="0"/>
        <pt x="485" y="1364" on="1"/>
        <pt x="379" y="1364" on="0"/>
        <pt x="379" y="1329" on="1"/>
        <pt x="379" y="1319" on="0"/>
        <pt x="385" y="1307" on="1"/>
        <pt x="670" y="735" on="1"/>
        <pt x="986" y="1364" on="1"/>
        <pt x="830" y="1364" on="1"/>
        <pt x="804" y="1364" on="0"/>
        <pt x="804" y="1422" on="1"/>
        <pt x="804" y="1474" on="0"/>
        <pt x="831" y="1505" on="0"/>
        <pt x="840" y="1505" on="1"/>
        <pt x="1276" y="1505" on="1"/>
        <pt x="1301" y="1505" on="0"/>
        <pt x="1301" y="1448" on="1"/>
        <pt x="1301" y="1396" on="0"/>
        <pt x="1277" y="1372" on="1"/>
        <pt x="1268" y="1364" on="0"/>
        <pt x="1240" y="1364" on="1"/>
        <pt x="1174" y="1364" on="0"/>
        <pt x="1152" y="1321" on="1"/>
        <pt x="755" y="559" on="1"/>
        <pt x="755" y="141" on="1"/>
        <pt x="1000" y="141" on="1"/>
        <pt x="1026" y="141" on="0"/>
        <pt x="1026" y="80" on="1"/>
        <pt x="1026" y="32" on="0"/>
        <pt x="996" y="0" on="0"/>
        <pt x="985" y="0" on="1"/>
      </contour>
    </TTGlyph>
    <TTGlyph name="Yacute" xMin="-31" yMin="0" xMax="1301" yMax="1991">
      <contour>
        <pt x="268" y="0" on="1"/>
        <pt x="243" y="0" on="0"/>
        <pt x="243" y="57" on="1"/>
        <pt x="243" y="60" on="1"/>
        <pt x="243" y="107" on="0"/>
        <pt x="270" y="134" on="1"/>
        <pt x="277" y="141" on="0"/>
        <pt x="284" y="141" on="1"/>
        <pt x="435" y="141" on="1"/>
        <pt x="526" y="141" on="0"/>
        <pt x="540" y="166" on="1"/>
        <pt x="544" y="174" on="0"/>
        <pt x="544" y="184" on="1"/>
        <pt x="544" y="559" on="1"/>
        <pt x="107" y="1364" on="1"/>
        <pt x="-5" y="1364" on="1"/>
        <pt x="-31" y="1364" on="0"/>
        <pt x="-31" y="1424" on="1"/>
        <pt x="-31" y="1473" on="0"/>
        <pt x="-3" y="1505" on="0"/>
        <pt x="8" y="1505" on="1"/>
        <pt x="501" y="1505" on="1"/>
        <pt x="526" y="1505" on="0"/>
        <pt x="526" y="1448" on="1"/>
        <pt x="526" y="1396" on="0"/>
        <pt x="496" y="1364" on="0"/>
        <pt x="485" y="1364" on="1"/>
        <pt x="379" y="1364" on="0"/>
        <pt x="379" y="1329" on="1"/>
        <pt x="379" y="1319" on="0"/>
        <pt x="385" y="1307" on="1"/>
        <pt x="670" y="735" on="1"/>
        <pt x="986" y="1364" on="1"/>
        <pt x="830" y="1364" on="1"/>
        <pt x="804" y="1364" on="0"/>
        <pt x="804" y="1422" on="1"/>
        <pt x="804" y="1474" on="0"/>
        <pt x="831" y="1505" on="0"/>
        <pt x="840" y="1505" on="1"/>
        <pt x="1276" y="1505" on="1"/>
        <pt x="1301" y="1505" on="0"/>
        <pt x="1301" y="1448" on="1"/>
        <pt x="1301" y="1396" on="0"/>
        <pt x="1277" y="1372" on="1"/>
        <pt x="1268" y="1364" on="0"/>
        <pt x="1240" y="1364" on="1"/>
        <pt x="1174" y="1364" on="0"/>
        <pt x="1152" y="1321" on="1"/>
        <pt x="755" y="559" on="1"/>
        <pt x="755" y="141" on="1"/>
        <pt x="1000" y="141" on="1"/>
        <pt x="1026" y="141" on="0"/>
        <pt x="1026" y="80" on="1"/>
        <pt x="1026" y="32" on="0"/>
        <pt x="996" y="0" on="0"/>
        <pt x="985" y="0" on="1"/>
      </contour>
      <contour>
        <pt x="721" y="1598" on="1"/>
        <pt x="679" y="1598" on="0"/>
        <pt x="658" y="1622" on="1"/>
        <pt x="622" y="1663" on="0"/>
        <pt x="622" y="1706" on="1"/>
        <pt x="895" y="1991" on="1"/>
        <pt x="898" y="1991" on="1"/>
        <pt x="960" y="1991" on="0"/>
        <pt x="1001" y="1948" on="1"/>
        <pt x="1044" y="1904" on="0"/>
        <pt x="1044" y="1833" on="1"/>
      </contour>
    </TTGlyph>
    <TTGlyph name="Z" xMin="80" yMin="0" xMax="1212" yMax="1505">
      <contour>
        <pt x="80" y="75" on="1"/>
        <pt x="902" y="1351" on="1"/>
        <pt x="258" y="1351" on="1"/>
        <pt x="214" y="1203" on="1"/>
        <pt x="205" y="1177" on="0"/>
        <pt x="164" y="1177" on="1"/>
        <pt x="114" y="1178" on="0"/>
        <pt x="88" y="1208" on="1"/>
        <pt x="80" y="1218" on="0"/>
        <pt x="80" y="1228" on="1"/>
        <pt x="80" y="1232" on="1"/>
        <pt x="118" y="1505" on="1"/>
        <pt x="1202" y="1505" on="1"/>
        <pt x="1199" y="1437" on="1"/>
        <pt x="374" y="154" on="1"/>
        <pt x="1000" y="154" on="1"/>
        <pt x="1077" y="303" on="1"/>
        <pt x="1087" y="322" on="0"/>
        <pt x="1115" y="322" on="1"/>
        <pt x="1142" y="322" on="0"/>
        <pt x="1172" y="316" on="0"/>
        <pt x="1184" y="311" on="1"/>
        <pt x="1212" y="299" on="0"/>
        <pt x="1212" y="281" on="1"/>
        <pt x="1212" y="276" on="0"/>
        <pt x="1211" y="274" on="1"/>
        <pt x="1118" y="0" on="1"/>
        <pt x="80" y="0" on="1"/>
      </contour>
    </TTGlyph>
    <TTGlyph name="a" xMin="69" yMin="-20" xMax="1066" yMax="1021">
      <contour>
        <pt x="378" y="880" on="1"/>
        <pt x="390" y="854" on="0"/>
        <pt x="390" y="821" on="1"/>
        <pt x="390" y="788" on="0"/>
        <pt x="380" y="763" on="1"/>
        <pt x="368" y="738" on="0"/>
        <pt x="350" y="720" on="1"/>
        <pt x="312" y="682" on="0"/>
        <pt x="253" y="681" on="1"/>
        <pt x="160" y="681" on="0"/>
        <pt x="126" y="763" on="1"/>
        <pt x="116" y="788" on="0"/>
        <pt x="116" y="825" on="1"/>
        <pt x="116" y="861" on="0"/>
        <pt x="158" y="925" on="0"/>
        <pt x="227" y="971" on="0"/>
        <pt x="314" y="999" on="0"/>
        <pt x="359" y="1007" on="1"/>
        <pt x="438" y="1021" on="0"/>
        <pt x="532" y="1021" on="1"/>
        <pt x="625" y="1021" on="0"/>
        <pt x="762" y="961" on="0"/>
        <pt x="802" y="910" on="1"/>
        <pt x="871" y="821" on="0"/>
        <pt x="871" y="658" on="1"/>
        <pt x="871" y="141" on="1"/>
        <pt x="1039" y="141" on="1"/>
        <pt x="1066" y="141" on="0"/>
        <pt x="1066" y="82" on="1"/>
        <pt x="1066" y="56" on="0"/>
        <pt x="1046" y="5" on="0"/>
        <pt x="1025" y="0" on="1"/>
        <pt x="969" y="-16" on="0"/>
        <pt x="865" y="-16" on="1"/>
        <pt x="760" y="-16" on="0"/>
        <pt x="736" y="-9" on="0"/>
        <pt x="726" y="0" on="1"/>
        <pt x="707" y="17" on="0"/>
        <pt x="688" y="69" on="1"/>
        <pt x="566" y="-20" on="0"/>
        <pt x="394" y="-20" on="1"/>
        <pt x="240" y="-20" on="0"/>
        <pt x="152" y="62" on="1"/>
        <pt x="69" y="138" on="0"/>
        <pt x="69" y="261" on="1"/>
        <pt x="69" y="264" on="1"/>
        <pt x="69" y="417" on="0"/>
        <pt x="182" y="503" on="1"/>
        <pt x="281" y="579" on="0"/>
        <pt x="429" y="579" on="1"/>
        <pt x="676" y="579" on="1"/>
        <pt x="676" y="746" on="0"/>
        <pt x="621" y="843" on="0"/>
        <pt x="544" y="880" on="0"/>
        <pt x="480" y="880" on="1"/>
      </contour>
      <contour>
        <pt x="430" y="134" on="1"/>
        <pt x="556" y="134" on="0"/>
        <pt x="676" y="234" on="1"/>
        <pt x="676" y="429" on="1"/>
        <pt x="458" y="429" on="1"/>
        <pt x="378" y="429" on="0"/>
        <pt x="340" y="402" on="1"/>
        <pt x="271" y="354" on="0"/>
        <pt x="271" y="291" on="1"/>
        <pt x="271" y="173" on="0"/>
        <pt x="369" y="143" on="1"/>
        <pt x="398" y="134" on="0"/>
      </contour>
    </TTGlyph>
    <TTGlyph name="aacute" xMin="69" yMin="-20" xMax="1066" yMax="1581">
      <contour>
        <pt x="378" y="880" on="1"/>
        <pt x="390" y="854" on="0"/>
        <pt x="390" y="821" on="1"/>
        <pt x="390" y="788" on="0"/>
        <pt x="380" y="763" on="1"/>
        <pt x="368" y="738" on="0"/>
        <pt x="350" y="720" on="1"/>
        <pt x="312" y="682" on="0"/>
        <pt x="253" y="681" on="1"/>
        <pt x="160" y="681" on="0"/>
        <pt x="126" y="763" on="1"/>
        <pt x="116" y="788" on="0"/>
        <pt x="116" y="825" on="1"/>
        <pt x="116" y="861" on="0"/>
        <pt x="158" y="925" on="0"/>
        <pt x="227" y="971" on="0"/>
        <pt x="314" y="999" on="0"/>
        <pt x="359" y="1007" on="1"/>
        <pt x="438" y="1021" on="0"/>
        <pt x="532" y="1021" on="1"/>
        <pt x="625" y="1021" on="0"/>
        <pt x="762" y="961" on="0"/>
        <pt x="802" y="910" on="1"/>
        <pt x="871" y="821" on="0"/>
        <pt x="871" y="658" on="1"/>
        <pt x="871" y="141" on="1"/>
        <pt x="1039" y="141" on="1"/>
        <pt x="1066" y="141" on="0"/>
        <pt x="1066" y="82" on="1"/>
        <pt x="1066" y="56" on="0"/>
        <pt x="1046" y="5" on="0"/>
        <pt x="1025" y="0" on="1"/>
        <pt x="969" y="-16" on="0"/>
        <pt x="865" y="-16" on="1"/>
        <pt x="760" y="-16" on="0"/>
        <pt x="736" y="-9" on="0"/>
        <pt x="726" y="0" on="1"/>
        <pt x="707" y="17" on="0"/>
        <pt x="688" y="69" on="1"/>
        <pt x="566" y="-20" on="0"/>
        <pt x="394" y="-20" on="1"/>
        <pt x="240" y="-20" on="0"/>
        <pt x="152" y="62" on="1"/>
        <pt x="69" y="138" on="0"/>
        <pt x="69" y="261" on="1"/>
        <pt x="69" y="264" on="1"/>
        <pt x="69" y="417" on="0"/>
        <pt x="182" y="503" on="1"/>
        <pt x="281" y="579" on="0"/>
        <pt x="429" y="579" on="1"/>
        <pt x="676" y="579" on="1"/>
        <pt x="676" y="746" on="0"/>
        <pt x="621" y="843" on="0"/>
        <pt x="544" y="880" on="0"/>
        <pt x="480" y="880" on="1"/>
      </contour>
      <contour>
        <pt x="430" y="134" on="1"/>
        <pt x="556" y="134" on="0"/>
        <pt x="676" y="234" on="1"/>
        <pt x="676" y="429" on="1"/>
        <pt x="458" y="429" on="1"/>
        <pt x="378" y="429" on="0"/>
        <pt x="340" y="402" on="1"/>
        <pt x="271" y="354" on="0"/>
        <pt x="271" y="291" on="1"/>
        <pt x="271" y="173" on="0"/>
        <pt x="369" y="143" on="1"/>
        <pt x="398" y="134" on="0"/>
      </contour>
      <contour>
        <pt x="522" y="1188" on="1"/>
        <pt x="480" y="1188" on="0"/>
        <pt x="459" y="1212" on="1"/>
        <pt x="423" y="1253" on="0"/>
        <pt x="423" y="1296" on="1"/>
        <pt x="696" y="1581" on="1"/>
        <pt x="699" y="1581" on="1"/>
        <pt x="761" y="1581" on="0"/>
        <pt x="802" y="1538" on="1"/>
        <pt x="845" y="1494" on="0"/>
        <pt x="845" y="1423" on="1"/>
      </contour>
    </TTGlyph>
    <TTGlyph name="acircumflex" xMin="69" yMin="-20" xMax="1066" yMax="1505">
      <contour>
        <pt x="378" y="880" on="1"/>
        <pt x="390" y="854" on="0"/>
        <pt x="390" y="821" on="1"/>
        <pt x="390" y="788" on="0"/>
        <pt x="380" y="763" on="1"/>
        <pt x="368" y="738" on="0"/>
        <pt x="350" y="720" on="1"/>
        <pt x="312" y="682" on="0"/>
        <pt x="253" y="681" on="1"/>
        <pt x="160" y="681" on="0"/>
        <pt x="126" y="763" on="1"/>
        <pt x="116" y="788" on="0"/>
        <pt x="116" y="825" on="1"/>
        <pt x="116" y="861" on="0"/>
        <pt x="158" y="925" on="0"/>
        <pt x="227" y="971" on="0"/>
        <pt x="314" y="999" on="0"/>
        <pt x="359" y="1007" on="1"/>
        <pt x="438" y="1021" on="0"/>
        <pt x="532" y="1021" on="1"/>
        <pt x="625" y="1021" on="0"/>
        <pt x="762" y="961" on="0"/>
        <pt x="802" y="910" on="1"/>
        <pt x="871" y="821" on="0"/>
        <pt x="871" y="658" on="1"/>
        <pt x="871" y="141" on="1"/>
        <pt x="1039" y="141" on="1"/>
        <pt x="1066" y="141" on="0"/>
        <pt x="1066" y="82" on="1"/>
        <pt x="1066" y="56" on="0"/>
        <pt x="1046" y="5" on="0"/>
        <pt x="1025" y="0" on="1"/>
        <pt x="969" y="-16" on="0"/>
        <pt x="865" y="-16" on="1"/>
        <pt x="760" y="-16" on="0"/>
        <pt x="736" y="-9" on="0"/>
        <pt x="726" y="0" on="1"/>
        <pt x="707" y="17" on="0"/>
        <pt x="688" y="69" on="1"/>
        <pt x="566" y="-20" on="0"/>
        <pt x="394" y="-20" on="1"/>
        <pt x="240" y="-20" on="0"/>
        <pt x="152" y="62" on="1"/>
        <pt x="69" y="138" on="0"/>
        <pt x="69" y="261" on="1"/>
        <pt x="69" y="264" on="1"/>
        <pt x="69" y="417" on="0"/>
        <pt x="182" y="503" on="1"/>
        <pt x="281" y="579" on="0"/>
        <pt x="429" y="579" on="1"/>
        <pt x="676" y="579" on="1"/>
        <pt x="676" y="746" on="0"/>
        <pt x="621" y="843" on="0"/>
        <pt x="544" y="880" on="0"/>
        <pt x="480" y="880" on="1"/>
      </contour>
      <contour>
        <pt x="430" y="134" on="1"/>
        <pt x="556" y="134" on="0"/>
        <pt x="676" y="234" on="1"/>
        <pt x="676" y="429" on="1"/>
        <pt x="458" y="429" on="1"/>
        <pt x="378" y="429" on="0"/>
        <pt x="340" y="402" on="1"/>
        <pt x="271" y="354" on="0"/>
        <pt x="271" y="291" on="1"/>
        <pt x="271" y="173" on="0"/>
        <pt x="369" y="143" on="1"/>
        <pt x="398" y="134" on="0"/>
      </contour>
      <contour>
        <pt x="244" y="1200" on="1"/>
        <pt x="210" y="1200" on="0"/>
        <pt x="191" y="1222" on="1"/>
        <pt x="160" y="1260" on="0"/>
        <pt x="160" y="1300" on="1"/>
        <pt x="416" y="1477" on="1"/>
        <pt x="458" y="1505" on="0"/>
        <pt x="486" y="1505" on="1"/>
        <pt x="522" y="1505" on="0"/>
        <pt x="565" y="1477" on="1"/>
        <pt x="821" y="1300" on="1"/>
        <pt x="821" y="1236" on="0"/>
        <pt x="770" y="1208" on="1"/>
        <pt x="755" y="1200" on="0"/>
        <pt x="737" y="1200" on="1"/>
        <pt x="492" y="1317" on="1"/>
      </contour>
    </TTGlyph>
    <TTGlyph name="acute" xMin="440" yMin="1188" xMax="862" yMax="1581">
      <contour>
        <pt x="539" y="1188" on="1"/>
        <pt x="497" y="1188" on="0"/>
        <pt x="476" y="1212" on="1"/>
        <pt x="440" y="1253" on="0"/>
        <pt x="440" y="1296" on="1"/>
        <pt x="713" y="1581" on="1"/>
        <pt x="716" y="1581" on="1"/>
        <pt x="778" y="1581" on="0"/>
        <pt x="819" y="1538" on="1"/>
        <pt x="862" y="1494" on="0"/>
        <pt x="862" y="1423" on="1"/>
      </contour>
    </TTGlyph>
    <TTGlyph name="adieresis" xMin="69" yMin="-20" xMax="1066" yMax="1466">
      <contour>
        <pt x="378" y="880" on="1"/>
        <pt x="390" y="854" on="0"/>
        <pt x="390" y="821" on="1"/>
        <pt x="390" y="788" on="0"/>
        <pt x="380" y="763" on="1"/>
        <pt x="368" y="738" on="0"/>
        <pt x="350" y="720" on="1"/>
        <pt x="312" y="682" on="0"/>
        <pt x="253" y="681" on="1"/>
        <pt x="160" y="681" on="0"/>
        <pt x="126" y="763" on="1"/>
        <pt x="116" y="788" on="0"/>
        <pt x="116" y="825" on="1"/>
        <pt x="116" y="861" on="0"/>
        <pt x="158" y="925" on="0"/>
        <pt x="227" y="971" on="0"/>
        <pt x="314" y="999" on="0"/>
        <pt x="359" y="1007" on="1"/>
        <pt x="438" y="1021" on="0"/>
        <pt x="532" y="1021" on="1"/>
        <pt x="625" y="1021" on="0"/>
        <pt x="762" y="961" on="0"/>
        <pt x="802" y="910" on="1"/>
        <pt x="871" y="821" on="0"/>
        <pt x="871" y="658" on="1"/>
        <pt x="871" y="141" on="1"/>
        <pt x="1039" y="141" on="1"/>
        <pt x="1066" y="141" on="0"/>
        <pt x="1066" y="82" on="1"/>
        <pt x="1066" y="56" on="0"/>
        <pt x="1046" y="5" on="0"/>
        <pt x="1025" y="0" on="1"/>
        <pt x="969" y="-16" on="0"/>
        <pt x="865" y="-16" on="1"/>
        <pt x="760" y="-16" on="0"/>
        <pt x="736" y="-9" on="0"/>
        <pt x="726" y="0" on="1"/>
        <pt x="707" y="17" on="0"/>
        <pt x="688" y="69" on="1"/>
        <pt x="566" y="-20" on="0"/>
        <pt x="394" y="-20" on="1"/>
        <pt x="240" y="-20" on="0"/>
        <pt x="152" y="62" on="1"/>
        <pt x="69" y="138" on="0"/>
        <pt x="69" y="261" on="1"/>
        <pt x="69" y="264" on="1"/>
        <pt x="69" y="417" on="0"/>
        <pt x="182" y="503" on="1"/>
        <pt x="281" y="579" on="0"/>
        <pt x="429" y="579" on="1"/>
        <pt x="676" y="579" on="1"/>
        <pt x="676" y="746" on="0"/>
        <pt x="621" y="843" on="0"/>
        <pt x="544" y="880" on="0"/>
        <pt x="480" y="880" on="1"/>
      </contour>
      <contour>
        <pt x="430" y="134" on="1"/>
        <pt x="556" y="134" on="0"/>
        <pt x="676" y="234" on="1"/>
        <pt x="676" y="429" on="1"/>
        <pt x="458" y="429" on="1"/>
        <pt x="378" y="429" on="0"/>
        <pt x="340" y="402" on="1"/>
        <pt x="271" y="354" on="0"/>
        <pt x="271" y="291" on="1"/>
        <pt x="271" y="173" on="0"/>
        <pt x="369" y="143" on="1"/>
        <pt x="398" y="134" on="0"/>
      </contour>
      <contour>
        <pt x="114" y="1327" on="1"/>
        <pt x="114" y="1422" on="0"/>
        <pt x="194" y="1456" on="1"/>
        <pt x="218" y="1466" on="0"/>
        <pt x="248" y="1466" on="1"/>
        <pt x="278" y="1466" on="0"/>
        <pt x="304" y="1456" on="1"/>
        <pt x="330" y="1444" on="0"/>
        <pt x="348" y="1426" on="1"/>
        <pt x="387" y="1387" on="0"/>
        <pt x="387" y="1330" on="1"/>
        <pt x="387" y="1324" on="1"/>
        <pt x="387" y="1267" on="0"/>
        <pt x="348" y="1228" on="1"/>
        <pt x="310" y="1190" on="0"/>
        <pt x="264" y="1190" on="1"/>
        <pt x="188" y="1190" on="0"/>
        <pt x="114" y="1268" on="0"/>
      </contour>
      <contour>
        <pt x="702" y="1190" on="1"/>
        <pt x="610" y="1190" on="0"/>
        <pt x="577" y="1272" on="1"/>
        <pt x="567" y="1297" on="0"/>
        <pt x="567" y="1327" on="1"/>
        <pt x="567" y="1422" on="0"/>
        <pt x="647" y="1456" on="1"/>
        <pt x="672" y="1466" on="0"/>
        <pt x="702" y="1466" on="1"/>
        <pt x="760" y="1466" on="0"/>
        <pt x="800" y="1426" on="1"/>
        <pt x="838" y="1388" on="0"/>
        <pt x="839" y="1327" on="1"/>
        <pt x="839" y="1233" on="0"/>
        <pt x="757" y="1200" on="1"/>
        <pt x="732" y="1190" on="0"/>
      </contour>
    </TTGlyph>
    <TTGlyph name="ae" xMin="71" yMin="-20" xMax="1511" yMax="1021">
      <contour>
        <pt x="380" y="871" on="1"/>
        <pt x="392" y="845" on="0"/>
        <pt x="392" y="817" on="1"/>
        <pt x="392" y="788" on="0"/>
        <pt x="382" y="763" on="1"/>
        <pt x="370" y="738" on="0"/>
        <pt x="352" y="720" on="1"/>
        <pt x="314" y="682" on="0"/>
        <pt x="255" y="681" on="1"/>
        <pt x="162" y="681" on="0"/>
        <pt x="128" y="763" on="1"/>
        <pt x="118" y="788" on="0"/>
        <pt x="118" y="825" on="1"/>
        <pt x="118" y="861" on="0"/>
        <pt x="156" y="925" on="0"/>
        <pt x="218" y="971" on="0"/>
        <pt x="258" y="985" on="1"/>
        <pt x="296" y="999" on="0"/>
        <pt x="338" y="1007" on="1"/>
        <pt x="411" y="1021" on="0"/>
        <pt x="477" y="1021" on="1"/>
        <pt x="543" y="1021" on="0"/>
        <pt x="586" y="1010" on="1"/>
        <pt x="630" y="1000" on="0"/>
        <pt x="664" y="980" on="1"/>
        <pt x="732" y="942" on="0"/>
        <pt x="766" y="880" on="1"/>
        <pt x="876" y="980" on="0"/>
        <pt x="1024" y="1011" on="1"/>
        <pt x="1072" y="1021" on="0"/>
        <pt x="1143" y="1021" on="1"/>
        <pt x="1214" y="1021" on="0"/>
        <pt x="1360" y="958" on="0"/>
        <pt x="1410" y="898" on="1"/>
        <pt x="1511" y="777" on="0"/>
        <pt x="1511" y="558" on="1"/>
        <pt x="1511" y="512" on="0"/>
        <pt x="1425" y="444" on="0"/>
        <pt x="1358" y="444" on="1"/>
        <pt x="837" y="444" on="1"/>
        <pt x="848" y="289" on="0"/>
        <pt x="989" y="134" on="0"/>
        <pt x="1099" y="134" on="1"/>
        <pt x="1203" y="134" on="0"/>
        <pt x="1333" y="212" on="1"/>
        <pt x="1403" y="253" on="1"/>
        <pt x="1408" y="255" on="0"/>
        <pt x="1416" y="259" on="0"/>
        <pt x="1426" y="259" on="1"/>
        <pt x="1435" y="259" on="0"/>
        <pt x="1462" y="236" on="0"/>
        <pt x="1473" y="219" on="1"/>
        <pt x="1498" y="180" on="0"/>
        <pt x="1498" y="155" on="1"/>
        <pt x="1498" y="129" on="0"/>
        <pt x="1488" y="122" on="1"/>
        <pt x="1305" y="-20" on="0"/>
        <pt x="1089" y="-20" on="1"/>
        <pt x="872" y="-20" on="0"/>
        <pt x="756" y="112" on="1"/>
        <pt x="690" y="69" on="1"/>
        <pt x="554" y="-20" on="0"/>
        <pt x="396" y="-20" on="1"/>
        <pt x="242" y="-20" on="0"/>
        <pt x="154" y="62" on="1"/>
        <pt x="71" y="138" on="0"/>
        <pt x="71" y="261" on="1"/>
        <pt x="71" y="264" on="1"/>
        <pt x="71" y="419" on="0"/>
        <pt x="184" y="510" on="1"/>
        <pt x="287" y="593" on="0"/>
        <pt x="431" y="593" on="1"/>
        <pt x="633" y="593" on="1"/>
        <pt x="642" y="674" on="0"/>
        <pt x="642" y="691" on="1"/>
        <pt x="642" y="878" on="0"/>
        <pt x="482" y="878" on="1"/>
        <pt x="464" y="878" on="1"/>
        <pt x="452" y="878" on="0"/>
        <pt x="421" y="876" on="0"/>
        <pt x="391" y="874" on="0"/>
      </contour>
      <contour>
        <pt x="680" y="235" on="1"/>
        <pt x="646" y="317" on="0"/>
        <pt x="634" y="443" on="1"/>
        <pt x="466" y="443" on="1"/>
        <pt x="383" y="443" on="0"/>
        <pt x="273" y="356" on="0"/>
        <pt x="273" y="303" on="1"/>
        <pt x="273" y="250" on="0"/>
        <pt x="286" y="220" on="1"/>
        <pt x="298" y="192" on="0"/>
        <pt x="320" y="172" on="1"/>
        <pt x="362" y="135" on="0"/>
        <pt x="418" y="135" on="1"/>
        <pt x="421" y="134" on="0"/>
        <pt x="424" y="134" on="1"/>
        <pt x="475" y="134" on="0"/>
        <pt x="508" y="143" on="1"/>
        <pt x="543" y="151" on="0"/>
        <pt x="573" y="165" on="1"/>
        <pt x="625" y="189" on="0"/>
      </contour>
      <contour>
        <pt x="1307" y="594" on="1"/>
        <pt x="1306" y="804" on="0"/>
        <pt x="1190" y="852" on="1"/>
        <pt x="1154" y="866" on="0"/>
        <pt x="1111" y="867" on="1"/>
        <pt x="1108" y="867" on="1"/>
        <pt x="1066" y="867" on="0"/>
        <pt x="1019" y="850" on="1"/>
        <pt x="972" y="832" on="0"/>
        <pt x="932" y="798" on="1"/>
        <pt x="843" y="720" on="0"/>
        <pt x="835" y="594" on="1"/>
      </contour>
    </TTGlyph>
    <TTGlyph name="agrave" xMin="69" yMin="-20" xMax="1066" yMax="1581">
      <contour>
        <pt x="378" y="880" on="1"/>
        <pt x="390" y="854" on="0"/>
        <pt x="390" y="821" on="1"/>
        <pt x="390" y="788" on="0"/>
        <pt x="380" y="763" on="1"/>
        <pt x="368" y="738" on="0"/>
        <pt x="350" y="720" on="1"/>
        <pt x="312" y="682" on="0"/>
        <pt x="253" y="681" on="1"/>
        <pt x="160" y="681" on="0"/>
        <pt x="126" y="763" on="1"/>
        <pt x="116" y="788" on="0"/>
        <pt x="116" y="825" on="1"/>
        <pt x="116" y="861" on="0"/>
        <pt x="158" y="925" on="0"/>
        <pt x="227" y="971" on="0"/>
        <pt x="314" y="999" on="0"/>
        <pt x="359" y="1007" on="1"/>
        <pt x="438" y="1021" on="0"/>
        <pt x="532" y="1021" on="1"/>
        <pt x="625" y="1021" on="0"/>
        <pt x="762" y="961" on="0"/>
        <pt x="802" y="910" on="1"/>
        <pt x="871" y="821" on="0"/>
        <pt x="871" y="658" on="1"/>
        <pt x="871" y="141" on="1"/>
        <pt x="1039" y="141" on="1"/>
        <pt x="1066" y="141" on="0"/>
        <pt x="1066" y="82" on="1"/>
        <pt x="1066" y="56" on="0"/>
        <pt x="1046" y="5" on="0"/>
        <pt x="1025" y="0" on="1"/>
        <pt x="969" y="-16" on="0"/>
        <pt x="865" y="-16" on="1"/>
        <pt x="760" y="-16" on="0"/>
        <pt x="736" y="-9" on="0"/>
        <pt x="726" y="0" on="1"/>
        <pt x="707" y="17" on="0"/>
        <pt x="688" y="69" on="1"/>
        <pt x="566" y="-20" on="0"/>
        <pt x="394" y="-20" on="1"/>
        <pt x="240" y="-20" on="0"/>
        <pt x="152" y="62" on="1"/>
        <pt x="69" y="138" on="0"/>
        <pt x="69" y="261" on="1"/>
        <pt x="69" y="264" on="1"/>
        <pt x="69" y="417" on="0"/>
        <pt x="182" y="503" on="1"/>
        <pt x="281" y="579" on="0"/>
        <pt x="429" y="579" on="1"/>
        <pt x="676" y="579" on="1"/>
        <pt x="676" y="746" on="0"/>
        <pt x="621" y="843" on="0"/>
        <pt x="544" y="880" on="0"/>
        <pt x="480" y="880" on="1"/>
      </contour>
      <contour>
        <pt x="430" y="134" on="1"/>
        <pt x="556" y="134" on="0"/>
        <pt x="676" y="234" on="1"/>
        <pt x="676" y="429" on="1"/>
        <pt x="458" y="429" on="1"/>
        <pt x="378" y="429" on="0"/>
        <pt x="340" y="402" on="1"/>
        <pt x="271" y="354" on="0"/>
        <pt x="271" y="291" on="1"/>
        <pt x="271" y="173" on="0"/>
        <pt x="369" y="143" on="1"/>
        <pt x="398" y="134" on="0"/>
      </contour>
      <contour>
        <pt x="210" y="1423" on="1"/>
        <pt x="210" y="1532" on="0"/>
        <pt x="300" y="1570" on="1"/>
        <pt x="325" y="1581" on="0"/>
        <pt x="354" y="1581" on="1"/>
        <pt x="359" y="1581" on="1"/>
        <pt x="632" y="1296" on="1"/>
        <pt x="632" y="1253" on="0"/>
        <pt x="612" y="1230" on="1"/>
        <pt x="576" y="1188" on="0"/>
        <pt x="534" y="1188" on="1"/>
      </contour>
    </TTGlyph>
    <TTGlyph name="ampersand" xMin="74" yMin="-20" xMax="1323" yMax="1525">
      <contour>
        <pt x="1298" y="807" on="1"/>
        <pt x="1323" y="807" on="0"/>
        <pt x="1323" y="737" on="1"/>
        <pt x="1323" y="666" on="0"/>
        <pt x="1288" y="666" on="1"/>
        <pt x="1227" y="666" on="1"/>
        <pt x="1205" y="481" on="0"/>
        <pt x="1025" y="263" on="1"/>
        <pt x="1046" y="230" on="1"/>
        <pt x="1077" y="181" on="0"/>
        <pt x="1168" y="141" on="0"/>
        <pt x="1238" y="141" on="1"/>
        <pt x="1262" y="141" on="0"/>
        <pt x="1262" y="76" on="1"/>
        <pt x="1262" y="29" on="0"/>
        <pt x="1233" y="0" on="0"/>
        <pt x="1223" y="0" on="1"/>
        <pt x="1053" y="0" on="1"/>
        <pt x="977" y="0" on="0"/>
        <pt x="885" y="103" on="1"/>
        <pt x="714" y="-20" on="0"/>
        <pt x="506" y="-20" on="1"/>
        <pt x="316" y="-20" on="0"/>
        <pt x="196" y="89" on="1"/>
        <pt x="74" y="200" on="0"/>
        <pt x="74" y="376" on="1"/>
        <pt x="74" y="501" on="0"/>
        <pt x="134" y="604" on="1"/>
        <pt x="186" y="693" on="0"/>
        <pt x="330" y="837" on="1"/>
        <pt x="286" y="909" on="1"/>
        <pt x="197" y="1060" on="0"/>
        <pt x="197" y="1200" on="1"/>
        <pt x="198" y="1336" on="0"/>
        <pt x="298" y="1427" on="1"/>
        <pt x="406" y="1525" on="0"/>
        <pt x="590" y="1525" on="1"/>
        <pt x="785" y="1524" on="0"/>
        <pt x="883" y="1414" on="1"/>
        <pt x="958" y="1329" on="0"/>
        <pt x="958" y="1205" on="1"/>
        <pt x="958" y="1085" on="0"/>
        <pt x="895" y="976" on="1"/>
        <pt x="836" y="874" on="0"/>
        <pt x="680" y="714" on="1"/>
        <pt x="935" y="376" on="1"/>
        <pt x="1052" y="545" on="0"/>
        <pt x="1052" y="650" on="1"/>
        <pt x="1052" y="666" on="0"/>
        <pt x="1039" y="666" on="1"/>
        <pt x="915" y="666" on="1"/>
        <pt x="886" y="666" on="0"/>
        <pt x="876" y="720" on="1"/>
        <pt x="874" y="734" on="0"/>
        <pt x="874" y="748" on="1"/>
        <pt x="874" y="807" on="0"/>
        <pt x="900" y="807" on="1"/>
      </contour>
      <contour>
        <pt x="424" y="712" on="1"/>
        <pt x="307" y="595" on="0"/>
        <pt x="307" y="423" on="1"/>
        <pt x="308" y="286" on="0"/>
        <pt x="370" y="208" on="1"/>
        <pt x="429" y="134" on="0"/>
        <pt x="512" y="134" on="1"/>
        <pt x="673" y="134" on="0"/>
        <pt x="793" y="225" on="1"/>
      </contour>
      <contour>
        <pt x="588" y="840" on="1"/>
        <pt x="753" y="986" on="0"/>
        <pt x="753" y="1187" on="1"/>
        <pt x="752" y="1312" on="0"/>
        <pt x="660" y="1356" on="1"/>
        <pt x="630" y="1370" on="0"/>
        <pt x="587" y="1371" on="1"/>
        <pt x="583" y="1371" on="1"/>
        <pt x="542" y="1371" on="0"/>
        <pt x="508" y="1359" on="1"/>
        <pt x="472" y="1347" on="0"/>
        <pt x="448" y="1326" on="1"/>
        <pt x="399" y="1283" on="0"/>
        <pt x="399" y="1228" on="1"/>
        <pt x="399" y="1173" on="0"/>
        <pt x="430" y="1079" on="0"/>
        <pt x="456" y="1031" on="1"/>
        <pt x="498" y="954" on="0"/>
      </contour>
    </TTGlyph>
    <TTGlyph name="aring" xMin="69" yMin="-20" xMax="1066" yMax="1546">
      <contour>
        <pt x="378" y="880" on="1"/>
        <pt x="390" y="854" on="0"/>
        <pt x="390" y="821" on="1"/>
        <pt x="390" y="788" on="0"/>
        <pt x="380" y="763" on="1"/>
        <pt x="368" y="738" on="0"/>
        <pt x="350" y="720" on="1"/>
        <pt x="312" y="682" on="0"/>
        <pt x="253" y="681" on="1"/>
        <pt x="160" y="681" on="0"/>
        <pt x="126" y="763" on="1"/>
        <pt x="116" y="788" on="0"/>
        <pt x="116" y="825" on="1"/>
        <pt x="116" y="861" on="0"/>
        <pt x="158" y="925" on="0"/>
        <pt x="227" y="971" on="0"/>
        <pt x="314" y="999" on="0"/>
        <pt x="359" y="1007" on="1"/>
        <pt x="438" y="1021" on="0"/>
        <pt x="532" y="1021" on="1"/>
        <pt x="625" y="1021" on="0"/>
        <pt x="762" y="961" on="0"/>
        <pt x="802" y="910" on="1"/>
        <pt x="871" y="821" on="0"/>
        <pt x="871" y="658" on="1"/>
        <pt x="871" y="141" on="1"/>
        <pt x="1039" y="141" on="1"/>
        <pt x="1066" y="141" on="0"/>
        <pt x="1066" y="82" on="1"/>
        <pt x="1066" y="56" on="0"/>
        <pt x="1046" y="5" on="0"/>
        <pt x="1025" y="0" on="1"/>
        <pt x="969" y="-16" on="0"/>
        <pt x="865" y="-16" on="1"/>
        <pt x="760" y="-16" on="0"/>
        <pt x="736" y="-9" on="0"/>
        <pt x="726" y="0" on="1"/>
        <pt x="707" y="17" on="0"/>
        <pt x="688" y="69" on="1"/>
        <pt x="566" y="-20" on="0"/>
        <pt x="394" y="-20" on="1"/>
        <pt x="240" y="-20" on="0"/>
        <pt x="152" y="62" on="1"/>
        <pt x="69" y="138" on="0"/>
        <pt x="69" y="261" on="1"/>
        <pt x="69" y="264" on="1"/>
        <pt x="69" y="417" on="0"/>
        <pt x="182" y="503" on="1"/>
        <pt x="281" y="579" on="0"/>
        <pt x="429" y="579" on="1"/>
        <pt x="676" y="579" on="1"/>
        <pt x="676" y="746" on="0"/>
        <pt x="621" y="843" on="0"/>
        <pt x="544" y="880" on="0"/>
        <pt x="480" y="880" on="1"/>
      </contour>
      <contour>
        <pt x="430" y="134" on="1"/>
        <pt x="556" y="134" on="0"/>
        <pt x="676" y="234" on="1"/>
        <pt x="676" y="429" on="1"/>
        <pt x="458" y="429" on="1"/>
        <pt x="378" y="429" on="0"/>
        <pt x="340" y="402" on="1"/>
        <pt x="271" y="354" on="0"/>
        <pt x="271" y="291" on="1"/>
        <pt x="271" y="173" on="0"/>
        <pt x="369" y="143" on="1"/>
        <pt x="398" y="134" on="0"/>
      </contour>
      <contour>
        <pt x="257" y="1334" on="1"/>
        <pt x="257" y="1378" on="0"/>
        <pt x="288" y="1454" on="0"/>
        <pt x="316" y="1483" on="1"/>
        <pt x="378" y="1546" on="0"/>
        <pt x="474" y="1546" on="1"/>
        <pt x="570" y="1546" on="0"/>
        <pt x="632" y="1483" on="1"/>
        <pt x="691" y="1423" on="0"/>
        <pt x="691" y="1336" on="1"/>
        <pt x="691" y="1330" on="1"/>
        <pt x="691" y="1243" on="0"/>
        <pt x="632" y="1184" on="1"/>
        <pt x="570" y="1122" on="0"/>
        <pt x="474" y="1122" on="1"/>
        <pt x="378" y="1122" on="0"/>
        <pt x="316" y="1184" on="1"/>
        <pt x="257" y="1243" on="0"/>
        <pt x="257" y="1331" on="1"/>
      </contour>
      <contour>
        <pt x="396" y="1337" on="1"/>
        <pt x="396" y="1302" on="0"/>
        <pt x="443" y="1253" on="0"/>
        <pt x="478" y="1253" on="1"/>
        <pt x="513" y="1253" on="0"/>
        <pt x="560" y="1302" on="0"/>
        <pt x="560" y="1337" on="1"/>
        <pt x="560" y="1372" on="0"/>
        <pt x="513" y="1421" on="0"/>
        <pt x="478" y="1421" on="1"/>
        <pt x="443" y="1421" on="0"/>
        <pt x="396" y="1372" on="0"/>
      </contour>
    </TTGlyph>
    <TTGlyph name="asciicircum" xMin="59" yMin="834" xMax="1118" yMax="1444">
      <contour>
        <pt x="135" y="834" on="1"/>
        <pt x="59" y="834" on="0"/>
        <pt x="59" y="920" on="1"/>
        <pt x="512" y="1409" on="1"/>
        <pt x="542" y="1444" on="0"/>
        <pt x="576" y="1444" on="1"/>
        <pt x="626" y="1444" on="0"/>
        <pt x="659" y="1409" on="1"/>
        <pt x="1118" y="918" on="1"/>
        <pt x="1118" y="880" on="0"/>
        <pt x="1078" y="834" on="0"/>
        <pt x="1042" y="834" on="1"/>
        <pt x="580" y="1239" on="1"/>
      </contour>
    </TTGlyph>
    <TTGlyph name="asciitilde" xMin="109" yMin="442" xMax="1114" yMax="756">
      <contour>
        <pt x="203" y="465" on="1"/>
        <pt x="166" y="466" on="0"/>
        <pt x="144" y="486" on="1"/>
        <pt x="109" y="520" on="0"/>
        <pt x="109" y="557" on="1"/>
        <pt x="174" y="676" on="0"/>
        <pt x="288" y="732" on="1"/>
        <pt x="336" y="756" on="0"/>
        <pt x="381" y="756" on="1"/>
        <pt x="425" y="756" on="0"/>
        <pt x="499" y="734" on="0"/>
        <pt x="582" y="702" on="0"/>
        <pt x="626" y="683" on="1"/>
        <pt x="670" y="664" on="0"/>
        <pt x="710" y="648" on="1"/>
        <pt x="806" y="610" on="0"/>
        <pt x="841" y="610" on="1"/>
        <pt x="876" y="610" on="0"/>
        <pt x="926" y="641" on="0"/>
        <pt x="968" y="684" on="0"/>
        <pt x="1002" y="727" on="0"/>
        <pt x="1016" y="739" on="1"/>
        <pt x="1054" y="739" on="0"/>
        <pt x="1076" y="718" on="1"/>
        <pt x="1114" y="682" on="0"/>
        <pt x="1114" y="647" on="1"/>
        <pt x="1060" y="526" on="0"/>
        <pt x="946" y="467" on="1"/>
        <pt x="898" y="442" on="0"/>
        <pt x="850" y="442" on="1"/>
        <pt x="801" y="442" on="0"/>
        <pt x="719" y="462" on="0"/>
        <pt x="676" y="476" on="1"/>
        <pt x="632" y="490" on="0"/>
        <pt x="588" y="508" on="1"/>
        <pt x="504" y="540" on="1"/>
        <pt x="410" y="574" on="0"/>
        <pt x="375" y="575" on="1"/>
        <pt x="372" y="575" on="1"/>
        <pt x="338" y="575" on="0"/>
        <pt x="313" y="561" on="1"/>
        <pt x="286" y="547" on="0"/>
        <pt x="244" y="511" on="0"/>
        <pt x="214" y="474" on="0"/>
      </contour>
    </TTGlyph>
    <TTGlyph name="asterisk" xMin="66" yMin="1070" xMax="610" yMax="1600">
      <contour>
        <pt x="124" y="1479" on="1"/>
        <pt x="129" y="1478" on="1"/>
        <pt x="276" y="1411" on="1"/>
        <pt x="259" y="1569" on="1"/>
        <pt x="259" y="1590" on="0"/>
        <pt x="311" y="1598" on="1"/>
        <pt x="324" y="1600" on="0"/>
        <pt x="336" y="1600" on="1"/>
        <pt x="347" y="1600" on="0"/>
        <pt x="362" y="1598" on="1"/>
        <pt x="378" y="1598" on="0"/>
        <pt x="390" y="1594" on="1"/>
        <pt x="419" y="1586" on="0"/>
        <pt x="419" y="1570" on="1"/>
        <pt x="419" y="1569" on="1"/>
        <pt x="399" y="1409" on="1"/>
        <pt x="544" y="1476" on="1"/>
        <pt x="546" y="1477" on="0"/>
        <pt x="554" y="1477" on="1"/>
        <pt x="562" y="1477" on="0"/>
        <pt x="584" y="1448" on="0"/>
        <pt x="592" y="1428" on="1"/>
        <pt x="610" y="1387" on="0"/>
        <pt x="610" y="1359" on="1"/>
        <pt x="610" y="1330" on="0"/>
        <pt x="596" y="1324" on="1"/>
        <pt x="435" y="1291" on="1"/>
        <pt x="549" y="1175" on="1"/>
        <pt x="552" y="1170" on="0"/>
        <pt x="552" y="1161" on="1"/>
        <pt x="552" y="1151" on="0"/>
        <pt x="526" y="1118" on="0"/>
        <pt x="508" y="1104" on="1"/>
        <pt x="464" y="1070" on="0"/>
        <pt x="446" y="1070" on="1"/>
        <pt x="427" y="1070" on="0"/>
        <pt x="423" y="1077" on="1"/>
        <pt x="334" y="1222" on="1"/>
        <pt x="257" y="1080" on="1"/>
        <pt x="251" y="1073" on="0"/>
        <pt x="240" y="1073" on="1"/>
        <pt x="228" y="1073" on="0"/>
        <pt x="189" y="1090" on="0"/>
        <pt x="170" y="1104" on="1"/>
        <pt x="124" y="1137" on="0"/>
        <pt x="124" y="1163" on="1"/>
        <pt x="124" y="1168" on="0"/>
        <pt x="127" y="1173" on="1"/>
        <pt x="236" y="1295" on="1"/>
        <pt x="80" y="1325" on="1"/>
        <pt x="66" y="1329" on="0"/>
        <pt x="66" y="1349" on="1"/>
        <pt x="66" y="1369" on="0"/>
        <pt x="74" y="1409" on="0"/>
        <pt x="82" y="1429" on="1"/>
        <pt x="100" y="1479" on="0"/>
      </contour>
    </TTGlyph>
    <TTGlyph name="at" xMin="68" yMin="-350" xMax="1760" yMax="1355">
      <contour>
        <pt x="929" y="1024" on="1"/>
        <pt x="1029" y="1024" on="0"/>
        <pt x="1162" y="987" on="1"/>
        <pt x="1202" y="1038" on="1"/>
        <pt x="1208" y="1040" on="0"/>
        <pt x="1214" y="1040" on="1"/>
        <pt x="1229" y="1040" on="1"/>
        <pt x="1288" y="1040" on="0"/>
        <pt x="1333" y="1004" on="1"/>
        <pt x="1346" y="994" on="0"/>
        <pt x="1352" y="981" on="1"/>
        <pt x="1297" y="766" on="1"/>
        <pt x="1297" y="189" on="1"/>
        <pt x="1297" y="154" on="0"/>
        <pt x="1306" y="145" on="1"/>
        <pt x="1320" y="130" on="0"/>
        <pt x="1359" y="130" on="1"/>
        <pt x="1398" y="130" on="0"/>
        <pt x="1481" y="180" on="0"/>
        <pt x="1516" y="230" on="1"/>
        <pt x="1598" y="348" on="0"/>
        <pt x="1598" y="509" on="1"/>
        <pt x="1598" y="669" on="0"/>
        <pt x="1508" y="914" on="0"/>
        <pt x="1422" y="1005" on="1"/>
        <pt x="1238" y="1201" on="0"/>
        <pt x="930" y="1201" on="1"/>
        <pt x="620" y="1200" on="0"/>
        <pt x="431" y="1006" on="1"/>
        <pt x="233" y="803" on="0"/>
        <pt x="233" y="448" on="1"/>
        <pt x="234" y="162" on="0"/>
        <pt x="416" y="-17" on="1"/>
        <pt x="602" y="-200" on="0"/>
        <pt x="887" y="-200" on="1"/>
        <pt x="1172" y="-200" on="0"/>
        <pt x="1348" y="-84" on="1"/>
        <pt x="1394" y="-104" on="0"/>
        <pt x="1424" y="-168" on="1"/>
        <pt x="1432" y="-186" on="0"/>
        <pt x="1435" y="-202" on="1"/>
        <pt x="1218" y="-350" on="0"/>
        <pt x="912" y="-350" on="1"/>
        <pt x="522" y="-350" on="0"/>
        <pt x="298" y="-140" on="1"/>
        <pt x="68" y="76" on="0"/>
        <pt x="68" y="459" on="1"/>
        <pt x="68" y="857" on="0"/>
        <pt x="317" y="1109" on="1"/>
        <pt x="473" y="1267" on="0"/>
        <pt x="698" y="1326" on="1"/>
        <pt x="809" y="1355" on="0"/>
        <pt x="964" y="1355" on="1"/>
        <pt x="1119" y="1355" on="0"/>
        <pt x="1426" y="1229" on="0"/>
        <pt x="1534" y="1118" on="1"/>
        <pt x="1760" y="887" on="0"/>
        <pt x="1760" y="529" on="1"/>
        <pt x="1760" y="304" on="0"/>
        <pt x="1631" y="148" on="1"/>
        <pt x="1500" y="-11" on="0"/>
        <pt x="1302" y="-11" on="1"/>
        <pt x="1299" y="-11" on="1"/>
        <pt x="1196" y="-11" on="0"/>
        <pt x="1156" y="41" on="1"/>
        <pt x="1142" y="59" on="0"/>
        <pt x="1132" y="85" on="1"/>
        <pt x="1049" y="18" on="0"/>
        <pt x="921" y="-10" on="1"/>
        <pt x="875" y="-20" on="0"/>
        <pt x="826" y="-20" on="1"/>
        <pt x="460" y="-20" on="0"/>
        <pt x="460" y="512" on="1"/>
        <pt x="460" y="740" on="0"/>
        <pt x="598" y="885" on="1"/>
        <pt x="730" y="1024" on="0"/>
      </contour>
      <contour>
        <pt x="867" y="134" on="1"/>
        <pt x="982" y="134" on="0"/>
        <pt x="1102" y="234" on="1"/>
        <pt x="1102" y="805" on="1"/>
        <pt x="1019" y="870" on="0"/>
        <pt x="914" y="870" on="1"/>
        <pt x="756" y="870" on="0"/>
        <pt x="690" y="686" on="1"/>
        <pt x="665" y="616" on="0"/>
        <pt x="665" y="512" on="1"/>
        <pt x="665" y="407" on="0"/>
        <pt x="697" y="264" on="0"/>
        <pt x="724" y="219" on="1"/>
        <pt x="775" y="134" on="0"/>
      </contour>
    </TTGlyph>
    <TTGlyph name="atilde" xMin="57" yMin="-20" xMax="1066" yMax="1507">
      <contour>
        <pt x="378" y="880" on="1"/>
        <pt x="390" y="854" on="0"/>
        <pt x="390" y="821" on="1"/>
        <pt x="390" y="788" on="0"/>
        <pt x="380" y="763" on="1"/>
        <pt x="368" y="738" on="0"/>
        <pt x="350" y="720" on="1"/>
        <pt x="312" y="682" on="0"/>
        <pt x="253" y="681" on="1"/>
        <pt x="160" y="681" on="0"/>
        <pt x="126" y="763" on="1"/>
        <pt x="116" y="788" on="0"/>
        <pt x="116" y="825" on="1"/>
        <pt x="116" y="861" on="0"/>
        <pt x="158" y="925" on="0"/>
        <pt x="227" y="971" on="0"/>
        <pt x="314" y="999" on="0"/>
        <pt x="359" y="1007" on="1"/>
        <pt x="438" y="1021" on="0"/>
        <pt x="532" y="1021" on="1"/>
        <pt x="625" y="1021" on="0"/>
        <pt x="762" y="961" on="0"/>
        <pt x="802" y="910" on="1"/>
        <pt x="871" y="821" on="0"/>
        <pt x="871" y="658" on="1"/>
        <pt x="871" y="141" on="1"/>
        <pt x="1039" y="141" on="1"/>
        <pt x="1066" y="141" on="0"/>
        <pt x="1066" y="82" on="1"/>
        <pt x="1066" y="56" on="0"/>
        <pt x="1046" y="5" on="0"/>
        <pt x="1025" y="0" on="1"/>
        <pt x="969" y="-16" on="0"/>
        <pt x="865" y="-16" on="1"/>
        <pt x="760" y="-16" on="0"/>
        <pt x="736" y="-9" on="0"/>
        <pt x="726" y="0" on="1"/>
        <pt x="707" y="17" on="0"/>
        <pt x="688" y="69" on="1"/>
        <pt x="566" y="-20" on="0"/>
        <pt x="394" y="-20" on="1"/>
        <pt x="240" y="-20" on="0"/>
        <pt x="152" y="62" on="1"/>
        <pt x="69" y="138" on="0"/>
        <pt x="69" y="261" on="1"/>
        <pt x="69" y="264" on="1"/>
        <pt x="69" y="417" on="0"/>
        <pt x="182" y="503" on="1"/>
        <pt x="281" y="579" on="0"/>
        <pt x="429" y="579" on="1"/>
        <pt x="676" y="579" on="1"/>
        <pt x="676" y="746" on="0"/>
        <pt x="621" y="843" on="0"/>
        <pt x="544" y="880" on="0"/>
        <pt x="480" y="880" on="1"/>
      </contour>
      <contour>
        <pt x="430" y="134" on="1"/>
        <pt x="556" y="134" on="0"/>
        <pt x="676" y="234" on="1"/>
        <pt x="676" y="429" on="1"/>
        <pt x="458" y="429" on="1"/>
        <pt x="378" y="429" on="0"/>
        <pt x="340" y="402" on="1"/>
        <pt x="271" y="354" on="0"/>
        <pt x="271" y="291" on="1"/>
        <pt x="271" y="173" on="0"/>
        <pt x="369" y="143" on="1"/>
        <pt x="398" y="134" on="0"/>
      </contour>
      <contour>
        <pt x="151" y="1217" on="1"/>
        <pt x="112" y="1218" on="0"/>
        <pt x="92" y="1238" on="1"/>
        <pt x="58" y="1272" on="0"/>
        <pt x="57" y="1309" on="1"/>
        <pt x="122" y="1426" on="0"/>
        <pt x="236" y="1483" on="1"/>
        <pt x="284" y="1507" on="0"/>
        <pt x="336" y="1507" on="1"/>
        <pt x="387" y="1507" on="0"/>
        <pt x="460" y="1462" on="0"/>
        <pt x="530" y="1407" on="0"/>
        <pt x="601" y="1362" on="0"/>
        <pt x="635" y="1362" on="1"/>
        <pt x="668" y="1362" on="0"/>
        <pt x="718" y="1393" on="0"/>
        <pt x="760" y="1435" on="0"/>
        <pt x="794" y="1479" on="0"/>
        <pt x="808" y="1491" on="1"/>
        <pt x="846" y="1491" on="0"/>
        <pt x="868" y="1470" on="1"/>
        <pt x="906" y="1434" on="0"/>
        <pt x="906" y="1399" on="1"/>
        <pt x="852" y="1278" on="0"/>
        <pt x="738" y="1219" on="1"/>
        <pt x="690" y="1194" on="0"/>
        <pt x="642" y="1194" on="1"/>
        <pt x="593" y="1194" on="0"/>
        <pt x="534" y="1214" on="0"/>
        <pt x="482" y="1243" on="0"/>
        <pt x="458" y="1260" on="1"/>
        <pt x="434" y="1278" on="0"/>
        <pt x="412" y="1292" on="1"/>
        <pt x="358" y="1326" on="0"/>
        <pt x="323" y="1327" on="1"/>
        <pt x="320" y="1327" on="1"/>
        <pt x="286" y="1327" on="0"/>
        <pt x="261" y="1313" on="1"/>
        <pt x="234" y="1299" on="0"/>
        <pt x="192" y="1263" on="0"/>
        <pt x="161" y="1226" on="0"/>
      </contour>
    </TTGlyph>
    <TTGlyph name="b" xMin="-70" yMin="-22" xMax="1017" yMax="1583">
      <contour>
        <pt x="342" y="207" on="1"/>
        <pt x="437" y="140" on="0"/>
        <pt x="530" y="140" on="1"/>
        <pt x="721" y="140" on="0"/>
        <pt x="786" y="322" on="1"/>
        <pt x="812" y="394" on="0"/>
        <pt x="812" y="503" on="1"/>
        <pt x="812" y="612" on="0"/>
        <pt x="787" y="678" on="1"/>
        <pt x="762" y="742" on="0"/>
        <pt x="725" y="780" on="1"/>
        <pt x="659" y="846" on="0"/>
        <pt x="565" y="847" on="1"/>
        <pt x="478" y="847" on="0"/>
        <pt x="396" y="798" on="1"/>
        <pt x="366" y="780" on="0"/>
        <pt x="342" y="753" on="1"/>
      </contour>
      <contour>
        <pt x="342" y="939" on="1"/>
        <pt x="480" y="1021" on="0"/>
        <pt x="589" y="1021" on="1"/>
        <pt x="697" y="1021" on="0"/>
        <pt x="772" y="986" on="1"/>
        <pt x="848" y="950" on="0"/>
        <pt x="902" y="884" on="1"/>
        <pt x="1017" y="744" on="0"/>
        <pt x="1017" y="510" on="1"/>
        <pt x="1017" y="502" on="1"/>
        <pt x="1017" y="261" on="0"/>
        <pt x="878" y="119" on="1"/>
        <pt x="748" y="-14" on="0"/>
        <pt x="542" y="-14" on="1"/>
        <pt x="462" y="-14" on="0"/>
        <pt x="362" y="46" on="1"/>
        <pt x="338" y="60" on="0"/>
        <pt x="321" y="69" on="1"/>
        <pt x="251" y="-16" on="1"/>
        <pt x="241" y="-22" on="0"/>
        <pt x="226" y="-22" on="1"/>
        <pt x="196" y="-22" on="0"/>
        <pt x="147" y="2" on="1"/>
        <pt x="104" y="23" on="0"/>
        <pt x="102" y="44" on="1"/>
        <pt x="147" y="225" on="1"/>
        <pt x="147" y="1409" on="1"/>
        <pt x="-29" y="1409" on="1"/>
        <pt x="-58" y="1409" on="0"/>
        <pt x="-68" y="1461" on="1"/>
        <pt x="-70" y="1475" on="0"/>
        <pt x="-70" y="1491" on="1"/>
        <pt x="-70" y="1535" on="0"/>
        <pt x="-17" y="1556" on="0"/>
        <pt x="71" y="1570" on="0"/>
        <pt x="120" y="1574" on="1"/>
        <pt x="213" y="1582" on="0"/>
        <pt x="297" y="1583" on="1"/>
        <pt x="340" y="1583" on="0"/>
        <pt x="342" y="1498" on="1"/>
      </contour>
    </TTGlyph>
    <TTGlyph name="backslash" xMin="41" yMin="-170" xMax="879" yMax="1638">
      <contour>
        <pt x="41" y="1606" on="1"/>
        <pt x="41" y="1638" on="0"/>
        <pt x="116" y="1638" on="1"/>
        <pt x="157" y="1638" on="0"/>
        <pt x="206" y="1606" on="1"/>
        <pt x="879" y="-141" on="1"/>
        <pt x="879" y="-170" on="0"/>
        <pt x="804" y="-170" on="1"/>
        <pt x="747" y="-170" on="0"/>
        <pt x="707" y="-141" on="1"/>
      </contour>
    </TTGlyph>
    <TTGlyph name="bar" xMin="181" yMin="-483" xMax="335" yMax="1636">
      <contour>
        <pt x="335" y="-455" on="1"/>
        <pt x="335" y="-483" on="0"/>
        <pt x="258" y="-483" on="1"/>
        <pt x="181" y="-483" on="0"/>
        <pt x="181" y="-455" on="1"/>
        <pt x="181" y="1608" on="1"/>
        <pt x="181" y="1636" on="0"/>
        <pt x="258" y="1636" on="1"/>
        <pt x="335" y="1636" on="0"/>
        <pt x="335" y="1608" on="1"/>
      </contour>
    </TTGlyph>
    <TTGlyph name="braceleft" xMin="62" yMin="-160" xMax="665" yMax="1671">
      <contour>
        <pt x="637" y="-19" on="1"/>
        <pt x="665" y="-19" on="0"/>
        <pt x="665" y="-89" on="1"/>
        <pt x="665" y="-160" on="0"/>
        <pt x="637" y="-160" on="1"/>
        <pt x="473" y="-160" on="1"/>
        <pt x="334" y="-160" on="0"/>
        <pt x="272" y="-94" on="1"/>
        <pt x="206" y="-23" on="0"/>
        <pt x="206" y="150" on="1"/>
        <pt x="206" y="471" on="1"/>
        <pt x="206" y="547" on="0"/>
        <pt x="189" y="568" on="1"/>
        <pt x="162" y="601" on="0"/>
        <pt x="91" y="611" on="1"/>
        <pt x="62" y="615" on="0"/>
        <pt x="62" y="683" on="1"/>
        <pt x="62" y="744" on="0"/>
        <pt x="91" y="750" on="1"/>
        <pt x="161" y="760" on="0"/>
        <pt x="178" y="782" on="1"/>
        <pt x="206" y="817" on="0"/>
        <pt x="206" y="891" on="1"/>
        <pt x="206" y="1352" on="1"/>
        <pt x="206" y="1603" on="0"/>
        <pt x="356" y="1654" on="1"/>
        <pt x="406" y="1671" on="0"/>
        <pt x="473" y="1671" on="1"/>
        <pt x="637" y="1671" on="1"/>
        <pt x="665" y="1671" on="0"/>
        <pt x="665" y="1602" on="1"/>
        <pt x="665" y="1530" on="0"/>
        <pt x="637" y="1530" on="1"/>
        <pt x="558" y="1530" on="1"/>
        <pt x="458" y="1530" on="0"/>
        <pt x="426" y="1482" on="1"/>
        <pt x="401" y="1445" on="0"/>
        <pt x="401" y="1346" on="1"/>
        <pt x="401" y="901" on="1"/>
        <pt x="401" y="777" on="0"/>
        <pt x="304" y="716" on="1"/>
        <pt x="270" y="694" on="0"/>
        <pt x="221" y="682" on="1"/>
        <pt x="401" y="630" on="0"/>
        <pt x="401" y="457" on="1"/>
        <pt x="401" y="148" on="1"/>
        <pt x="401" y="56" on="0"/>
        <pt x="420" y="30" on="1"/>
        <pt x="455" y="-19" on="0"/>
        <pt x="558" y="-19" on="1"/>
      </contour>
    </TTGlyph>
    <TTGlyph name="braceright" xMin="2" yMin="-160" xMax="605" yMax="1671">
      <contour>
        <pt x="2" y="1602" on="1"/>
        <pt x="2" y="1671" on="0"/>
        <pt x="30" y="1671" on="1"/>
        <pt x="198" y="1671" on="1"/>
        <pt x="331" y="1671" on="0"/>
        <pt x="394" y="1600" on="1"/>
        <pt x="460" y="1526" on="0"/>
        <pt x="461" y="1352" on="1"/>
        <pt x="461" y="883" on="1"/>
        <pt x="461" y="815" on="0"/>
        <pt x="478" y="795" on="1"/>
        <pt x="506" y="760" on="0"/>
        <pt x="576" y="750" on="1"/>
        <pt x="605" y="744" on="0"/>
        <pt x="605" y="683" on="1"/>
        <pt x="605" y="641" on="0"/>
        <pt x="584" y="612" on="0"/>
        <pt x="540" y="606" on="0"/>
        <pt x="518" y="598" on="1"/>
        <pt x="494" y="590" on="0"/>
        <pt x="482" y="574" on="1"/>
        <pt x="461" y="548" on="0"/>
        <pt x="461" y="478" on="1"/>
        <pt x="461" y="150" on="1"/>
        <pt x="461" y="-100" on="0"/>
        <pt x="311" y="-145" on="1"/>
        <pt x="261" y="-160" on="0"/>
        <pt x="194" y="-160" on="1"/>
        <pt x="30" y="-160" on="1"/>
        <pt x="2" y="-160" on="0"/>
        <pt x="2" y="-89" on="1"/>
        <pt x="2" y="-19" on="0"/>
        <pt x="30" y="-19" on="1"/>
        <pt x="114" y="-19" on="1"/>
        <pt x="211" y="-19" on="0"/>
        <pt x="242" y="24" on="1"/>
        <pt x="266" y="57" on="0"/>
        <pt x="266" y="157" on="1"/>
        <pt x="266" y="457" on="1"/>
        <pt x="266" y="629" on="0"/>
        <pt x="446" y="682" on="1"/>
        <pt x="266" y="727" on="0"/>
        <pt x="266" y="903" on="1"/>
        <pt x="266" y="1346" on="1"/>
        <pt x="266" y="1446" on="0"/>
        <pt x="246" y="1476" on="1"/>
        <pt x="209" y="1530" on="0"/>
        <pt x="109" y="1530" on="1"/>
        <pt x="30" y="1530" on="1"/>
        <pt x="2" y="1530" on="0"/>
      </contour>
    </TTGlyph>
    <TTGlyph name="bracketleft" xMin="185" yMin="-160" xMax="647" yMax="1671">
      <contour>
        <pt x="614" y="-19" on="1"/>
        <pt x="644" y="-19" on="0"/>
        <pt x="644" y="-89" on="1"/>
        <pt x="644" y="-160" on="0"/>
        <pt x="614" y="-160" on="1"/>
        <pt x="185" y="-160" on="1"/>
        <pt x="185" y="1671" on="1"/>
        <pt x="614" y="1671" on="1"/>
        <pt x="647" y="1671" on="0"/>
        <pt x="647" y="1601" on="1"/>
        <pt x="647" y="1530" on="0"/>
        <pt x="614" y="1530" on="1"/>
        <pt x="380" y="1530" on="1"/>
        <pt x="380" y="-19" on="1"/>
      </contour>
    </TTGlyph>
    <TTGlyph name="bracketright" xMin="7" yMin="-160" xMax="469" yMax="1671">
      <contour>
        <pt x="40" y="1530" on="1"/>
        <pt x="7" y="1530" on="0"/>
        <pt x="7" y="1601" on="1"/>
        <pt x="7" y="1671" on="0"/>
        <pt x="40" y="1671" on="1"/>
        <pt x="469" y="1671" on="1"/>
        <pt x="469" y="-160" on="1"/>
        <pt x="40" y="-160" on="1"/>
        <pt x="10" y="-160" on="0"/>
        <pt x="10" y="-89" on="1"/>
        <pt x="10" y="-19" on="0"/>
        <pt x="40" y="-19" on="1"/>
        <pt x="274" y="-19" on="1"/>
        <pt x="274" y="1530" on="1"/>
      </contour>
    </TTGlyph>
    <TTGlyph name="brokenbar" xMin="184" yMin="-483" xMax="338" yMax="1636">
      <contour>
        <pt x="184" y="1608" on="1"/>
        <pt x="184" y="1636" on="0"/>
        <pt x="261" y="1636" on="1"/>
        <pt x="338" y="1636" on="0"/>
        <pt x="338" y="1608" on="1"/>
        <pt x="338" y="694" on="1"/>
        <pt x="184" y="694" on="1"/>
      </contour>
      <contour>
        <pt x="338" y="-455" on="1"/>
        <pt x="338" y="-483" on="0"/>
        <pt x="261" y="-483" on="1"/>
        <pt x="184" y="-483" on="0"/>
        <pt x="184" y="-455" on="1"/>
        <pt x="184" y="516" on="1"/>
        <pt x="338" y="516" on="1"/>
      </contour>
    </TTGlyph>
    <TTGlyph name="bullet" xMin="100" yMin="514" xMax="614" yMax="1030">
      <contour>
        <pt x="354" y="514" on="1"/>
        <pt x="300" y="514" on="0"/>
        <pt x="207" y="553" on="0"/>
        <pt x="173" y="587" on="1"/>
        <pt x="100" y="660" on="0"/>
        <pt x="100" y="770" on="1"/>
        <pt x="100" y="882" on="0"/>
        <pt x="173" y="956" on="1"/>
        <pt x="245" y="1030" on="0"/>
        <pt x="354" y="1030" on="1"/>
        <pt x="464" y="1030" on="0"/>
        <pt x="614" y="882" on="0"/>
        <pt x="614" y="770" on="1"/>
        <pt x="614" y="660" on="0"/>
        <pt x="463" y="514" on="0"/>
      </contour>
    </TTGlyph>
    <TTGlyph name="c" xMin="82" yMin="-20" xMax="950" yMax="1021">
      <contour>
        <pt x="655" y="880" on="1"/>
        <pt x="562" y="880" on="1"/>
        <pt x="458" y="880" on="0"/>
        <pt x="383" y="801" on="1"/>
        <pt x="287" y="700" on="0"/>
        <pt x="287" y="510" on="1"/>
        <pt x="287" y="232" on="0"/>
        <pt x="442" y="158" on="1"/>
        <pt x="491" y="134" on="0"/>
        <pt x="542" y="134" on="1"/>
        <pt x="593" y="134" on="0"/>
        <pt x="675" y="156" on="0"/>
        <pt x="714" y="174" on="1"/>
        <pt x="754" y="191" on="0"/>
        <pt x="790" y="213" on="1"/>
        <pt x="861" y="256" on="1"/>
        <pt x="865" y="259" on="0"/>
        <pt x="875" y="259" on="1"/>
        <pt x="884" y="259" on="0"/>
        <pt x="912" y="236" on="0"/>
        <pt x="924" y="220" on="1"/>
        <pt x="950" y="182" on="0"/>
        <pt x="950" y="157" on="1"/>
        <pt x="950" y="132" on="0"/>
        <pt x="939" y="123" on="1"/>
        <pt x="748" y="-20" on="0"/>
        <pt x="523" y="-20" on="1"/>
        <pt x="314" y="-20" on="0"/>
        <pt x="196" y="125" on="1"/>
        <pt x="82" y="265" on="0"/>
        <pt x="82" y="510" on="1"/>
        <pt x="82" y="750" on="0"/>
        <pt x="227" y="890" on="1"/>
        <pt x="363" y="1020" on="0"/>
        <pt x="574" y="1021" on="1"/>
        <pt x="800" y="1020" on="0"/>
        <pt x="887" y="922" on="1"/>
        <pt x="920" y="884" on="0"/>
        <pt x="920" y="841" on="1"/>
        <pt x="920" y="798" on="0"/>
        <pt x="910" y="773" on="1"/>
        <pt x="898" y="748" on="0"/>
        <pt x="880" y="730" on="1"/>
        <pt x="840" y="691" on="0"/>
        <pt x="783" y="691" on="1"/>
        <pt x="726" y="691" on="0"/>
        <pt x="686" y="730" on="1"/>
        <pt x="646" y="768" on="0"/>
        <pt x="646" y="806" on="1"/>
        <pt x="646" y="844" on="0"/>
      </contour>
    </TTGlyph>
</ttFont>
